M48
;Layer_Color=9474304
;FILE_FORMAT=4:3
METRIC,TZ
;TYPE=PLATED
T1F00S00C0.300
T2F00S00C0.400
T3F00S00C1.000
T4F00S00C3.000
%
T01
X83890Y19920
X87310Y18980
X87260Y29470
X85080Y32570
X80870
X74570Y37160
X73360
X72140
X71950Y26720
Y25720
Y24620
X73080
Y25720
Y26720
X74240
Y25720
Y24620
X72220Y17370
X72090Y12870
X69390Y15330
X69270Y9460
X69390Y4560
X71930Y2120
X71980Y7070
X76450Y4780
X78990Y2340
X79040Y7290
X76330Y9680
X76450Y15550
X79280Y17590
X79150Y13090
X64310Y13480
X64440Y17980
X63660Y23880
X61120Y26320
X58520Y24950
X58390Y20450
X55690Y22910
X52040Y23390
X52010Y21890
X52050Y20240
X48927Y18879
X49560Y17744
X50349Y16710
X51059Y15621
X51691Y14485
X52189Y13285
X50569Y13276
X51013Y12055
X52598Y12051
X52910Y10788
X53126Y9507
X53245Y8212
X53473Y6932
X53738Y5660
Y4360
Y3060
Y1760
X51258Y1773
Y3073
Y4373
Y5673
X51539Y6943
X51726Y8229
X51594Y9523
X51356Y10801
X47110Y11300
X47360Y7480
X48880Y7490
X46240Y6480
Y5150
X46270Y3870
X46280Y2600
Y1300
X41940Y1220
Y2520
X41950Y3790
X41980Y5070
Y6400
X40860Y7400
X40820Y10940
X42260Y15210
X45680Y15240
X49309Y15548
X49991Y14441
X48539Y16595
X47517Y17399
X46583Y18303
X48003Y19793
X47260Y20910
X46410Y21860
X41170Y21650
X39970Y20710
X40248Y23725
X39898Y28350
X41250Y33020
X44290Y31500
X44910Y36180
X47430Y36240
X52570Y36430
X52440Y34680
X52520Y31300
X54080Y31273
X52770Y27960
X51720Y26090
X47580Y28100
X49410Y31180
X55220Y36060
X61120Y37090
X63820Y34630
X63710Y28830
X61000Y31220
X55570Y17040
X55690Y12140
X58230Y9700
X57580Y7490
X56060Y7500
X58700Y6490
Y5160
X58670Y3880
X58660Y2610
Y1310
X61610Y5170
X64150Y2730
X64200Y7680
X61490Y10070
X43940Y8230
X40653Y17900
X39710Y36590
X36670Y36640
X35190Y34110
X37270Y32270
X39600Y32980
X31580Y31540
X31840Y28380
X29970
X27780Y28270
X27840Y26540
X27873Y24900
X25410Y18460
X25280Y13960
X28290Y15570
X28410Y10670
X31000Y13180
X35665Y12658
X35394Y11386
X35216Y10098
X35135Y8801
Y7501
X36662Y7488
Y8788
X36740Y10086
X36932Y11372
X37224Y12638
X37617Y13878
X36028Y13906
X36482Y15124
X38107Y15082
X38760Y16206
X37038Y16299
X37725Y17403
X38520Y18431
X39240Y19514
X39522Y17259
X33980Y16670
X31110Y18980
X22580Y16420
X18950Y18400
X18820Y13900
X16120Y16360
X16000Y10490
X16120Y5590
X18660Y3150
X18710Y8100
X22460Y10550
X22580Y5650
X25120Y3210
X25170Y8160
X29730Y6300
Y4970
X29760Y3690
X29770Y2420
Y1120
X34659Y1091
Y2391
Y3691
Y4991
Y6291
X37138Y6279
Y4979
Y3679
Y2379
Y1079
X39340Y7410
X32370Y7310
X30850Y7340
X32610Y36310
X26320Y34760
X22320Y34600
X17540Y35140
X17030Y31210
X12470Y35030
X12350Y39930
X15060Y37540
X17700Y40260
X20620Y37990
X25260Y41910
X25660Y44900
X25120Y47180
X21630Y47110
X21230Y49620
X22750Y49630
X23870Y50630
Y51960
X23840Y53240
X23830Y54510
Y55810
X29210Y55830
Y54530
X29200Y53260
X29170Y51980
Y50650
X30290Y49650
X31810Y49640
X32290Y47580
X29330Y47250
X30340Y45480
X34730
X34400Y43050
X37430Y43020
X36880Y39660
X39670Y39540
X33180Y39670
X30320Y37840
X27700Y39780
X27960Y49140
X22436Y44740
X15170Y43340
X15300Y47840
X14000Y49510
X12480Y49520
X11360Y50520
Y51850
X11390Y53130
X11400Y54400
Y55700
X12470Y45800
X39460Y49490
X40980Y49500
X42100Y50500
Y51830
X42070Y53110
X42060Y54380
Y55680
X45200Y53960
X48140Y54150
X48080Y50730
X45180Y50820
X44710Y47080
X41330
X47950Y46940
X48600Y39570
X44880Y39360
X52800
X57820Y39480
X63950Y39130
X72140Y39520
Y38350
X73360
Y39520
X74570
Y38350
X74280Y41870
X71740Y44310
X71620Y49210
X74330Y46820
X74440Y52620
X71740Y55080
X77850
T02
X42960Y18750
X44650
X44718Y24606
X43793
Y25556
X44718
Y26481
Y27381
X43793
Y26481
X42843
Y27381
Y25556
Y24606
T03
X57150Y29180
X78260Y25690
Y23140
X78100Y36100
X32773Y22650
X30273
X27773
X8323Y21850
X5823
Y24390
X8323
Y26930
X5823
Y29470
X8323
Y32010
X5783
X40323Y43250
X42823
X45323
X54050Y43510
X61675
Y51135
X68350Y51290
X78770Y48010
X78100Y38650
X54050Y51135
X82140Y48100
T04
X82473Y5675
X60010Y15870
X5298Y6000
Y51375
X30780Y42380
X82473Y52300
M30
