G04*
G04 #@! TF.GenerationSoftware,Altium Limited,Altium Designer,21.1.1 (26)*
G04*
G04 Layer_Color=32896*
%FSLAX43Y43*%
%MOMM*%
G71*
G04*
G04 #@! TF.SameCoordinates,7D77D7A2-79D2-47A9-8A17-8AFE765D4546*
G04*
G04*
G04 #@! TF.FilePolarity,Positive*
G04*
G01*
G75*
%ADD12C,0.254*%
G54D12*
X58876Y46212D02*
Y45958D01*
X58368Y45450D01*
X57860Y45958D01*
Y46212D01*
X58368Y45450D02*
Y44688D01*
X56337D02*
X57352D01*
X56337Y45704D01*
Y45958D01*
X56591Y46212D01*
X57098D01*
X57352Y45958D01*
X14072Y31580D02*
X12548D01*
Y30818D01*
X12802Y30564D01*
X13310D01*
X13564Y30818D01*
Y31580D01*
Y31072D02*
X14072Y30564D01*
X13818Y30056D02*
X14072Y29802D01*
Y29294D01*
X13818Y29040D01*
X12802D01*
X12548Y29294D01*
Y29802D01*
X12802Y30056D01*
X13056D01*
X13310Y29802D01*
Y29040D01*
X14222Y27770D02*
X12698D01*
Y27008D01*
X12952Y26754D01*
X13460D01*
X13714Y27008D01*
Y27770D01*
Y27262D02*
X14222Y26754D01*
X12952Y26246D02*
X12698Y25992D01*
Y25484D01*
X12952Y25230D01*
X13206D01*
X13460Y25484D01*
X13714Y25230D01*
X13968D01*
X14222Y25484D01*
Y25992D01*
X13968Y26246D01*
X13714D01*
X13460Y25992D01*
X13206Y26246D01*
X12952D01*
X13460Y25992D02*
Y25484D01*
X14182Y24290D02*
X12658D01*
Y23528D01*
X12912Y23274D01*
X13420D01*
X13674Y23528D01*
Y24290D01*
Y23782D02*
X14182Y23274D01*
X12658Y22766D02*
Y21750D01*
X12912D01*
X13928Y22766D01*
X14182D01*
X14202Y20800D02*
X12678D01*
Y20038D01*
X12932Y19784D01*
X13440D01*
X13694Y20038D01*
Y20800D01*
Y20292D02*
X14202Y19784D01*
X12678Y18260D02*
X12932Y18768D01*
X13440Y19276D01*
X13948D01*
X14202Y19022D01*
Y18514D01*
X13948Y18260D01*
X13694D01*
X13440Y18514D01*
Y19276D01*
X50462Y48780D02*
X48938D01*
Y48018D01*
X49192Y47764D01*
X49700D01*
X49954Y48018D01*
Y48780D01*
Y48272D02*
X50462Y47764D01*
X48938Y46240D02*
Y47256D01*
X49700D01*
X49446Y46748D01*
Y46494D01*
X49700Y46240D01*
X50208D01*
X50462Y46494D01*
Y47002D01*
X50208Y47256D01*
M02*
