G04*
G04 #@! TF.GenerationSoftware,Altium Limited,Altium Designer,21.1.1 (26)*
G04*
G04 Layer_Color=8388736*
%FSLAX43Y43*%
%MOMM*%
G71*
G04*
G04 #@! TF.SameCoordinates,7D77D7A2-79D2-47A9-8A17-8AFE765D4546*
G04*
G04*
G04 #@! TF.FilePolarity,Negative*
G04*
G01*
G75*
%ADD33R,1.370X5.942*%
%ADD34R,1.802X5.942*%
%ADD35R,1.030X0.970*%
%ADD36P,1.131X4X180.0*%
%ADD37P,1.131X4X270.0*%
%ADD38R,4.100X4.100*%
%ADD39R,1.120X1.040*%
%ADD40R,1.040X1.120*%
%ADD41R,0.800X0.400*%
%ADD42R,0.400X0.800*%
%ADD43R,2.800X3.800*%
%ADD44R,2.620X2.410*%
%ADD45R,1.250X1.400*%
%ADD46R,1.400X1.600*%
%ADD47R,0.970X1.030*%
G04:AMPARAMS|DCode=48|XSize=0.97mm|YSize=1.03mm|CornerRadius=0mm|HoleSize=0mm|Usage=FLASHONLY|Rotation=315.000|XOffset=0mm|YOffset=0mm|HoleType=Round|Shape=Rectangle|*
%AMROTATEDRECTD48*
4,1,4,-0.707,-0.021,0.021,0.707,0.707,0.021,-0.021,-0.707,-0.707,-0.021,0.0*
%
%ADD48ROTATEDRECTD48*%

G04:AMPARAMS|DCode=49|XSize=0.97mm|YSize=1.03mm|CornerRadius=0mm|HoleSize=0mm|Usage=FLASHONLY|Rotation=45.000|XOffset=0mm|YOffset=0mm|HoleType=Round|Shape=Rectangle|*
%AMROTATEDRECTD49*
4,1,4,0.021,-0.707,-0.707,0.021,-0.021,0.707,0.707,-0.021,0.021,-0.707,0.0*
%
%ADD49ROTATEDRECTD49*%

%ADD50C,4.100*%
%ADD51C,1.600*%
%ADD52C,1.700*%
%ADD53C,0.700*%
%ADD54C,0.900*%
%ADD55C,0.600*%
G54D33*
X52498Y3525D02*
D03*
X35660Y53943D02*
D03*
X17548Y53825D02*
D03*
X35898Y3450D02*
D03*
G54D34*
X56753Y3525D02*
D03*
X48244D02*
D03*
X31406Y53943D02*
D03*
X39915D02*
D03*
X21803Y53825D02*
D03*
X13294D02*
D03*
X40153Y3450D02*
D03*
X31644D02*
D03*
G54D35*
X65850Y44920D02*
D03*
Y43360D02*
D03*
X39973Y31505D02*
D03*
Y29945D02*
D03*
X41830Y31620D02*
D03*
Y30060D02*
D03*
X42773Y34680D02*
D03*
Y33120D02*
D03*
X73380Y22320D02*
D03*
Y20760D02*
D03*
X73365Y33910D02*
D03*
Y35470D02*
D03*
X55240Y33210D02*
D03*
Y34770D02*
D03*
X44940Y34680D02*
D03*
Y33120D02*
D03*
X47820Y29870D02*
D03*
Y31430D02*
D03*
X51020Y31310D02*
D03*
Y29750D02*
D03*
X43820Y16270D02*
D03*
Y17830D02*
D03*
G54D36*
X43040Y19940D02*
D03*
X42120Y20860D02*
D03*
G54D37*
X44620Y19900D02*
D03*
X45540Y20820D02*
D03*
G54D38*
X84500Y24730D02*
D03*
Y37440D02*
D03*
Y13340D02*
D03*
G54D39*
X47873Y34840D02*
D03*
Y33260D02*
D03*
G54D40*
X35650Y47640D02*
D03*
X34070D02*
D03*
X25340Y30650D02*
D03*
X26920D02*
D03*
X54140Y29780D02*
D03*
X52560D02*
D03*
G54D41*
X41868Y27731D02*
D03*
Y27231D02*
D03*
Y26731D02*
D03*
Y26231D02*
D03*
Y25731D02*
D03*
Y25231D02*
D03*
Y24731D02*
D03*
Y24231D02*
D03*
X45718D02*
D03*
Y24731D02*
D03*
Y25231D02*
D03*
Y25731D02*
D03*
Y26231D02*
D03*
Y26731D02*
D03*
Y27231D02*
D03*
Y27731D02*
D03*
G54D42*
X42543Y23556D02*
D03*
X43043D02*
D03*
X43543D02*
D03*
X44043D02*
D03*
X44543D02*
D03*
X45043D02*
D03*
Y28406D02*
D03*
X44543D02*
D03*
X44043D02*
D03*
X43543D02*
D03*
X43043D02*
D03*
X42543D02*
D03*
G54D43*
X43793Y25981D02*
D03*
G54D44*
X68860Y30930D02*
D03*
Y37130D02*
D03*
X68930Y18050D02*
D03*
Y24250D02*
D03*
G54D45*
X20535Y30700D02*
D03*
X22785D02*
D03*
G54D46*
X49550Y26340D02*
D03*
X47650D02*
D03*
G54D47*
X51120Y36440D02*
D03*
X49560D02*
D03*
X51090Y34850D02*
D03*
X49530D02*
D03*
X51100Y28100D02*
D03*
X49540D02*
D03*
X38633Y23725D02*
D03*
X37073D02*
D03*
X48680Y23560D02*
D03*
X50240D02*
D03*
X48690Y22060D02*
D03*
X50250D02*
D03*
G54D48*
X37898Y28275D02*
D03*
X36795Y29378D02*
D03*
X46647Y19701D02*
D03*
X47750Y18598D02*
D03*
G54D49*
X41142Y19902D02*
D03*
X40038Y18798D02*
D03*
G54D50*
X30780Y42380D02*
D03*
X60010Y15870D02*
D03*
X82473Y5675D02*
D03*
X5298Y6000D02*
D03*
X82473Y52300D02*
D03*
X5298Y51375D02*
D03*
G54D51*
X78260Y23140D02*
D03*
X68350Y51290D02*
D03*
X57150Y29180D02*
D03*
X82140Y48100D02*
D03*
X78770Y48010D02*
D03*
X78100Y36100D02*
D03*
Y38650D02*
D03*
X78260Y25690D02*
D03*
G54D52*
X61675Y43510D02*
D03*
X54050D02*
D03*
Y51135D02*
D03*
X61675D02*
D03*
X27773Y22650D02*
D03*
X30273D02*
D03*
X32773D02*
D03*
X45323Y43250D02*
D03*
X42823D02*
D03*
X40323D02*
D03*
X8323Y21850D02*
D03*
X5823D02*
D03*
Y24390D02*
D03*
X8323D02*
D03*
Y26930D02*
D03*
X5823D02*
D03*
Y29470D02*
D03*
X8323D02*
D03*
Y32010D02*
D03*
X5783D02*
D03*
G54D53*
X57820Y39480D02*
D03*
X52800Y39360D02*
D03*
X48600Y39570D02*
D03*
X48140Y54150D02*
D03*
X48080Y50730D02*
D03*
X44710Y47080D02*
D03*
X39710Y36590D02*
D03*
X36670Y36640D02*
D03*
X34400Y43050D02*
D03*
X30320Y37840D02*
D03*
X27700Y39780D02*
D03*
X25260Y41910D02*
D03*
X30340Y45480D02*
D03*
X25660Y44900D02*
D03*
X32610Y36310D02*
D03*
X36880Y39660D02*
D03*
X33180Y39670D02*
D03*
X31580Y31540D02*
D03*
X26320Y34760D02*
D03*
X22320Y34600D02*
D03*
X20620Y37990D02*
D03*
X17540Y35140D02*
D03*
X17700Y40260D02*
D03*
X46583Y18303D02*
D03*
X47517Y17399D02*
D03*
X48539Y16595D02*
D03*
X49309Y15548D02*
D03*
X49991Y14441D02*
D03*
X50569Y13276D02*
D03*
X51013Y12055D02*
D03*
X51356Y10801D02*
D03*
X51594Y9523D02*
D03*
X51726Y8229D02*
D03*
X51539Y6943D02*
D03*
X51258Y5673D02*
D03*
Y4373D02*
D03*
Y3073D02*
D03*
Y1773D02*
D03*
X53738Y1760D02*
D03*
Y3060D02*
D03*
Y4360D02*
D03*
Y5660D02*
D03*
X53473Y6932D02*
D03*
X53245Y8212D02*
D03*
X53126Y9507D02*
D03*
X52910Y10788D02*
D03*
X52598Y12051D02*
D03*
X52189Y13285D02*
D03*
X51691Y14485D02*
D03*
X51059Y15621D02*
D03*
X50349Y16710D02*
D03*
X49560Y17744D02*
D03*
X48927Y18879D02*
D03*
X48003Y19793D02*
D03*
X39240Y19514D02*
D03*
X38520Y18431D02*
D03*
X37725Y17403D02*
D03*
X37038Y16299D02*
D03*
X36482Y15124D02*
D03*
X36028Y13906D02*
D03*
X35665Y12658D02*
D03*
X35394Y11386D02*
D03*
X35216Y10098D02*
D03*
X35135Y8801D02*
D03*
Y7501D02*
D03*
X34659Y6291D02*
D03*
Y4991D02*
D03*
Y3691D02*
D03*
Y2391D02*
D03*
Y1091D02*
D03*
X37138Y1079D02*
D03*
Y2379D02*
D03*
Y3679D02*
D03*
Y4979D02*
D03*
Y6279D02*
D03*
X36662Y7488D02*
D03*
Y8788D02*
D03*
X36740Y10086D02*
D03*
X36932Y11372D02*
D03*
X37224Y12638D02*
D03*
X37617Y13878D02*
D03*
X38107Y15082D02*
D03*
X38760Y16206D02*
D03*
X39522Y17259D02*
D03*
X40653Y17900D02*
D03*
X47260Y20910D02*
D03*
X39970Y20710D02*
D03*
X87310Y18980D02*
D03*
X83890Y19920D02*
D03*
X87260Y29470D02*
D03*
X80870Y32570D02*
D03*
X85080D02*
D03*
X40820Y10940D02*
D03*
X45680Y15240D02*
D03*
X47110Y11300D02*
D03*
X43940Y8230D02*
D03*
X41170Y21650D02*
D03*
X46410Y21860D02*
D03*
X44880Y39360D02*
D03*
X47430Y36240D02*
D03*
X45200Y53960D02*
D03*
X45180Y50820D02*
D03*
X41330Y47080D02*
D03*
X55220Y36060D02*
D03*
X33980Y16670D02*
D03*
X31110Y18980D02*
D03*
X28290Y15570D02*
D03*
X31000Y13180D02*
D03*
X28410Y10670D02*
D03*
X77850Y55080D02*
D03*
X71740D02*
D03*
X74440Y52620D02*
D03*
X71620Y49210D02*
D03*
X74330Y46820D02*
D03*
X71740Y44310D02*
D03*
X74280Y41870D02*
D03*
X21630Y47110D02*
D03*
X29330Y47250D02*
D03*
X27960Y49140D02*
D03*
X25120Y47180D02*
D03*
X22436Y44740D02*
D03*
X34730Y45480D02*
D03*
X37430Y43020D02*
D03*
X39670Y39540D02*
D03*
X35190Y34110D02*
D03*
X37270Y32270D02*
D03*
X61120Y37090D02*
D03*
X63950Y39130D02*
D03*
X63820Y34630D02*
D03*
X61000Y31220D02*
D03*
X63710Y28830D02*
D03*
X61120Y26320D02*
D03*
X63660Y23880D02*
D03*
X55690Y22910D02*
D03*
X58520Y24950D02*
D03*
X58390Y20450D02*
D03*
X55570Y17040D02*
D03*
X55690Y12140D02*
D03*
X58230Y9700D02*
D03*
X76450Y15550D02*
D03*
X79280Y17590D02*
D03*
X79150Y13090D02*
D03*
X76330Y9680D02*
D03*
X79040Y7290D02*
D03*
X76450Y4780D02*
D03*
X78990Y2340D02*
D03*
X69390Y15330D02*
D03*
X72220Y17370D02*
D03*
X72090Y12870D02*
D03*
X69270Y9460D02*
D03*
X71980Y7070D02*
D03*
X69390Y4560D02*
D03*
X71930Y2120D02*
D03*
X64440Y17980D02*
D03*
X64310Y13480D02*
D03*
X61490Y10070D02*
D03*
X64200Y7680D02*
D03*
X61610Y5170D02*
D03*
X64150Y2730D02*
D03*
X22580Y5650D02*
D03*
X25170Y8160D02*
D03*
X25410Y18460D02*
D03*
X22460Y10550D02*
D03*
X22580Y16420D02*
D03*
X25280Y13960D02*
D03*
X25120Y3210D02*
D03*
X12470Y45800D02*
D03*
X15300Y47840D02*
D03*
X15170Y43340D02*
D03*
X12350Y39930D02*
D03*
X15060Y37540D02*
D03*
X12470Y35030D02*
D03*
X18660Y3150D02*
D03*
X16120Y5590D02*
D03*
X18710Y8100D02*
D03*
X16000Y10490D02*
D03*
X18820Y13900D02*
D03*
X18950Y18400D02*
D03*
X16120Y16360D02*
D03*
X14000Y49510D02*
D03*
X12480Y49520D02*
D03*
X11360Y50520D02*
D03*
Y51850D02*
D03*
X11390Y53130D02*
D03*
X11400Y54400D02*
D03*
Y55700D02*
D03*
X21230Y49620D02*
D03*
X22750Y49630D02*
D03*
X23870Y50630D02*
D03*
Y51960D02*
D03*
X23840Y53240D02*
D03*
X23830Y54510D02*
D03*
Y55810D02*
D03*
X39460Y49490D02*
D03*
X40980Y49500D02*
D03*
X42100Y50500D02*
D03*
Y51830D02*
D03*
X42070Y53110D02*
D03*
X42060Y54380D02*
D03*
Y55680D02*
D03*
X31810Y49640D02*
D03*
X30290Y49650D02*
D03*
X29170Y50650D02*
D03*
Y51980D02*
D03*
X29200Y53260D02*
D03*
X29210Y54530D02*
D03*
Y55830D02*
D03*
X56060Y7500D02*
D03*
X57580Y7490D02*
D03*
X58700Y6490D02*
D03*
Y5160D02*
D03*
X58670Y3880D02*
D03*
X58660Y2610D02*
D03*
Y1310D02*
D03*
X48880Y7490D02*
D03*
X47360Y7480D02*
D03*
X46240Y6480D02*
D03*
Y5150D02*
D03*
X46270Y3870D02*
D03*
X46280Y2600D02*
D03*
Y1300D02*
D03*
X32370Y7310D02*
D03*
X30850Y7340D02*
D03*
X29730Y6300D02*
D03*
Y4970D02*
D03*
X29760Y3690D02*
D03*
X29770Y2420D02*
D03*
Y1120D02*
D03*
X41940Y1220D02*
D03*
Y2520D02*
D03*
X41950Y3790D02*
D03*
X41980Y5070D02*
D03*
Y6400D02*
D03*
X40860Y7400D02*
D03*
X39340Y7410D02*
D03*
X17030Y31210D02*
D03*
X31840Y28380D02*
D03*
X29970D02*
D03*
X47950Y46940D02*
D03*
X32290Y47580D02*
D03*
X39600Y32980D02*
D03*
X41250Y33020D02*
D03*
X42260Y15210D02*
D03*
X52520Y31300D02*
D03*
X52440Y34680D02*
D03*
X52570Y36430D02*
D03*
X44910Y36180D02*
D03*
X71950Y24620D02*
D03*
X73080D02*
D03*
X74240D02*
D03*
X71950Y25720D02*
D03*
X73080D02*
D03*
X74240D02*
D03*
Y26720D02*
D03*
X73080D02*
D03*
X71950D02*
D03*
X74570Y37160D02*
D03*
X73360D02*
D03*
X72140D02*
D03*
X74570Y38350D02*
D03*
X73360D02*
D03*
X72140D02*
D03*
X74570Y39520D02*
D03*
X73360D02*
D03*
X72140D02*
D03*
X27780Y28270D02*
D03*
X27840Y26540D02*
D03*
X47580Y28100D02*
D03*
X52050Y20240D02*
D03*
X52040Y23390D02*
D03*
X51720Y26090D02*
D03*
X52010Y21890D02*
D03*
X54080Y31273D02*
D03*
X44718Y26481D02*
D03*
Y27381D02*
D03*
Y25556D02*
D03*
Y24606D02*
D03*
X43793Y26481D02*
D03*
Y27381D02*
D03*
Y25556D02*
D03*
Y24606D02*
D03*
X42843Y26481D02*
D03*
Y27381D02*
D03*
Y25556D02*
D03*
Y24606D02*
D03*
X27873Y24900D02*
D03*
X44290Y31500D02*
D03*
X40248Y23725D02*
D03*
X52770Y27960D02*
D03*
X49410Y31180D02*
D03*
G54D54*
X44650Y18750D02*
D03*
X42960D02*
D03*
G54D55*
X39898Y28350D02*
D03*
M02*
