G04*
G04 #@! TF.GenerationSoftware,Altium Limited,Altium Designer,21.1.1 (26)*
G04*
G04 Layer_Color=65535*
%FSLAX43Y43*%
%MOMM*%
G71*
G04*
G04 #@! TF.SameCoordinates,7D77D7A2-79D2-47A9-8A17-8AFE765D4546*
G04*
G04*
G04 #@! TF.FilePolarity,Positive*
G04*
G01*
G75*
%ADD10C,0.200*%
%ADD11C,0.250*%
%ADD12C,0.254*%
%ADD13C,0.050*%
%ADD14C,0.127*%
%ADD15C,0.180*%
G54D10*
X50548Y7325D02*
G03*
X50548Y7325I-100J0D01*
G01*
X37810Y50143D02*
G03*
X37810Y50143I-100J0D01*
G01*
X19698Y50025D02*
G03*
X19698Y50025I-100J0D01*
G01*
X33948Y7250D02*
G03*
X33948Y7250I-100J0D01*
G01*
X68960Y39110D02*
G03*
X68960Y39110I-100J0D01*
G01*
X69030Y26230D02*
G03*
X69030Y26230I-100J0D01*
G01*
X23510Y29525D02*
G03*
X23510Y29525I-100J0D01*
G01*
X41593Y28281D02*
Y28681D01*
X41993D01*
X45593D02*
X45993D01*
Y28281D02*
Y28681D01*
Y23281D02*
Y23681D01*
X45593Y23281D02*
X45993D01*
X41593D02*
Y23681D01*
Y23281D02*
X41993D01*
G54D11*
X41068Y28531D02*
G03*
X41068Y28531I-125J0D01*
G01*
G54D12*
X5347Y34250D02*
G03*
X5347Y34250I-224J0D01*
G01*
X64275Y41560D02*
Y53735D01*
X63625Y40910D02*
X64275Y41560D01*
X51450Y41460D02*
X52000Y40910D01*
X63625D01*
X52025Y53735D02*
X64275D01*
X51450Y53160D02*
X52025Y53735D01*
X51450Y41460D02*
Y53160D01*
X75875Y41050D02*
X81625D01*
Y33650D02*
Y41050D01*
X75875Y33650D02*
X81625D01*
X75875D02*
Y41050D01*
X76035Y20690D02*
Y28090D01*
Y20690D02*
X81785D01*
Y28090D01*
X76035D02*
X81785D01*
X34023Y22650D02*
Y23900D01*
X26523D02*
X34023D01*
X26523Y21400D02*
Y23900D01*
Y21400D02*
X34023D01*
Y22650D01*
X46573Y42000D02*
Y43250D01*
X39073Y42000D02*
X46573D01*
X39073D02*
Y44500D01*
X46573D01*
Y43250D02*
Y44500D01*
X2473Y37125D02*
X11773D01*
X2473Y16650D02*
Y37125D01*
X11773Y16650D02*
Y37125D01*
X8623Y16650D02*
X11773D01*
X2473D02*
X8623D01*
X1534Y44493D02*
Y45160D01*
X1867Y45493D01*
X2200Y45160D01*
Y44493D01*
Y44993D01*
X1534D01*
X2534Y44493D02*
Y45493D01*
X3200Y44493D01*
Y45493D01*
X3533D02*
X4200D01*
X3867D01*
Y44493D01*
X5199Y45493D02*
X4533D01*
Y44493D01*
X5199D01*
X4533Y44993D02*
X4866D01*
X5533Y44493D02*
Y45493D01*
X6199Y44493D01*
Y45493D01*
X6532Y44493D02*
Y45493D01*
X7199Y44493D01*
Y45493D01*
X7532Y44493D02*
Y45160D01*
X7865Y45493D01*
X8199Y45160D01*
Y44493D01*
Y44993D01*
X7532D01*
X1534Y42684D02*
Y43684D01*
X1867Y43350D01*
X2200Y43684D01*
Y42684D01*
X3200Y43684D02*
X2534D01*
Y42684D01*
X3200D01*
X2534Y43184D02*
X2867D01*
X3533Y42684D02*
Y43350D01*
X3867Y43684D01*
X4200Y43350D01*
Y42684D01*
Y43184D01*
X3533D01*
X5199Y43517D02*
X5033Y43684D01*
X4700D01*
X4533Y43517D01*
Y43350D01*
X4700Y43184D01*
X5033D01*
X5199Y43017D01*
Y42851D01*
X5033Y42684D01*
X4700D01*
X4533Y42851D01*
X5533Y42684D02*
Y42851D01*
X5699D01*
Y42684D01*
X5533D01*
X8032Y43517D02*
X7865Y43684D01*
X7532D01*
X7365Y43517D01*
Y43350D01*
X7532Y43184D01*
X7865D01*
X8032Y43017D01*
Y42851D01*
X7865Y42684D01*
X7532D01*
X7365Y42851D01*
X8365Y43684D02*
Y43517D01*
X8698Y43184D01*
X9032Y43517D01*
Y43684D01*
X8698Y43184D02*
Y42684D01*
X10031Y43517D02*
X9865Y43684D01*
X9531D01*
X9365Y43517D01*
Y43350D01*
X9531Y43184D01*
X9865D01*
X10031Y43017D01*
Y42851D01*
X9865Y42684D01*
X9531D01*
X9365Y42851D01*
X10364Y42684D02*
Y42851D01*
X10531D01*
Y42684D01*
X10364D01*
X1594Y40944D02*
Y41944D01*
X2094D01*
X2260Y41777D01*
Y41444D01*
X2094Y41277D01*
X1594D01*
X2594Y41944D02*
Y40944D01*
X3260D01*
X3593Y41944D02*
Y40944D01*
X4260D01*
X5593Y41944D02*
Y40944D01*
X6093D01*
X6259Y41111D01*
Y41277D01*
X6093Y41444D01*
X5593D01*
X6093D01*
X6259Y41610D01*
Y41777D01*
X6093Y41944D01*
X5593D01*
X7092D02*
X6759D01*
X6592Y41777D01*
Y41111D01*
X6759Y40944D01*
X7092D01*
X7259Y41111D01*
Y41777D01*
X7092Y41944D01*
X7592Y40944D02*
Y41610D01*
X7925Y41944D01*
X8259Y41610D01*
Y40944D01*
Y41444D01*
X7592D01*
X8592Y40944D02*
Y41944D01*
X9092D01*
X9258Y41777D01*
Y41444D01*
X9092Y41277D01*
X8592D01*
X8925D02*
X9258Y40944D01*
X9591Y41944D02*
Y40944D01*
X10091D01*
X10258Y41111D01*
Y41777D01*
X10091Y41944D01*
X9591D01*
X2104Y14734D02*
Y14067D01*
X2437Y13734D01*
X2770Y14067D01*
Y14734D01*
X3770Y13734D02*
X3104D01*
X3770Y14400D01*
Y14567D01*
X3604Y14734D01*
X3270D01*
X3104Y14567D01*
X4103Y13734D02*
Y13901D01*
X4270D01*
Y13734D01*
X4103D01*
X5603D02*
X4936D01*
X5603Y14400D01*
Y14567D01*
X5436Y14734D01*
X5103D01*
X4936Y14567D01*
X7935D02*
X8102Y14734D01*
X8435D01*
X8602Y14567D01*
Y13901D01*
X8435Y13734D01*
X8102D01*
X7935Y13901D01*
Y14567D01*
X9602Y14734D02*
X8935D01*
Y14234D01*
X9268Y14400D01*
X9435D01*
X9602Y14234D01*
Y13901D01*
X9435Y13734D01*
X9102D01*
X8935Y13901D01*
X9935Y13734D02*
X10601Y14400D01*
X11601Y13734D02*
X10934D01*
X11601Y14400D01*
Y14567D01*
X11434Y14734D01*
X11101D01*
X10934Y14567D01*
X11934D02*
X12101Y14734D01*
X12434D01*
X12601Y14567D01*
Y13901D01*
X12434Y13734D01*
X12101D01*
X11934Y13901D01*
Y14567D01*
X13600Y13734D02*
X12934D01*
X13600Y14400D01*
Y14567D01*
X13434Y14734D01*
X13100D01*
X12934Y14567D01*
X13934Y13734D02*
X14267D01*
X14100D01*
Y14734D01*
X13934Y14567D01*
X2750Y9894D02*
X2084D01*
Y9394D01*
X2417D01*
X2084D01*
Y8894D01*
X3084Y9894D02*
Y9061D01*
X3250Y8894D01*
X3584D01*
X3750Y9061D01*
Y9894D01*
X4083Y8894D02*
Y9894D01*
X4583D01*
X4750Y9727D01*
Y9394D01*
X4583Y9227D01*
X4083D01*
X4417D02*
X4750Y8894D01*
X5083Y9894D02*
Y8894D01*
Y9227D01*
X5749Y9894D01*
X5250Y9394D01*
X5749Y8894D01*
X6083D02*
Y9560D01*
X6416Y9894D01*
X6749Y9560D01*
Y8894D01*
Y9394D01*
X6083D01*
X7082Y8894D02*
Y9894D01*
X7749Y8894D01*
Y9894D01*
X9082Y8894D02*
Y9560D01*
X9415Y9894D01*
X9748Y9560D01*
Y8894D01*
Y9394D01*
X9082D01*
X10748Y9727D02*
X10581Y9894D01*
X10248D01*
X10081Y9727D01*
Y9560D01*
X10248Y9394D01*
X10581D01*
X10748Y9227D01*
Y9061D01*
X10581Y8894D01*
X10248D01*
X10081Y9061D01*
X11081Y9894D02*
Y8894D01*
X11748D01*
X12081D02*
Y9560D01*
X12414Y9894D01*
X12747Y9560D01*
Y8894D01*
Y9394D01*
X12081D01*
X13080Y8894D02*
Y9894D01*
X13747Y8894D01*
Y9894D01*
X15080D02*
Y8894D01*
Y9394D01*
X15746D01*
Y9894D01*
Y8894D01*
X16079D02*
Y9560D01*
X16413Y9894D01*
X16746Y9560D01*
Y8894D01*
Y9394D01*
X16079D01*
X17079Y9894D02*
X17746D01*
X17412D01*
Y8894D01*
X18079Y9894D02*
X18412D01*
X18245D01*
Y8894D01*
X18079D01*
X18412D01*
X18912Y9894D02*
Y8894D01*
Y9227D01*
X19578Y9894D01*
X19079Y9394D01*
X19578Y8894D01*
X2084Y13214D02*
Y12214D01*
X2584D01*
X2750Y12381D01*
Y12547D01*
X2584Y12714D01*
X2084D01*
X2584D01*
X2750Y12880D01*
Y13047D01*
X2584Y13214D01*
X2084D01*
X3084D02*
Y13047D01*
X3417Y12714D01*
X3750Y13047D01*
Y13214D01*
X3417Y12714D02*
Y12214D01*
X2730Y11604D02*
X2064D01*
Y10604D01*
X2730D01*
X2064Y11104D02*
X2397D01*
X3730Y11604D02*
X3064D01*
Y11104D01*
X3397D01*
X3064D01*
Y10604D01*
X4730Y11604D02*
X4063D01*
Y10604D01*
X4730D01*
X4063Y11104D02*
X4397D01*
X6063Y11604D02*
Y10604D01*
Y10937D01*
X6729Y11604D01*
X6229Y11104D01*
X6729Y10604D01*
X7062Y11604D02*
X7396D01*
X7229D01*
Y10604D01*
X7062D01*
X7396D01*
X7895D02*
Y11604D01*
X8395D01*
X8562Y11437D01*
Y11104D01*
X8395Y10937D01*
X7895D01*
X8229D02*
X8562Y10604D01*
X8895D02*
Y11270D01*
X9228Y11604D01*
X9562Y11270D01*
Y10604D01*
Y11104D01*
X8895D01*
X9895Y11604D02*
X10561D01*
Y11437D01*
X9895Y10771D01*
Y10604D01*
X10561D01*
X82504Y42394D02*
X82758Y42648D01*
X83266D01*
X83520Y42394D01*
Y42140D01*
X83266Y41886D01*
X83012D01*
X83266D01*
X83520Y41632D01*
Y41378D01*
X83266Y41124D01*
X82758D01*
X82504Y41378D01*
X84028Y41124D02*
Y41378D01*
X84281D01*
Y41124D01*
X84028D01*
X85297Y42394D02*
X85551Y42648D01*
X86059D01*
X86313Y42394D01*
Y42140D01*
X86059Y41886D01*
X85805D01*
X86059D01*
X86313Y41632D01*
Y41378D01*
X86059Y41124D01*
X85551D01*
X85297Y41378D01*
X86821Y42648D02*
Y41632D01*
X87328Y41124D01*
X87836Y41632D01*
Y42648D01*
X83390Y17534D02*
X83136Y17788D01*
X82628D01*
X82374Y17534D01*
Y16518D01*
X82628Y16264D01*
X83136D01*
X83390Y16518D01*
Y17026D01*
X82882D01*
X83898Y16264D02*
Y17788D01*
X84913Y16264D01*
Y17788D01*
X85421D02*
Y16264D01*
X86183D01*
X86437Y16518D01*
Y17534D01*
X86183Y17788D01*
X85421D01*
X83650Y29758D02*
X82634D01*
Y28996D01*
X83142Y29250D01*
X83396D01*
X83650Y28996D01*
Y28488D01*
X83396Y28234D01*
X82888D01*
X82634Y28488D01*
X84158Y29758D02*
Y28742D01*
X84665Y28234D01*
X85173Y28742D01*
Y29758D01*
G54D13*
X67100Y50028D02*
Y52502D01*
X69575D01*
X67100Y50028D02*
X69575D01*
Y52502D01*
X58375Y27917D02*
Y30392D01*
X55900Y27917D02*
X58375D01*
X55900Y30392D02*
X58375D01*
X55900Y27917D02*
Y30392D01*
X83365Y46838D02*
Y49312D01*
X80890Y46838D02*
X83365D01*
X80890Y49312D02*
X83365D01*
X80890Y46838D02*
Y49312D01*
X79995Y46748D02*
Y49222D01*
X77520Y46748D02*
X79995D01*
X77520Y49222D02*
X79995D01*
X77520Y46748D02*
Y49222D01*
G54D14*
X66610Y30280D02*
Y37780D01*
X71110Y30280D02*
Y37780D01*
X66680Y17400D02*
Y24900D01*
X71180Y17400D02*
Y24900D01*
G54D15*
X27120Y43220D02*
Y44120D01*
X27420Y43820D01*
X27720Y44120D01*
Y43220D01*
X28620Y44120D02*
X28320Y43970D01*
X28020Y43670D01*
Y43370D01*
X28170Y43220D01*
X28470D01*
X28620Y43370D01*
Y43520D01*
X28470Y43670D01*
X28020D01*
X60070Y18790D02*
Y19690D01*
X60370Y19390D01*
X60670Y19690D01*
Y18790D01*
X61570Y19690D02*
X60970D01*
Y19240D01*
X61270Y19390D01*
X61420D01*
X61570Y19240D01*
Y18940D01*
X61420Y18790D01*
X61120D01*
X60970Y18940D01*
X68660Y44980D02*
X68510Y45130D01*
X68210D01*
X68060Y44980D01*
Y44380D01*
X68210Y44230D01*
X68510D01*
X68660Y44380D01*
X69560Y44230D02*
X68960D01*
X69560Y44830D01*
Y44980D01*
X69410Y45130D01*
X69110D01*
X68960Y44980D01*
X69860D02*
X70010Y45130D01*
X70310D01*
X70460Y44980D01*
Y44830D01*
X70310Y44680D01*
X70160D01*
X70310D01*
X70460Y44530D01*
Y44380D01*
X70310Y44230D01*
X70010D01*
X69860Y44380D01*
X82660Y46200D02*
X82360D01*
X82510D01*
Y45450D01*
X82360Y45300D01*
X82210D01*
X82060Y45450D01*
X82960Y45300D02*
Y46200D01*
X83410D01*
X83560Y46050D01*
Y45750D01*
X83410Y45600D01*
X82960D01*
X84460Y46200D02*
X84160Y46050D01*
X83860Y45750D01*
Y45450D01*
X84010Y45300D01*
X84310D01*
X84460Y45450D01*
Y45600D01*
X84310Y45750D01*
X83860D01*
X78300Y46130D02*
X78000D01*
X78150D01*
Y45380D01*
X78000Y45230D01*
X77850D01*
X77700Y45380D01*
X78600Y45230D02*
Y46130D01*
X79050D01*
X79200Y45980D01*
Y45680D01*
X79050Y45530D01*
X78600D01*
X80100Y46130D02*
X79500D01*
Y45680D01*
X79800Y45830D01*
X79950D01*
X80100Y45680D01*
Y45380D01*
X79950Y45230D01*
X79650D01*
X79500Y45380D01*
X67858Y54148D02*
X67558D01*
X67708D01*
Y53398D01*
X67558Y53248D01*
X67408D01*
X67258Y53398D01*
X68158Y53248D02*
Y54148D01*
X68607D01*
X68757Y53998D01*
Y53698D01*
X68607Y53548D01*
X68158D01*
X69507Y53248D02*
Y54148D01*
X69057Y53698D01*
X69657D01*
X60440Y29390D02*
X60140D01*
X60290D01*
Y28640D01*
X60140Y28490D01*
X59990D01*
X59840Y28640D01*
X60740Y28490D02*
Y29390D01*
X61190D01*
X61340Y29240D01*
Y28940D01*
X61190Y28790D01*
X60740D01*
X61640Y29240D02*
X61790Y29390D01*
X62090D01*
X62240Y29240D01*
Y29090D01*
X62090Y28940D01*
X61940D01*
X62090D01*
X62240Y28790D01*
Y28640D01*
X62090Y28490D01*
X61790D01*
X61640Y28640D01*
X85120Y4700D02*
Y5600D01*
X85420Y5300D01*
X85720Y5600D01*
Y4700D01*
X86470D02*
Y5600D01*
X86020Y5150D01*
X86620D01*
X85100Y52570D02*
Y53470D01*
X85400Y53170D01*
X85700Y53470D01*
Y52570D01*
X86000Y53320D02*
X86150Y53470D01*
X86450D01*
X86600Y53320D01*
Y53170D01*
X86450Y53020D01*
X86300D01*
X86450D01*
X86600Y52870D01*
Y52720D01*
X86450Y52570D01*
X86150D01*
X86000Y52720D01*
X8380Y4900D02*
Y5800D01*
X8680Y5500D01*
X8980Y5800D01*
Y4900D01*
X9880D02*
X9280D01*
X9880Y5500D01*
Y5650D01*
X9730Y5800D01*
X9430D01*
X9280Y5650D01*
X5090Y54100D02*
Y55000D01*
X5390Y54700D01*
X5690Y55000D01*
Y54100D01*
X5990D02*
X6290D01*
X6140D01*
Y55000D01*
X5990Y54850D01*
X39620Y26880D02*
Y26130D01*
X39770Y25980D01*
X40070D01*
X40220Y26130D01*
Y26880D01*
X40520Y25980D02*
X40820D01*
X40670D01*
Y26880D01*
X40520Y26730D01*
X51510Y55443D02*
Y55293D01*
X51810Y54993D01*
X52110Y55293D01*
Y55443D01*
X51810Y54993D02*
Y54543D01*
X52410D02*
X52709D01*
X52560D01*
Y55443D01*
X52410Y55293D01*
X47310Y9390D02*
X47160Y9540D01*
X46860D01*
X46711Y9390D01*
Y9240D01*
X46860Y9090D01*
X47160D01*
X47310Y8940D01*
Y8790D01*
X47160Y8640D01*
X46860D01*
X46711Y8790D01*
X47610Y8640D02*
Y9540D01*
X47910Y9240D01*
X48210Y9540D01*
Y8640D01*
X48510D02*
Y9240D01*
X48810Y9540D01*
X49110Y9240D01*
Y8640D01*
Y9090D01*
X48510D01*
X50009Y9540D02*
X49410D01*
Y9090D01*
X49710Y9240D01*
X49860D01*
X50009Y9090D01*
Y8790D01*
X49860Y8640D01*
X49560D01*
X49410Y8790D01*
X30890Y9370D02*
X30740Y9520D01*
X30440D01*
X30291Y9370D01*
Y9220D01*
X30440Y9070D01*
X30740D01*
X30890Y8920D01*
Y8770D01*
X30740Y8620D01*
X30440D01*
X30291Y8770D01*
X31190Y8620D02*
Y9520D01*
X31490Y9220D01*
X31790Y9520D01*
Y8620D01*
X32090D02*
Y9220D01*
X32390Y9520D01*
X32690Y9220D01*
Y8620D01*
Y9070D01*
X32090D01*
X33440Y8620D02*
Y9520D01*
X32990Y9070D01*
X33589D01*
X11930Y48200D02*
X11780Y48350D01*
X11480D01*
X11331Y48200D01*
Y48050D01*
X11480Y47900D01*
X11780D01*
X11930Y47750D01*
Y47600D01*
X11780Y47450D01*
X11480D01*
X11331Y47600D01*
X12230Y47450D02*
Y48350D01*
X12530Y48050D01*
X12830Y48350D01*
Y47450D01*
X13130D02*
Y48050D01*
X13430Y48350D01*
X13730Y48050D01*
Y47450D01*
Y47900D01*
X13130D01*
X14030Y48200D02*
X14180Y48350D01*
X14480D01*
X14629Y48200D01*
Y48050D01*
X14480Y47900D01*
X14330D01*
X14480D01*
X14629Y47750D01*
Y47600D01*
X14480Y47450D01*
X14180D01*
X14030Y47600D01*
X43500Y56190D02*
X43350Y56340D01*
X43050D01*
X42900Y56190D01*
Y56040D01*
X43050Y55890D01*
X43350D01*
X43500Y55740D01*
Y55590D01*
X43350Y55440D01*
X43050D01*
X42900Y55590D01*
X43800Y55440D02*
Y56340D01*
X44100Y56040D01*
X44400Y56340D01*
Y55440D01*
X44700D02*
Y56040D01*
X45000Y56340D01*
X45300Y56040D01*
Y55440D01*
Y55890D01*
X44700D01*
X45600Y55440D02*
X45900D01*
X45750D01*
Y56340D01*
X45600Y56190D01*
X55480Y31030D02*
Y31930D01*
X55930D01*
X56080Y31780D01*
Y31480D01*
X55930Y31330D01*
X55480D01*
X55780D02*
X56080Y31030D01*
X56830D02*
Y31930D01*
X56380Y31480D01*
X56980D01*
X25230Y31830D02*
Y32730D01*
X25680D01*
X25830Y32580D01*
Y32280D01*
X25680Y32130D01*
X25230D01*
X25530D02*
X25830Y31830D01*
X26130Y32580D02*
X26280Y32730D01*
X26580D01*
X26730Y32580D01*
Y32430D01*
X26580Y32280D01*
X26430D01*
X26580D01*
X26730Y32130D01*
Y31980D01*
X26580Y31830D01*
X26280D01*
X26130Y31980D01*
X33090Y45520D02*
Y46420D01*
X33540D01*
X33690Y46270D01*
Y45970D01*
X33540Y45820D01*
X33090D01*
X33390D02*
X33690Y45520D01*
X33990D02*
X34290D01*
X34140D01*
Y46420D01*
X33990Y46270D01*
X46900Y33770D02*
X46000D01*
Y34220D01*
X46150Y34370D01*
X46450D01*
X46600Y34220D01*
Y33770D01*
Y34070D02*
X46900Y34370D01*
X46150Y34670D02*
X46000Y34820D01*
Y35120D01*
X46150Y35270D01*
X46750D01*
X46900Y35120D01*
Y34820D01*
X46750Y34670D01*
X46150D01*
X44600Y22730D02*
Y21830D01*
X45200D01*
X46100D02*
X45500D01*
X46100Y22430D01*
Y22580D01*
X45950Y22730D01*
X45650D01*
X45500Y22580D01*
X39090Y21940D02*
Y21041D01*
X39690D01*
X39990D02*
X40289D01*
X40139D01*
Y21940D01*
X39990Y21790D01*
X24060Y23110D02*
X23760D01*
X23910D01*
Y22360D01*
X23760Y22210D01*
X23610D01*
X23460Y22360D01*
X24360Y22210D02*
Y23110D01*
X24810D01*
X24960Y22960D01*
Y22660D01*
X24810Y22510D01*
X24360D01*
X25860Y22210D02*
X25260D01*
X25860Y22810D01*
Y22960D01*
X25710Y23110D01*
X25410D01*
X25260Y22960D01*
X39715Y46223D02*
X39415D01*
X39565D01*
Y45473D01*
X39415Y45323D01*
X39265D01*
X39115Y45473D01*
X40014Y45323D02*
Y46223D01*
X40464D01*
X40614Y46073D01*
Y45773D01*
X40464Y45623D01*
X40014D01*
X40914Y45323D02*
X41214D01*
X41064D01*
Y46223D01*
X40914Y46073D01*
X76635Y20107D02*
X76335D01*
X76485D01*
Y19357D01*
X76335Y19207D01*
X76185D01*
X76035Y19357D01*
X77384Y19207D02*
Y20107D01*
X76934Y19657D01*
X77534D01*
X76995Y18117D02*
X77594D01*
X76570Y33040D02*
X76270D01*
X76420D01*
Y32290D01*
X76270Y32140D01*
X76120D01*
X75970Y32290D01*
X76870Y32890D02*
X77020Y33040D01*
X77320D01*
X77470Y32890D01*
Y32740D01*
X77320Y32590D01*
X77170D01*
X77320D01*
X77470Y32440D01*
Y32290D01*
X77320Y32140D01*
X77020D01*
X76870Y32290D01*
X76920Y30890D02*
X77520D01*
X3138Y38832D02*
X2839D01*
X2989D01*
Y38082D01*
X2839Y37932D01*
X2689D01*
X2539Y38082D01*
X3438Y37932D02*
X3738D01*
X3588D01*
Y38832D01*
X3438Y38682D01*
X21520Y32940D02*
Y32040D01*
X21970D01*
X22120Y32190D01*
Y32790D01*
X21970Y32940D01*
X21520D01*
X22420Y32040D02*
X22720D01*
X22570D01*
Y32940D01*
X22420Y32790D01*
X43360Y13400D02*
X43210Y13250D01*
Y12950D01*
X43360Y12800D01*
X43960D01*
X44110Y12950D01*
Y13250D01*
X43960Y13400D01*
X44110Y14300D02*
Y13700D01*
X43510Y14300D01*
X43360D01*
X43210Y14150D01*
Y13850D01*
X43360Y13700D01*
X44110Y15200D02*
Y14600D01*
X43510Y15200D01*
X43360D01*
X43210Y15050D01*
Y14750D01*
X43360Y14600D01*
X45620Y17460D02*
X45470Y17610D01*
X45170D01*
X45020Y17460D01*
Y16860D01*
X45170Y16710D01*
X45470D01*
X45620Y16860D01*
X46520Y16710D02*
X45920D01*
X46520Y17310D01*
Y17460D01*
X46370Y17610D01*
X46070D01*
X45920Y17460D01*
X46820Y16710D02*
X47120D01*
X46970D01*
Y17610D01*
X46820Y17460D01*
X40670Y17380D02*
X40520Y17530D01*
X40220D01*
X40070Y17380D01*
Y16780D01*
X40220Y16630D01*
X40520D01*
X40670Y16780D01*
X41570Y16630D02*
X40970D01*
X41570Y17230D01*
Y17380D01*
X41420Y17530D01*
X41120D01*
X40970Y17380D01*
X41870D02*
X42020Y17530D01*
X42320D01*
X42470Y17380D01*
Y16780D01*
X42320Y16630D01*
X42020D01*
X41870Y16780D01*
Y17380D01*
X54047Y22065D02*
X53897Y22215D01*
X53597D01*
X53447Y22065D01*
Y21465D01*
X53597Y21315D01*
X53897D01*
X54047Y21465D01*
X54347Y21315D02*
X54646D01*
X54497D01*
Y22215D01*
X54347Y22065D01*
X55096Y21465D02*
X55246Y21315D01*
X55546D01*
X55696Y21465D01*
Y22065D01*
X55546Y22215D01*
X55246D01*
X55096Y22065D01*
Y21915D01*
X55246Y21765D01*
X55696D01*
X53885Y23770D02*
X53735Y23920D01*
X53435D01*
X53285Y23770D01*
Y23170D01*
X53435Y23020D01*
X53735D01*
X53885Y23170D01*
X54185Y23020D02*
X54485D01*
X54335D01*
Y23920D01*
X54185Y23770D01*
X54935D02*
X55085Y23920D01*
X55385D01*
X55535Y23770D01*
Y23620D01*
X55385Y23470D01*
X55535Y23320D01*
Y23170D01*
X55385Y23020D01*
X55085D01*
X54935Y23170D01*
Y23320D01*
X55085Y23470D01*
X54935Y23620D01*
Y23770D01*
X55085Y23470D02*
X55385D01*
X36595Y22520D02*
X36445Y22670D01*
X36145D01*
X35995Y22520D01*
Y21920D01*
X36145Y21770D01*
X36445D01*
X36595Y21920D01*
X36895Y21770D02*
X37195D01*
X37045D01*
Y22670D01*
X36895Y22520D01*
X37645Y22670D02*
X38245D01*
Y22520D01*
X37645Y21920D01*
Y21770D01*
X53895Y25720D02*
X53745Y25870D01*
X53445D01*
X53295Y25720D01*
Y25120D01*
X53445Y24970D01*
X53745D01*
X53895Y25120D01*
X54195Y24970D02*
X54495D01*
X54345D01*
Y25870D01*
X54195Y25720D01*
X55545Y25870D02*
X55245Y25720D01*
X54945Y25420D01*
Y25120D01*
X55095Y24970D01*
X55395D01*
X55545Y25120D01*
Y25270D01*
X55395Y25420D01*
X54945D01*
X54605Y27300D02*
X54455Y27450D01*
X54155D01*
X54005Y27300D01*
Y26700D01*
X54155Y26550D01*
X54455D01*
X54605Y26700D01*
X54905Y26550D02*
X55205D01*
X55055D01*
Y27450D01*
X54905Y27300D01*
X56255Y27450D02*
X55655D01*
Y27000D01*
X55955Y27150D01*
X56105D01*
X56255Y27000D01*
Y26700D01*
X56105Y26550D01*
X55805D01*
X55655Y26700D01*
X34155Y30650D02*
X34005Y30800D01*
X33705D01*
X33555Y30650D01*
Y30050D01*
X33705Y29900D01*
X34005D01*
X34155Y30050D01*
X34455Y29900D02*
X34755D01*
X34605D01*
Y30800D01*
X34455Y30650D01*
X35655Y29900D02*
Y30800D01*
X35205Y30350D01*
X35805D01*
X38360Y33745D02*
X38210Y33595D01*
Y33295D01*
X38360Y33145D01*
X38960D01*
X39110Y33295D01*
Y33595D01*
X38960Y33745D01*
X39110Y34045D02*
Y34345D01*
Y34195D01*
X38210D01*
X38360Y34045D01*
Y34795D02*
X38210Y34945D01*
Y35245D01*
X38360Y35395D01*
X38510D01*
X38660Y35245D01*
Y35095D01*
Y35245D01*
X38810Y35395D01*
X38960D01*
X39110Y35245D01*
Y34945D01*
X38960Y34795D01*
X52465Y32980D02*
X52315Y33130D01*
X52015D01*
X51865Y32980D01*
Y32380D01*
X52015Y32230D01*
X52315D01*
X52465Y32380D01*
X52765Y32230D02*
X53065D01*
X52915D01*
Y33130D01*
X52765Y32980D01*
X54115Y32230D02*
X53515D01*
X54115Y32830D01*
Y32980D01*
X53965Y33130D01*
X53665D01*
X53515Y32980D01*
X40830Y34575D02*
X40680Y34425D01*
Y34125D01*
X40830Y33975D01*
X41430D01*
X41580Y34125D01*
Y34425D01*
X41430Y34575D01*
X41580Y34875D02*
Y35175D01*
Y35025D01*
X40680D01*
X40830Y34875D01*
X41580Y35625D02*
Y35925D01*
Y35775D01*
X40680D01*
X40830Y35625D01*
X64395Y20530D02*
X64245Y20680D01*
X63945D01*
X63795Y20530D01*
Y19930D01*
X63945Y19780D01*
X64245D01*
X64395Y19930D01*
X64695Y19780D02*
X64995D01*
X64845D01*
Y20680D01*
X64695Y20530D01*
X65445D02*
X65595Y20680D01*
X65895D01*
X66045Y20530D01*
Y19930D01*
X65895Y19780D01*
X65595D01*
X65445Y19930D01*
Y20530D01*
X72950Y19500D02*
X72800Y19650D01*
X72500D01*
X72350Y19500D01*
Y18900D01*
X72500Y18750D01*
X72800D01*
X72950Y18900D01*
X73250D02*
X73400Y18750D01*
X73700D01*
X73850Y18900D01*
Y19500D01*
X73700Y19650D01*
X73400D01*
X73250Y19500D01*
Y19350D01*
X73400Y19200D01*
X73850D01*
X46130Y30410D02*
X45980Y30260D01*
Y29960D01*
X46130Y29810D01*
X46730D01*
X46880Y29960D01*
Y30260D01*
X46730Y30410D01*
X46130Y30710D02*
X45980Y30860D01*
Y31160D01*
X46130Y31310D01*
X46280D01*
X46430Y31160D01*
X46580Y31310D01*
X46730D01*
X46880Y31160D01*
Y30860D01*
X46730Y30710D01*
X46580D01*
X46430Y30860D01*
X46280Y30710D01*
X46130D01*
X46430Y30860D02*
Y31160D01*
X44510Y37820D02*
X44360Y37670D01*
Y37370D01*
X44510Y37220D01*
X45110D01*
X45260Y37370D01*
Y37670D01*
X45110Y37820D01*
X44360Y38120D02*
Y38720D01*
X44510D01*
X45110Y38120D01*
X45260D01*
X42474Y36641D02*
X42324Y36491D01*
Y36191D01*
X42474Y36041D01*
X43073D01*
X43223Y36191D01*
Y36491D01*
X43073Y36641D01*
X42324Y37541D02*
X42474Y37241D01*
X42773Y36941D01*
X43073D01*
X43223Y37091D01*
Y37391D01*
X43073Y37541D01*
X42923D01*
X42773Y37391D01*
Y36941D01*
X53560Y34860D02*
X53410Y34710D01*
Y34410D01*
X53560Y34260D01*
X54160D01*
X54310Y34410D01*
Y34710D01*
X54160Y34860D01*
X53410Y35760D02*
Y35160D01*
X53860D01*
X53710Y35460D01*
Y35610D01*
X53860Y35760D01*
X54160D01*
X54310Y35610D01*
Y35310D01*
X54160Y35160D01*
X53540Y37080D02*
X53390Y36930D01*
Y36630D01*
X53540Y36480D01*
X54140D01*
X54290Y36630D01*
Y36930D01*
X54140Y37080D01*
X54290Y37830D02*
X53390D01*
X53840Y37380D01*
Y37980D01*
X56950Y35020D02*
X56800Y35170D01*
X56500D01*
X56350Y35020D01*
Y34420D01*
X56500Y34270D01*
X56800D01*
X56950Y34420D01*
X57250Y35020D02*
X57400Y35170D01*
X57700D01*
X57850Y35020D01*
Y34870D01*
X57700Y34720D01*
X57550D01*
X57700D01*
X57850Y34570D01*
Y34420D01*
X57700Y34270D01*
X57400D01*
X57250Y34420D01*
X65150Y34520D02*
X65000Y34670D01*
X64700D01*
X64550Y34520D01*
Y33920D01*
X64700Y33770D01*
X65000D01*
X65150Y33920D01*
X66050Y33770D02*
X65450D01*
X66050Y34370D01*
Y34520D01*
X65900Y34670D01*
X65600D01*
X65450Y34520D01*
X73340Y32440D02*
X73190Y32590D01*
X72890D01*
X72740Y32440D01*
Y31840D01*
X72890Y31690D01*
X73190D01*
X73340Y31840D01*
X73640Y31690D02*
X73940D01*
X73790D01*
Y32590D01*
X73640Y32440D01*
M02*
