G04*
G04 #@! TF.GenerationSoftware,Altium Limited,Altium Designer,21.1.1 (26)*
G04*
G04 Layer_Color=8421504*
%FSLAX43Y43*%
%MOMM*%
G71*
G04*
G04 #@! TF.SameCoordinates,7D77D7A2-79D2-47A9-8A17-8AFE765D4546*
G04*
G04*
G04 #@! TF.FilePolarity,Positive*
G04*
G01*
G75*
%ADD16R,1.270X5.842*%
%ADD17R,1.702X5.842*%
%ADD18R,0.930X0.870*%
%ADD19P,0.990X4X180.0*%
%ADD20P,0.990X4X270.0*%
%ADD21R,4.000X4.000*%
%ADD22R,1.020X0.940*%
%ADD23R,0.940X1.020*%
%ADD24R,0.700X0.300*%
%ADD25R,0.300X0.700*%
%ADD26R,2.700X3.700*%
%ADD27R,2.520X2.310*%
%ADD28R,1.150X1.300*%
%ADD29R,1.300X1.500*%
%ADD30R,0.870X0.930*%
G04:AMPARAMS|DCode=31|XSize=0.87mm|YSize=0.93mm|CornerRadius=0mm|HoleSize=0mm|Usage=FLASHONLY|Rotation=315.000|XOffset=0mm|YOffset=0mm|HoleType=Round|Shape=Rectangle|*
%AMROTATEDRECTD31*
4,1,4,-0.636,-0.021,0.021,0.636,0.636,0.021,-0.021,-0.636,-0.636,-0.021,0.0*
%
%ADD31ROTATEDRECTD31*%

G04:AMPARAMS|DCode=32|XSize=0.87mm|YSize=0.93mm|CornerRadius=0mm|HoleSize=0mm|Usage=FLASHONLY|Rotation=45.000|XOffset=0mm|YOffset=0mm|HoleType=Round|Shape=Rectangle|*
%AMROTATEDRECTD32*
4,1,4,0.021,-0.636,-0.636,0.021,-0.021,0.636,0.636,-0.021,0.021,-0.636,0.0*
%
%ADD32ROTATEDRECTD32*%

G54D16*
X52498Y3525D02*
D03*
X35660Y53943D02*
D03*
X17548Y53825D02*
D03*
X35898Y3450D02*
D03*
G54D17*
X56753Y3525D02*
D03*
X48244D02*
D03*
X31406Y53943D02*
D03*
X39915D02*
D03*
X21803Y53825D02*
D03*
X13294D02*
D03*
X40153Y3450D02*
D03*
X31644D02*
D03*
G54D18*
X65850Y44920D02*
D03*
Y43360D02*
D03*
X39973Y31505D02*
D03*
Y29945D02*
D03*
X41830Y31620D02*
D03*
Y30060D02*
D03*
X42773Y34680D02*
D03*
Y33120D02*
D03*
X73380Y22320D02*
D03*
Y20760D02*
D03*
X73365Y33910D02*
D03*
Y35470D02*
D03*
X55240Y33210D02*
D03*
Y34770D02*
D03*
X44940Y34680D02*
D03*
Y33120D02*
D03*
X47820Y29870D02*
D03*
Y31430D02*
D03*
X51020Y31310D02*
D03*
Y29750D02*
D03*
X43820Y16270D02*
D03*
Y17830D02*
D03*
G54D19*
X43040Y19940D02*
D03*
X42120Y20860D02*
D03*
G54D20*
X44620Y19900D02*
D03*
X45540Y20820D02*
D03*
G54D21*
X84500Y24730D02*
D03*
Y37440D02*
D03*
Y13340D02*
D03*
G54D22*
X47873Y34840D02*
D03*
Y33260D02*
D03*
G54D23*
X35650Y47640D02*
D03*
X34070D02*
D03*
X25340Y30650D02*
D03*
X26920D02*
D03*
X54140Y29780D02*
D03*
X52560D02*
D03*
G54D24*
X41868Y27731D02*
D03*
Y27231D02*
D03*
Y26731D02*
D03*
Y26231D02*
D03*
Y25731D02*
D03*
Y25231D02*
D03*
Y24731D02*
D03*
Y24231D02*
D03*
X45718D02*
D03*
Y24731D02*
D03*
Y25231D02*
D03*
Y25731D02*
D03*
Y26231D02*
D03*
Y26731D02*
D03*
Y27231D02*
D03*
Y27731D02*
D03*
G54D25*
X42543Y23556D02*
D03*
X43043D02*
D03*
X43543D02*
D03*
X44043D02*
D03*
X44543D02*
D03*
X45043D02*
D03*
Y28406D02*
D03*
X44543D02*
D03*
X44043D02*
D03*
X43543D02*
D03*
X43043D02*
D03*
X42543D02*
D03*
G54D26*
X43793Y25981D02*
D03*
G54D27*
X68860Y30930D02*
D03*
Y37130D02*
D03*
X68930Y18050D02*
D03*
Y24250D02*
D03*
G54D28*
X20535Y30700D02*
D03*
X22785D02*
D03*
G54D29*
X49550Y26340D02*
D03*
X47650D02*
D03*
G54D30*
X51120Y36440D02*
D03*
X49560D02*
D03*
X51090Y34850D02*
D03*
X49530D02*
D03*
X51100Y28100D02*
D03*
X49540D02*
D03*
X38633Y23725D02*
D03*
X37073D02*
D03*
X48680Y23560D02*
D03*
X50240D02*
D03*
X48690Y22060D02*
D03*
X50250D02*
D03*
G54D31*
X37898Y28275D02*
D03*
X36795Y29378D02*
D03*
X46647Y19701D02*
D03*
X47750Y18598D02*
D03*
G54D32*
X41142Y19902D02*
D03*
X40038Y18798D02*
D03*
M02*
