G04*
G04 #@! TF.GenerationSoftware,Altium Limited,Altium Designer,21.1.1 (26)*
G04*
G04 Layer_Physical_Order=3*
G04 Layer_Color=16440176*
%FSLAX43Y43*%
%MOMM*%
G71*
G04*
G04 #@! TF.SameCoordinates,7D77D7A2-79D2-47A9-8A17-8AFE765D4546*
G04*
G04*
G04 #@! TF.FilePolarity,Positive*
G04*
G01*
G75*
%ADD51C,1.600*%
%ADD55C,0.600*%
%ADD68C,1.500*%
%ADD69C,0.800*%
%ADD70C,0.500*%
G36*
X84776Y57070D02*
X85336Y56967D01*
X85884Y56808D01*
X86413Y56597D01*
X86918Y56334D01*
X87396Y56022D01*
X87839Y55665D01*
X88246Y55265D01*
X88611Y54827D01*
X88930Y54356D01*
X89202Y53855D01*
X89422Y53329D01*
X89590Y52785D01*
X89703Y52226D01*
X89760Y51659D01*
X89760Y51374D01*
X89760Y51374D01*
X89760Y51374D01*
X89765Y48799D01*
X89742Y6232D01*
X89743Y6228D01*
X89742Y6225D01*
X89747Y5940D01*
X89700Y5373D01*
X89597Y4812D01*
X89438Y4265D01*
X89227Y3736D01*
X88964Y3230D01*
X88653Y2754D01*
X88296Y2310D01*
X87896Y1903D01*
X87459Y1538D01*
X86987Y1219D01*
X86487Y947D01*
X85961Y727D01*
X85417Y559D01*
X84858Y446D01*
X84292Y389D01*
X84007Y388D01*
X7249D01*
X6205Y390D01*
X6202Y389D01*
X6199Y390D01*
X5914Y385D01*
X5346Y432D01*
X4786Y535D01*
X4238Y694D01*
X3709Y905D01*
X3204Y1168D01*
X2727Y1479D01*
X2283Y1836D01*
X1877Y2236D01*
X1512Y2673D01*
X1192Y3145D01*
X921Y3646D01*
X700Y4171D01*
X532Y4715D01*
X419Y5274D01*
X362Y5840D01*
Y7253D01*
Y51570D01*
X390Y51906D01*
X534Y52687D01*
X692Y53235D01*
X904Y53764D01*
X1167Y54269D01*
X1478Y54746D01*
X1835Y55190D01*
X2234Y55596D01*
X2672Y55961D01*
X3144Y56281D01*
X3644Y56553D01*
X4170Y56773D01*
X4714Y56941D01*
X5272Y57054D01*
X5839Y57111D01*
X6124Y57111D01*
X83917Y57113D01*
X83920Y57113D01*
X83923Y57113D01*
X84208Y57117D01*
X84776Y57070D01*
D02*
G37*
%LPC*%
G36*
X29320Y56384D02*
X29100D01*
X28896Y56300D01*
X28740Y56144D01*
X28656Y55940D01*
Y55720D01*
X28740Y55516D01*
X28896Y55360D01*
X29100Y55276D01*
X29320D01*
X29524Y55360D01*
X29680Y55516D01*
X29764Y55720D01*
Y55940D01*
X29680Y56144D01*
X29524Y56300D01*
X29320Y56384D01*
D02*
G37*
G36*
X23940Y56364D02*
X23720D01*
X23516Y56280D01*
X23360Y56124D01*
X23276Y55920D01*
Y55700D01*
X23360Y55496D01*
X23516Y55340D01*
X23720Y55256D01*
X23940D01*
X24144Y55340D01*
X24300Y55496D01*
X24384Y55700D01*
Y55920D01*
X24300Y56124D01*
X24144Y56280D01*
X23940Y56364D01*
D02*
G37*
G36*
X11510Y56254D02*
X11290D01*
X11086Y56170D01*
X10930Y56014D01*
X10846Y55810D01*
Y55590D01*
X10930Y55386D01*
X11086Y55230D01*
X11290Y55146D01*
X11510D01*
X11714Y55230D01*
X11870Y55386D01*
X11954Y55590D01*
Y55810D01*
X11870Y56014D01*
X11714Y56170D01*
X11510Y56254D01*
D02*
G37*
G36*
X42170Y56234D02*
X41950D01*
X41746Y56150D01*
X41590Y55994D01*
X41506Y55790D01*
Y55570D01*
X41590Y55366D01*
X41746Y55210D01*
X41950Y55126D01*
X42170D01*
X42374Y55210D01*
X42530Y55366D01*
X42614Y55570D01*
Y55790D01*
X42530Y55994D01*
X42374Y56150D01*
X42170Y56234D01*
D02*
G37*
G36*
X77960Y55634D02*
X77740D01*
X77536Y55550D01*
X77380Y55394D01*
X77296Y55190D01*
Y54970D01*
X77380Y54766D01*
X77536Y54610D01*
X77740Y54526D01*
X77960D01*
X78164Y54610D01*
X78320Y54766D01*
X78404Y54970D01*
Y55190D01*
X78320Y55394D01*
X78164Y55550D01*
X77960Y55634D01*
D02*
G37*
G36*
X71850D02*
X71630D01*
X71426Y55550D01*
X71270Y55394D01*
X71186Y55190D01*
Y54970D01*
X71270Y54766D01*
X71426Y54610D01*
X71630Y54526D01*
X71850D01*
X72054Y54610D01*
X72210Y54766D01*
X72294Y54970D01*
Y55190D01*
X72210Y55394D01*
X72054Y55550D01*
X71850Y55634D01*
D02*
G37*
G36*
X29320Y55084D02*
X29100D01*
X28896Y55000D01*
X28740Y54844D01*
X28656Y54640D01*
Y54420D01*
X28740Y54216D01*
X28896Y54060D01*
X29100Y53976D01*
X29320D01*
X29524Y54060D01*
X29680Y54216D01*
X29764Y54420D01*
Y54640D01*
X29680Y54844D01*
X29524Y55000D01*
X29320Y55084D01*
D02*
G37*
G36*
X23940Y55064D02*
X23720D01*
X23516Y54980D01*
X23360Y54824D01*
X23276Y54620D01*
Y54400D01*
X23360Y54196D01*
X23516Y54040D01*
X23720Y53956D01*
X23940D01*
X24144Y54040D01*
X24300Y54196D01*
X24384Y54400D01*
Y54620D01*
X24300Y54824D01*
X24144Y54980D01*
X23940Y55064D01*
D02*
G37*
G36*
X11510Y54954D02*
X11290D01*
X11086Y54870D01*
X10930Y54714D01*
X10846Y54510D01*
Y54290D01*
X10930Y54086D01*
X11086Y53930D01*
X11290Y53846D01*
X11510D01*
X11714Y53930D01*
X11870Y54086D01*
X11954Y54290D01*
Y54510D01*
X11870Y54714D01*
X11714Y54870D01*
X11510Y54954D01*
D02*
G37*
G36*
X42170Y54934D02*
X41950D01*
X41746Y54850D01*
X41590Y54694D01*
X41506Y54490D01*
Y54270D01*
X41590Y54066D01*
X41746Y53910D01*
X41950Y53826D01*
X42170D01*
X42374Y53910D01*
X42530Y54066D01*
X42614Y54270D01*
Y54490D01*
X42530Y54694D01*
X42374Y54850D01*
X42170Y54934D01*
D02*
G37*
G36*
X48250Y54704D02*
X48030D01*
X47826Y54620D01*
X47670Y54464D01*
X47586Y54260D01*
Y54040D01*
X47670Y53836D01*
X47826Y53680D01*
X48030Y53596D01*
X48250D01*
X48454Y53680D01*
X48610Y53836D01*
X48694Y54040D01*
Y54260D01*
X48610Y54464D01*
X48454Y54620D01*
X48250Y54704D01*
D02*
G37*
G36*
X45310Y54514D02*
X45090D01*
X44886Y54430D01*
X44730Y54274D01*
X44646Y54070D01*
Y53850D01*
X44730Y53646D01*
X44886Y53490D01*
X45090Y53406D01*
X45310D01*
X45514Y53490D01*
X45670Y53646D01*
X45754Y53850D01*
Y54070D01*
X45670Y54274D01*
X45514Y54430D01*
X45310Y54514D01*
D02*
G37*
G36*
X29310Y53814D02*
X29090D01*
X28886Y53730D01*
X28730Y53574D01*
X28646Y53370D01*
Y53150D01*
X28730Y52946D01*
X28886Y52790D01*
X29090Y52706D01*
X29310D01*
X29514Y52790D01*
X29670Y52946D01*
X29754Y53150D01*
Y53370D01*
X29670Y53574D01*
X29514Y53730D01*
X29310Y53814D01*
D02*
G37*
G36*
X23950Y53794D02*
X23730D01*
X23526Y53710D01*
X23370Y53554D01*
X23286Y53350D01*
Y53130D01*
X23370Y52926D01*
X23526Y52770D01*
X23730Y52686D01*
X23950D01*
X24154Y52770D01*
X24310Y52926D01*
X24394Y53130D01*
Y53350D01*
X24310Y53554D01*
X24154Y53710D01*
X23950Y53794D01*
D02*
G37*
G36*
X11500Y53684D02*
X11280D01*
X11076Y53600D01*
X10920Y53444D01*
X10836Y53240D01*
Y53020D01*
X10920Y52816D01*
X11076Y52660D01*
X11280Y52576D01*
X11500D01*
X11704Y52660D01*
X11860Y52816D01*
X11944Y53020D01*
Y53240D01*
X11860Y53444D01*
X11704Y53600D01*
X11500Y53684D01*
D02*
G37*
G36*
X42180Y53664D02*
X41960D01*
X41756Y53580D01*
X41600Y53424D01*
X41516Y53220D01*
Y53000D01*
X41600Y52796D01*
X41756Y52640D01*
X41960Y52556D01*
X42180D01*
X42384Y52640D01*
X42540Y52796D01*
X42624Y53000D01*
Y53220D01*
X42540Y53424D01*
X42384Y53580D01*
X42180Y53664D01*
D02*
G37*
G36*
X74550Y53174D02*
X74330D01*
X74126Y53090D01*
X73970Y52934D01*
X73886Y52730D01*
Y52510D01*
X73970Y52306D01*
X74126Y52150D01*
X74330Y52066D01*
X74550D01*
X74754Y52150D01*
X74910Y52306D01*
X74994Y52510D01*
Y52730D01*
X74910Y52934D01*
X74754Y53090D01*
X74550Y53174D01*
D02*
G37*
G36*
X29280Y52534D02*
X29060D01*
X28856Y52450D01*
X28700Y52294D01*
X28616Y52090D01*
Y51870D01*
X28700Y51666D01*
X28856Y51510D01*
X29060Y51426D01*
X29280D01*
X29484Y51510D01*
X29640Y51666D01*
X29724Y51870D01*
Y52090D01*
X29640Y52294D01*
X29484Y52450D01*
X29280Y52534D01*
D02*
G37*
G36*
X23980Y52514D02*
X23760D01*
X23556Y52430D01*
X23400Y52274D01*
X23316Y52070D01*
Y51850D01*
X23400Y51646D01*
X23556Y51490D01*
X23760Y51406D01*
X23980D01*
X24184Y51490D01*
X24340Y51646D01*
X24424Y51850D01*
Y52070D01*
X24340Y52274D01*
X24184Y52430D01*
X23980Y52514D01*
D02*
G37*
G36*
X11470Y52404D02*
X11250D01*
X11046Y52320D01*
X10890Y52164D01*
X10806Y51960D01*
Y51740D01*
X10890Y51536D01*
X11046Y51380D01*
X11250Y51296D01*
X11470D01*
X11674Y51380D01*
X11830Y51536D01*
X11914Y51740D01*
Y51960D01*
X11830Y52164D01*
X11674Y52320D01*
X11470Y52404D01*
D02*
G37*
G36*
X42210Y52384D02*
X41990D01*
X41786Y52300D01*
X41630Y52144D01*
X41546Y51940D01*
Y51720D01*
X41630Y51516D01*
X41786Y51360D01*
X41990Y51276D01*
X42210D01*
X42414Y51360D01*
X42570Y51516D01*
X42654Y51720D01*
Y51940D01*
X42570Y52144D01*
X42414Y52300D01*
X42210Y52384D01*
D02*
G37*
G36*
X68482Y52294D02*
X68218D01*
X67962Y52226D01*
X67734Y52093D01*
X67547Y51906D01*
X67414Y51678D01*
X67346Y51422D01*
Y51158D01*
X67414Y50902D01*
X67547Y50674D01*
X67734Y50487D01*
X67962Y50354D01*
X68218Y50286D01*
X68482D01*
X68738Y50354D01*
X68966Y50487D01*
X69153Y50674D01*
X69286Y50902D01*
X69354Y51158D01*
Y51422D01*
X69286Y51678D01*
X69153Y51906D01*
X68966Y52093D01*
X68738Y52226D01*
X68482Y52294D01*
D02*
G37*
G36*
X45290Y51374D02*
X45070D01*
X44866Y51290D01*
X44710Y51134D01*
X44626Y50930D01*
Y50710D01*
X44710Y50506D01*
X44866Y50350D01*
X45070Y50266D01*
X45290D01*
X45494Y50350D01*
X45650Y50506D01*
X45734Y50710D01*
Y50930D01*
X45650Y51134D01*
X45494Y51290D01*
X45290Y51374D01*
D02*
G37*
G36*
X48190Y51284D02*
X47970D01*
X47766Y51200D01*
X47610Y51044D01*
X47526Y50840D01*
Y50620D01*
X47610Y50416D01*
X47766Y50260D01*
X47970Y50176D01*
X48190D01*
X48394Y50260D01*
X48550Y50416D01*
X48634Y50620D01*
Y50840D01*
X48550Y51044D01*
X48394Y51200D01*
X48190Y51284D01*
D02*
G37*
G36*
X29280Y51204D02*
X29060D01*
X28856Y51120D01*
X28700Y50964D01*
X28616Y50760D01*
Y50540D01*
X28700Y50336D01*
X28856Y50180D01*
X29060Y50096D01*
X29280D01*
X29484Y50180D01*
X29640Y50336D01*
X29724Y50540D01*
Y50760D01*
X29640Y50964D01*
X29484Y51120D01*
X29280Y51204D01*
D02*
G37*
G36*
X61814Y52189D02*
X61536D01*
X61268Y52117D01*
X61028Y51978D01*
X60832Y51782D01*
X60693Y51542D01*
X60621Y51274D01*
Y50996D01*
X60693Y50728D01*
X60832Y50488D01*
X61028Y50292D01*
X61268Y50153D01*
X61536Y50081D01*
X61814D01*
X62082Y50153D01*
X62322Y50292D01*
X62518Y50488D01*
X62657Y50728D01*
X62729Y50996D01*
Y51274D01*
X62657Y51542D01*
X62518Y51782D01*
X62322Y51978D01*
X62082Y52117D01*
X61814Y52189D01*
D02*
G37*
G36*
X54189D02*
X53911D01*
X53643Y52117D01*
X53403Y51978D01*
X53207Y51782D01*
X53068Y51542D01*
X52996Y51274D01*
Y50996D01*
X53068Y50728D01*
X53207Y50488D01*
X53403Y50292D01*
X53643Y50153D01*
X53911Y50081D01*
X54189D01*
X54457Y50153D01*
X54697Y50292D01*
X54893Y50488D01*
X55032Y50728D01*
X55104Y50996D01*
Y51274D01*
X55032Y51542D01*
X54893Y51782D01*
X54697Y51978D01*
X54457Y52117D01*
X54189Y52189D01*
D02*
G37*
G36*
X23980Y51184D02*
X23760D01*
X23556Y51100D01*
X23400Y50944D01*
X23316Y50740D01*
Y50520D01*
X23400Y50316D01*
X23556Y50160D01*
X23760Y50076D01*
X23980D01*
X24184Y50160D01*
X24340Y50316D01*
X24424Y50520D01*
Y50740D01*
X24340Y50944D01*
X24184Y51100D01*
X23980Y51184D01*
D02*
G37*
G36*
X82695Y54554D02*
X82251D01*
X81816Y54467D01*
X81406Y54297D01*
X81037Y54050D01*
X80723Y53737D01*
X80476Y53367D01*
X80306Y52957D01*
X80219Y52522D01*
Y52078D01*
X80306Y51642D01*
X80476Y51232D01*
X80723Y50863D01*
X81037Y50549D01*
X81406Y50302D01*
X81816Y50132D01*
X82251Y50046D01*
X82695D01*
X83131Y50132D01*
X83541Y50302D01*
X83910Y50549D01*
X84224Y50863D01*
X84471Y51232D01*
X84641Y51642D01*
X84727Y52078D01*
Y52522D01*
X84641Y52957D01*
X84471Y53367D01*
X84224Y53737D01*
X83910Y54050D01*
X83541Y54297D01*
X83131Y54467D01*
X82695Y54554D01*
D02*
G37*
G36*
X11470Y51074D02*
X11250D01*
X11046Y50990D01*
X10890Y50834D01*
X10806Y50630D01*
Y50410D01*
X10890Y50206D01*
X11046Y50050D01*
X11250Y49966D01*
X11470D01*
X11674Y50050D01*
X11830Y50206D01*
X11914Y50410D01*
Y50630D01*
X11830Y50834D01*
X11674Y50990D01*
X11470Y51074D01*
D02*
G37*
G36*
X42210Y51054D02*
X41990D01*
X41786Y50970D01*
X41630Y50814D01*
X41546Y50610D01*
Y50390D01*
X41630Y50186D01*
X41786Y50030D01*
X41990Y49946D01*
X42210D01*
X42414Y50030D01*
X42570Y50186D01*
X42654Y50390D01*
Y50610D01*
X42570Y50814D01*
X42414Y50970D01*
X42210Y51054D01*
D02*
G37*
G36*
X5520Y53629D02*
X5076D01*
X4641Y53542D01*
X4231Y53372D01*
X3862Y53125D01*
X3548Y52812D01*
X3301Y52442D01*
X3131Y52032D01*
X3044Y51597D01*
Y51153D01*
X3131Y50717D01*
X3301Y50307D01*
X3548Y49938D01*
X3862Y49624D01*
X4231Y49377D01*
X4641Y49207D01*
X5076Y49121D01*
X5520D01*
X5956Y49207D01*
X6366Y49377D01*
X6735Y49624D01*
X7049Y49938D01*
X7296Y50307D01*
X7466Y50717D01*
X7552Y51153D01*
Y51597D01*
X7466Y52032D01*
X7296Y52442D01*
X7049Y52812D01*
X6735Y53125D01*
X6366Y53372D01*
X5956Y53542D01*
X5520Y53629D01*
D02*
G37*
G36*
X30400Y50204D02*
X30180D01*
X29976Y50120D01*
X29820Y49964D01*
X29736Y49760D01*
Y49540D01*
X29820Y49336D01*
X29976Y49180D01*
X30180Y49096D01*
X30400D01*
X30604Y49180D01*
X30760Y49336D01*
X30844Y49540D01*
Y49760D01*
X30760Y49964D01*
X30604Y50120D01*
X30400Y50204D01*
D02*
G37*
G36*
X31920Y50194D02*
X31700D01*
X31496Y50110D01*
X31340Y49954D01*
X31256Y49750D01*
Y49530D01*
X31340Y49326D01*
X31496Y49170D01*
X31700Y49086D01*
X31920D01*
X32124Y49170D01*
X32280Y49326D01*
X32364Y49530D01*
Y49750D01*
X32280Y49954D01*
X32124Y50110D01*
X31920Y50194D01*
D02*
G37*
G36*
X22860Y50184D02*
X22640D01*
X22436Y50100D01*
X22280Y49944D01*
X22196Y49740D01*
Y49520D01*
X22280Y49316D01*
X22436Y49160D01*
X22640Y49076D01*
X22860D01*
X23064Y49160D01*
X23220Y49316D01*
X23304Y49520D01*
Y49740D01*
X23220Y49944D01*
X23064Y50100D01*
X22860Y50184D01*
D02*
G37*
G36*
X21340Y50174D02*
X21120D01*
X20916Y50090D01*
X20760Y49934D01*
X20676Y49730D01*
Y49510D01*
X20760Y49306D01*
X20916Y49150D01*
X21120Y49066D01*
X21340D01*
X21544Y49150D01*
X21700Y49306D01*
X21784Y49510D01*
Y49730D01*
X21700Y49934D01*
X21544Y50090D01*
X21340Y50174D01*
D02*
G37*
G36*
X12590Y50074D02*
X12370D01*
X12166Y49990D01*
X12010Y49834D01*
X11926Y49630D01*
Y49410D01*
X12010Y49206D01*
X12166Y49050D01*
X12370Y48966D01*
X12590D01*
X12794Y49050D01*
X12950Y49206D01*
X13034Y49410D01*
Y49630D01*
X12950Y49834D01*
X12794Y49990D01*
X12590Y50074D01*
D02*
G37*
G36*
X14110Y50064D02*
X13890D01*
X13686Y49980D01*
X13530Y49824D01*
X13446Y49620D01*
Y49400D01*
X13530Y49196D01*
X13686Y49040D01*
X13890Y48956D01*
X14110D01*
X14314Y49040D01*
X14470Y49196D01*
X14554Y49400D01*
Y49620D01*
X14470Y49824D01*
X14314Y49980D01*
X14110Y50064D01*
D02*
G37*
G36*
X41090Y50054D02*
X40870D01*
X40666Y49970D01*
X40510Y49814D01*
X40426Y49610D01*
Y49390D01*
X40510Y49186D01*
X40666Y49030D01*
X40870Y48946D01*
X41090D01*
X41294Y49030D01*
X41450Y49186D01*
X41534Y49390D01*
Y49610D01*
X41450Y49814D01*
X41294Y49970D01*
X41090Y50054D01*
D02*
G37*
G36*
X39570Y50044D02*
X39350D01*
X39146Y49960D01*
X38990Y49804D01*
X38906Y49600D01*
Y49380D01*
X38990Y49176D01*
X39146Y49020D01*
X39350Y48936D01*
X39570D01*
X39774Y49020D01*
X39930Y49176D01*
X40014Y49380D01*
Y49600D01*
X39930Y49804D01*
X39774Y49960D01*
X39570Y50044D01*
D02*
G37*
G36*
X71730Y49764D02*
X71510D01*
X71306Y49680D01*
X71150Y49524D01*
X71066Y49320D01*
Y49100D01*
X71150Y48896D01*
X71306Y48740D01*
X71510Y48656D01*
X71730D01*
X71934Y48740D01*
X72090Y48896D01*
X72174Y49100D01*
Y49320D01*
X72090Y49524D01*
X71934Y49680D01*
X71730Y49764D01*
D02*
G37*
G36*
X28070Y49694D02*
X27850D01*
X27646Y49610D01*
X27490Y49454D01*
X27406Y49250D01*
Y49030D01*
X27490Y48826D01*
X27646Y48670D01*
X27850Y48586D01*
X28070D01*
X28274Y48670D01*
X28430Y48826D01*
X28514Y49030D01*
Y49250D01*
X28430Y49454D01*
X28274Y49610D01*
X28070Y49694D01*
D02*
G37*
G36*
X15410Y48394D02*
X15190D01*
X14986Y48310D01*
X14830Y48154D01*
X14746Y47950D01*
Y47730D01*
X14830Y47526D01*
X14986Y47370D01*
X15190Y47286D01*
X15410D01*
X15614Y47370D01*
X15770Y47526D01*
X15854Y47730D01*
Y47950D01*
X15770Y48154D01*
X15614Y48310D01*
X15410Y48394D01*
D02*
G37*
G36*
X82272Y49104D02*
X82008D01*
X81752Y49036D01*
X81524Y48903D01*
X81337Y48716D01*
X81204Y48488D01*
X81136Y48232D01*
Y47968D01*
X81204Y47712D01*
X81337Y47484D01*
X81524Y47297D01*
X81752Y47164D01*
X82008Y47096D01*
X82272D01*
X82528Y47164D01*
X82756Y47297D01*
X82943Y47484D01*
X83076Y47712D01*
X83144Y47968D01*
Y48232D01*
X83076Y48488D01*
X82943Y48716D01*
X82756Y48903D01*
X82528Y49036D01*
X82272Y49104D01*
D02*
G37*
G36*
X32400Y48134D02*
X32180D01*
X31976Y48050D01*
X31820Y47894D01*
X31736Y47690D01*
Y47470D01*
X31820Y47266D01*
X31976Y47110D01*
X32180Y47026D01*
X32400D01*
X32604Y47110D01*
X32760Y47266D01*
X32844Y47470D01*
Y47690D01*
X32760Y47894D01*
X32604Y48050D01*
X32400Y48134D01*
D02*
G37*
G36*
X78902Y49014D02*
X78638D01*
X78382Y48946D01*
X78154Y48813D01*
X77967Y48626D01*
X77834Y48398D01*
X77766Y48142D01*
Y47878D01*
X77834Y47622D01*
X77967Y47394D01*
X78154Y47207D01*
X78382Y47074D01*
X78638Y47006D01*
X78902D01*
X79158Y47074D01*
X79386Y47207D01*
X79573Y47394D01*
X79706Y47622D01*
X79774Y47878D01*
Y48142D01*
X79706Y48398D01*
X79573Y48626D01*
X79386Y48813D01*
X79158Y48946D01*
X78902Y49014D01*
D02*
G37*
G36*
X29440Y47804D02*
X29220D01*
X29016Y47720D01*
X28860Y47564D01*
X28776Y47360D01*
Y47140D01*
X28860Y46936D01*
X29016Y46780D01*
X29220Y46696D01*
X29440D01*
X29644Y46780D01*
X29800Y46936D01*
X29884Y47140D01*
Y47360D01*
X29800Y47564D01*
X29644Y47720D01*
X29440Y47804D01*
D02*
G37*
G36*
X25230Y47734D02*
X25010D01*
X24806Y47650D01*
X24650Y47494D01*
X24566Y47290D01*
Y47070D01*
X24650Y46866D01*
X24806Y46710D01*
X25010Y46626D01*
X25230D01*
X25434Y46710D01*
X25590Y46866D01*
X25674Y47070D01*
Y47290D01*
X25590Y47494D01*
X25434Y47650D01*
X25230Y47734D01*
D02*
G37*
G36*
X21740Y47664D02*
X21520D01*
X21316Y47580D01*
X21160Y47424D01*
X21076Y47220D01*
Y47000D01*
X21160Y46796D01*
X21316Y46640D01*
X21520Y46556D01*
X21740D01*
X21944Y46640D01*
X22100Y46796D01*
X22184Y47000D01*
Y47220D01*
X22100Y47424D01*
X21944Y47580D01*
X21740Y47664D01*
D02*
G37*
G36*
X44820Y47634D02*
X44600D01*
X44396Y47550D01*
X44240Y47394D01*
X44156Y47190D01*
Y46970D01*
X44240Y46766D01*
X44396Y46610D01*
X44600Y46526D01*
X44820D01*
X45024Y46610D01*
X45180Y46766D01*
X45264Y46970D01*
Y47190D01*
X45180Y47394D01*
X45024Y47550D01*
X44820Y47634D01*
D02*
G37*
G36*
X41440D02*
X41220D01*
X41016Y47550D01*
X40860Y47394D01*
X40776Y47190D01*
Y46970D01*
X40860Y46766D01*
X41016Y46610D01*
X41220Y46526D01*
X41440D01*
X41644Y46610D01*
X41800Y46766D01*
X41884Y46970D01*
Y47190D01*
X41800Y47394D01*
X41644Y47550D01*
X41440Y47634D01*
D02*
G37*
G36*
X48060Y47494D02*
X47840D01*
X47636Y47410D01*
X47480Y47254D01*
X47396Y47050D01*
Y46830D01*
X47480Y46626D01*
X47636Y46470D01*
X47840Y46386D01*
X48060D01*
X48264Y46470D01*
X48420Y46626D01*
X48504Y46830D01*
Y47050D01*
X48420Y47254D01*
X48264Y47410D01*
X48060Y47494D01*
D02*
G37*
G36*
X74440Y47374D02*
X74220D01*
X74016Y47290D01*
X73860Y47134D01*
X73776Y46930D01*
Y46710D01*
X73860Y46506D01*
X74016Y46350D01*
X74220Y46266D01*
X74440D01*
X74644Y46350D01*
X74800Y46506D01*
X74884Y46710D01*
Y46930D01*
X74800Y47134D01*
X74644Y47290D01*
X74440Y47374D01*
D02*
G37*
G36*
X12580Y46354D02*
X12360D01*
X12156Y46270D01*
X12000Y46114D01*
X11916Y45910D01*
Y45690D01*
X12000Y45486D01*
X12156Y45330D01*
X12360Y45246D01*
X12580D01*
X12784Y45330D01*
X12940Y45486D01*
X13024Y45690D01*
Y45910D01*
X12940Y46114D01*
X12784Y46270D01*
X12580Y46354D01*
D02*
G37*
G36*
X34840Y46034D02*
X34620D01*
X34416Y45950D01*
X34260Y45794D01*
X34176Y45590D01*
Y45370D01*
X34260Y45166D01*
X34416Y45010D01*
X34620Y44926D01*
X34840D01*
X35044Y45010D01*
X35200Y45166D01*
X35284Y45370D01*
Y45590D01*
X35200Y45794D01*
X35044Y45950D01*
X34840Y46034D01*
D02*
G37*
G36*
X30450D02*
X30230D01*
X30026Y45950D01*
X29870Y45794D01*
X29786Y45590D01*
Y45370D01*
X29870Y45166D01*
X30026Y45010D01*
X30230Y44926D01*
X30450D01*
X30654Y45010D01*
X30810Y45166D01*
X30894Y45370D01*
Y45590D01*
X30810Y45794D01*
X30654Y45950D01*
X30450Y46034D01*
D02*
G37*
G36*
X25770Y45454D02*
X25550D01*
X25346Y45370D01*
X25190Y45214D01*
X25106Y45010D01*
Y44790D01*
X25190Y44586D01*
X25346Y44430D01*
X25550Y44346D01*
X25770D01*
X25974Y44430D01*
X26130Y44586D01*
X26214Y44790D01*
Y45010D01*
X26130Y45214D01*
X25974Y45370D01*
X25770Y45454D01*
D02*
G37*
G36*
X22546Y45294D02*
X22326D01*
X22122Y45209D01*
X21967Y45053D01*
X21882Y44850D01*
Y44629D01*
X21967Y44426D01*
X22122Y44270D01*
X22326Y44186D01*
X22546D01*
X22750Y44270D01*
X22906Y44426D01*
X22990Y44629D01*
Y44850D01*
X22906Y45053D01*
X22750Y45209D01*
X22546Y45294D01*
D02*
G37*
G36*
X71850Y44864D02*
X71630D01*
X71426Y44780D01*
X71270Y44624D01*
X71186Y44420D01*
Y44200D01*
X71270Y43996D01*
X71426Y43840D01*
X71630Y43756D01*
X71850D01*
X72054Y43840D01*
X72210Y43996D01*
X72294Y44200D01*
Y44420D01*
X72210Y44624D01*
X72054Y44780D01*
X71850Y44864D01*
D02*
G37*
G36*
X61814Y44564D02*
X61802D01*
Y43637D01*
X62729D01*
Y43649D01*
X62657Y43917D01*
X62518Y44157D01*
X62322Y44353D01*
X62082Y44492D01*
X61814Y44564D01*
D02*
G37*
G36*
X61548D02*
X61536D01*
X61268Y44492D01*
X61028Y44353D01*
X60832Y44157D01*
X60693Y43917D01*
X60621Y43649D01*
Y43637D01*
X61548D01*
Y44564D01*
D02*
G37*
G36*
X15280Y43894D02*
X15060D01*
X14856Y43810D01*
X14700Y43654D01*
X14616Y43450D01*
Y43230D01*
X14700Y43026D01*
X14856Y42870D01*
X15060Y42786D01*
X15280D01*
X15484Y42870D01*
X15640Y43026D01*
X15724Y43230D01*
Y43450D01*
X15640Y43654D01*
X15484Y43810D01*
X15280Y43894D01*
D02*
G37*
G36*
X34510Y43604D02*
X34290D01*
X34086Y43520D01*
X33930Y43364D01*
X33846Y43160D01*
Y42940D01*
X33930Y42736D01*
X34086Y42580D01*
X34290Y42496D01*
X34510D01*
X34714Y42580D01*
X34870Y42736D01*
X34954Y42940D01*
Y43160D01*
X34870Y43364D01*
X34714Y43520D01*
X34510Y43604D01*
D02*
G37*
G36*
X37540Y43574D02*
X37320D01*
X37116Y43490D01*
X36960Y43334D01*
X36876Y43130D01*
Y42910D01*
X36960Y42706D01*
X37116Y42550D01*
X37320Y42466D01*
X37540D01*
X37744Y42550D01*
X37900Y42706D01*
X37984Y42910D01*
Y43130D01*
X37900Y43334D01*
X37744Y43490D01*
X37540Y43574D01*
D02*
G37*
G36*
X62729Y43383D02*
X61802D01*
Y42456D01*
X61814D01*
X62082Y42528D01*
X62322Y42667D01*
X62518Y42863D01*
X62657Y43103D01*
X62729Y43371D01*
Y43383D01*
D02*
G37*
G36*
X61548D02*
X60621D01*
Y43371D01*
X60693Y43103D01*
X60832Y42863D01*
X61028Y42667D01*
X61268Y42528D01*
X61536Y42456D01*
X61548D01*
Y43383D01*
D02*
G37*
G36*
X54189Y44564D02*
X53911D01*
X53643Y44492D01*
X53403Y44353D01*
X53207Y44157D01*
X53068Y43917D01*
X52996Y43649D01*
Y43371D01*
X53068Y43103D01*
X53207Y42863D01*
X53403Y42667D01*
X53643Y42528D01*
X53911Y42456D01*
X54189D01*
X54457Y42528D01*
X54697Y42667D01*
X54893Y42863D01*
X55032Y43103D01*
X55104Y43371D01*
Y43649D01*
X55032Y43917D01*
X54893Y44157D01*
X54697Y44353D01*
X54457Y44492D01*
X54189Y44564D01*
D02*
G37*
G36*
X45462Y44304D02*
X45185D01*
X44917Y44232D01*
X44676Y44093D01*
X44480Y43897D01*
X44341Y43657D01*
X44269Y43388D01*
Y43111D01*
X44341Y42843D01*
X44480Y42603D01*
X44676Y42406D01*
X44917Y42268D01*
X45185Y42196D01*
X45462D01*
X45730Y42268D01*
X45971Y42406D01*
X46167Y42603D01*
X46306Y42843D01*
X46377Y43111D01*
Y43388D01*
X46306Y43657D01*
X46167Y43897D01*
X45971Y44093D01*
X45730Y44232D01*
X45462Y44304D01*
D02*
G37*
G36*
X42962D02*
X42685D01*
X42417Y44232D01*
X42176Y44093D01*
X41980Y43897D01*
X41841Y43657D01*
X41769Y43388D01*
Y43111D01*
X41841Y42843D01*
X41980Y42603D01*
X42176Y42406D01*
X42417Y42268D01*
X42685Y42196D01*
X42962D01*
X43230Y42268D01*
X43471Y42406D01*
X43667Y42603D01*
X43806Y42843D01*
X43877Y43111D01*
Y43388D01*
X43806Y43657D01*
X43667Y43897D01*
X43471Y44093D01*
X43230Y44232D01*
X42962Y44304D01*
D02*
G37*
G36*
X40462D02*
X40185D01*
X39917Y44232D01*
X39676Y44093D01*
X39480Y43897D01*
X39341Y43657D01*
X39269Y43388D01*
Y43111D01*
X39341Y42843D01*
X39480Y42603D01*
X39676Y42406D01*
X39917Y42268D01*
X40185Y42196D01*
X40462D01*
X40730Y42268D01*
X40971Y42406D01*
X41167Y42603D01*
X41306Y42843D01*
X41377Y43111D01*
Y43388D01*
X41306Y43657D01*
X41167Y43897D01*
X40971Y44093D01*
X40730Y44232D01*
X40462Y44304D01*
D02*
G37*
G36*
X25370Y42464D02*
X25150D01*
X24946Y42380D01*
X24790Y42224D01*
X24706Y42020D01*
Y41800D01*
X24790Y41596D01*
X24946Y41440D01*
X25150Y41356D01*
X25370D01*
X25574Y41440D01*
X25730Y41596D01*
X25814Y41800D01*
Y42020D01*
X25730Y42224D01*
X25574Y42380D01*
X25370Y42464D01*
D02*
G37*
G36*
X74390Y42424D02*
X74170D01*
X73966Y42340D01*
X73810Y42184D01*
X73726Y41980D01*
Y41760D01*
X73810Y41556D01*
X73966Y41400D01*
X74170Y41316D01*
X74390D01*
X74594Y41400D01*
X74750Y41556D01*
X74834Y41760D01*
Y41980D01*
X74750Y42184D01*
X74594Y42340D01*
X74390Y42424D01*
D02*
G37*
G36*
X31002Y44634D02*
X30558D01*
X30123Y44547D01*
X29712Y44377D01*
X29343Y44131D01*
X29029Y43817D01*
X28783Y43448D01*
X28613Y43037D01*
X28526Y42602D01*
Y42158D01*
X28613Y41723D01*
X28783Y41312D01*
X29029Y40943D01*
X29343Y40629D01*
X29712Y40383D01*
X30123Y40213D01*
X30558Y40126D01*
X31002D01*
X31437Y40213D01*
X31848Y40383D01*
X32217Y40629D01*
X32531Y40943D01*
X32777Y41312D01*
X32947Y41723D01*
X33034Y42158D01*
Y42602D01*
X32947Y43037D01*
X32777Y43448D01*
X32531Y43817D01*
X32217Y44131D01*
X31848Y44377D01*
X31437Y44547D01*
X31002Y44634D01*
D02*
G37*
G36*
X17810Y40814D02*
X17590D01*
X17386Y40730D01*
X17230Y40574D01*
X17146Y40370D01*
Y40150D01*
X17230Y39946D01*
X17386Y39790D01*
X17590Y39706D01*
X17810D01*
X18014Y39790D01*
X18170Y39946D01*
X18254Y40150D01*
Y40370D01*
X18170Y40574D01*
X18014Y40730D01*
X17810Y40814D01*
D02*
G37*
G36*
X12460Y40484D02*
X12240D01*
X12036Y40400D01*
X11880Y40244D01*
X11796Y40040D01*
Y39820D01*
X11880Y39616D01*
X12036Y39460D01*
X12240Y39376D01*
X12460D01*
X12664Y39460D01*
X12820Y39616D01*
X12904Y39820D01*
Y40040D01*
X12820Y40244D01*
X12664Y40400D01*
X12460Y40484D01*
D02*
G37*
G36*
X27810Y40334D02*
X27590D01*
X27386Y40250D01*
X27230Y40094D01*
X27146Y39890D01*
Y39670D01*
X27230Y39466D01*
X27386Y39310D01*
X27590Y39226D01*
X27810D01*
X28014Y39310D01*
X28170Y39466D01*
X28254Y39670D01*
Y39890D01*
X28170Y40094D01*
X28014Y40250D01*
X27810Y40334D01*
D02*
G37*
G36*
X33290Y40224D02*
X33070D01*
X32866Y40140D01*
X32710Y39984D01*
X32626Y39780D01*
Y39560D01*
X32710Y39356D01*
X32866Y39200D01*
X33070Y39116D01*
X33290D01*
X33494Y39200D01*
X33650Y39356D01*
X33734Y39560D01*
Y39780D01*
X33650Y39984D01*
X33494Y40140D01*
X33290Y40224D01*
D02*
G37*
G36*
X36990Y40214D02*
X36770D01*
X36566Y40130D01*
X36410Y39974D01*
X36326Y39770D01*
Y39550D01*
X36410Y39346D01*
X36566Y39190D01*
X36770Y39106D01*
X36990D01*
X37194Y39190D01*
X37350Y39346D01*
X37434Y39550D01*
Y39770D01*
X37350Y39974D01*
X37194Y40130D01*
X36990Y40214D01*
D02*
G37*
G36*
X48710Y40124D02*
X48490D01*
X48286Y40040D01*
X48130Y39884D01*
X48046Y39680D01*
Y39460D01*
X48130Y39256D01*
X48286Y39100D01*
X48490Y39016D01*
X48710D01*
X48914Y39100D01*
X49070Y39256D01*
X49154Y39460D01*
Y39680D01*
X49070Y39884D01*
X48914Y40040D01*
X48710Y40124D01*
D02*
G37*
G36*
X39780Y40094D02*
X39560D01*
X39356Y40010D01*
X39200Y39854D01*
X39116Y39650D01*
Y39430D01*
X39200Y39226D01*
X39356Y39070D01*
X39560Y38986D01*
X39780D01*
X39984Y39070D01*
X40140Y39226D01*
X40224Y39430D01*
Y39650D01*
X40140Y39854D01*
X39984Y40010D01*
X39780Y40094D01*
D02*
G37*
G36*
X57930Y40034D02*
X57710D01*
X57506Y39950D01*
X57350Y39794D01*
X57266Y39590D01*
Y39370D01*
X57350Y39166D01*
X57506Y39010D01*
X57710Y38926D01*
X57930D01*
X58134Y39010D01*
X58290Y39166D01*
X58374Y39370D01*
Y39590D01*
X58290Y39794D01*
X58134Y39950D01*
X57930Y40034D01*
D02*
G37*
G36*
X52910Y39914D02*
X52690D01*
X52486Y39830D01*
X52330Y39674D01*
X52246Y39470D01*
Y39250D01*
X52330Y39046D01*
X52486Y38890D01*
X52690Y38806D01*
X52910D01*
X53114Y38890D01*
X53270Y39046D01*
X53354Y39250D01*
Y39470D01*
X53270Y39674D01*
X53114Y39830D01*
X52910Y39914D01*
D02*
G37*
G36*
X44990D02*
X44770D01*
X44566Y39830D01*
X44410Y39674D01*
X44326Y39470D01*
Y39250D01*
X44410Y39046D01*
X44566Y38890D01*
X44770Y38806D01*
X44990D01*
X45194Y38890D01*
X45350Y39046D01*
X45434Y39250D01*
Y39470D01*
X45350Y39674D01*
X45194Y39830D01*
X44990Y39914D01*
D02*
G37*
G36*
X64060Y39684D02*
X63840D01*
X63636Y39600D01*
X63480Y39444D01*
X63396Y39240D01*
Y39020D01*
X63480Y38816D01*
X63636Y38660D01*
X63840Y38576D01*
X64060D01*
X64264Y38660D01*
X64420Y38816D01*
X64504Y39020D01*
Y39240D01*
X64420Y39444D01*
X64264Y39600D01*
X64060Y39684D01*
D02*
G37*
G36*
X78232Y39654D02*
X77968D01*
X77712Y39586D01*
X77484Y39453D01*
X77297Y39266D01*
X77164Y39038D01*
X77096Y38782D01*
Y38518D01*
X77164Y38262D01*
X77297Y38034D01*
X77484Y37847D01*
X77712Y37714D01*
X77968Y37646D01*
X78232D01*
X78488Y37714D01*
X78716Y37847D01*
X78903Y38034D01*
X79036Y38262D01*
X79104Y38518D01*
Y38782D01*
X79036Y39038D01*
X78903Y39266D01*
X78716Y39453D01*
X78488Y39586D01*
X78232Y39654D01*
D02*
G37*
G36*
X20730Y38544D02*
X20510D01*
X20306Y38460D01*
X20150Y38304D01*
X20066Y38100D01*
Y37880D01*
X20150Y37676D01*
X20306Y37520D01*
X20510Y37436D01*
X20730D01*
X20934Y37520D01*
X21090Y37676D01*
X21174Y37880D01*
Y38100D01*
X21090Y38304D01*
X20934Y38460D01*
X20730Y38544D01*
D02*
G37*
G36*
X30430Y38394D02*
X30210D01*
X30006Y38310D01*
X29850Y38154D01*
X29766Y37950D01*
Y37730D01*
X29850Y37526D01*
X30006Y37370D01*
X30210Y37286D01*
X30430D01*
X30634Y37370D01*
X30790Y37526D01*
X30874Y37730D01*
Y37950D01*
X30790Y38154D01*
X30634Y38310D01*
X30430Y38394D01*
D02*
G37*
G36*
X15170Y38094D02*
X14950D01*
X14746Y38010D01*
X14590Y37854D01*
X14506Y37650D01*
Y37430D01*
X14590Y37226D01*
X14746Y37070D01*
X14950Y36986D01*
X15170D01*
X15374Y37070D01*
X15530Y37226D01*
X15614Y37430D01*
Y37650D01*
X15530Y37854D01*
X15374Y38010D01*
X15170Y38094D01*
D02*
G37*
G36*
X61230Y37644D02*
X61010D01*
X60806Y37560D01*
X60650Y37404D01*
X60566Y37200D01*
Y36980D01*
X60650Y36776D01*
X60806Y36620D01*
X61010Y36536D01*
X61230D01*
X61434Y36620D01*
X61590Y36776D01*
X61674Y36980D01*
Y37200D01*
X61590Y37404D01*
X61434Y37560D01*
X61230Y37644D01*
D02*
G37*
G36*
X78232Y37104D02*
X78227D01*
Y36227D01*
X79104D01*
Y36232D01*
X79036Y36488D01*
X78903Y36716D01*
X78716Y36903D01*
X78488Y37036D01*
X78232Y37104D01*
D02*
G37*
G36*
X77973D02*
X77968D01*
X77712Y37036D01*
X77484Y36903D01*
X77297Y36716D01*
X77164Y36488D01*
X77096Y36232D01*
Y36227D01*
X77973D01*
Y37104D01*
D02*
G37*
G36*
X36780Y37194D02*
X36560D01*
X36356Y37110D01*
X36200Y36954D01*
X36116Y36750D01*
Y36530D01*
X36200Y36326D01*
X36356Y36170D01*
X36560Y36086D01*
X36780D01*
X36984Y36170D01*
X37140Y36326D01*
X37224Y36530D01*
Y36750D01*
X37140Y36954D01*
X36984Y37110D01*
X36780Y37194D01*
D02*
G37*
G36*
X39820Y37144D02*
X39600D01*
X39396Y37060D01*
X39240Y36904D01*
X39156Y36700D01*
Y36480D01*
X39240Y36276D01*
X39396Y36120D01*
X39600Y36036D01*
X39820D01*
X40024Y36120D01*
X40180Y36276D01*
X40264Y36480D01*
Y36700D01*
X40180Y36904D01*
X40024Y37060D01*
X39820Y37144D01*
D02*
G37*
G36*
X52680Y36984D02*
X52460D01*
X52256Y36900D01*
X52100Y36744D01*
X52016Y36540D01*
Y36320D01*
X52100Y36116D01*
X52256Y35960D01*
X52460Y35876D01*
X52680D01*
X52884Y35960D01*
X53040Y36116D01*
X53124Y36320D01*
Y36540D01*
X53040Y36744D01*
X52884Y36900D01*
X52680Y36984D01*
D02*
G37*
G36*
X32720Y36864D02*
X32500D01*
X32296Y36780D01*
X32140Y36624D01*
X32056Y36420D01*
Y36200D01*
X32140Y35996D01*
X32296Y35840D01*
X32500Y35756D01*
X32720D01*
X32924Y35840D01*
X33080Y35996D01*
X33164Y36200D01*
Y36420D01*
X33080Y36624D01*
X32924Y36780D01*
X32720Y36864D01*
D02*
G37*
G36*
X47540Y36794D02*
X47320D01*
X47116Y36710D01*
X46960Y36554D01*
X46876Y36350D01*
Y36130D01*
X46960Y35926D01*
X47116Y35770D01*
X47320Y35686D01*
X47540D01*
X47744Y35770D01*
X47900Y35926D01*
X47984Y36130D01*
Y36350D01*
X47900Y36554D01*
X47744Y36710D01*
X47540Y36794D01*
D02*
G37*
G36*
X45020Y36734D02*
X44800D01*
X44596Y36650D01*
X44440Y36494D01*
X44356Y36290D01*
Y36070D01*
X44440Y35866D01*
X44596Y35710D01*
X44800Y35626D01*
X45020D01*
X45224Y35710D01*
X45380Y35866D01*
X45464Y36070D01*
Y36290D01*
X45380Y36494D01*
X45224Y36650D01*
X45020Y36734D01*
D02*
G37*
G36*
X55330Y36614D02*
X55110D01*
X54906Y36530D01*
X54750Y36374D01*
X54666Y36170D01*
Y35950D01*
X54750Y35746D01*
X54906Y35590D01*
X55110Y35506D01*
X55330D01*
X55534Y35590D01*
X55690Y35746D01*
X55774Y35950D01*
Y36170D01*
X55690Y36374D01*
X55534Y36530D01*
X55330Y36614D01*
D02*
G37*
G36*
X79104Y35973D02*
X78227D01*
Y35096D01*
X78232D01*
X78488Y35164D01*
X78716Y35297D01*
X78903Y35484D01*
X79036Y35712D01*
X79104Y35968D01*
Y35973D01*
D02*
G37*
G36*
X77973D02*
X77096D01*
Y35968D01*
X77164Y35712D01*
X77297Y35484D01*
X77484Y35297D01*
X77712Y35164D01*
X77968Y35096D01*
X77973D01*
Y35973D01*
D02*
G37*
G36*
X17650Y35694D02*
X17430D01*
X17226Y35610D01*
X17070Y35454D01*
X16986Y35250D01*
Y35030D01*
X17070Y34826D01*
X17226Y34670D01*
X17430Y34586D01*
X17650D01*
X17854Y34670D01*
X18010Y34826D01*
X18094Y35030D01*
Y35250D01*
X18010Y35454D01*
X17854Y35610D01*
X17650Y35694D01*
D02*
G37*
G36*
X12580Y35584D02*
X12360D01*
X12156Y35500D01*
X12000Y35344D01*
X11916Y35140D01*
Y34920D01*
X12000Y34716D01*
X12156Y34560D01*
X12360Y34476D01*
X12580D01*
X12784Y34560D01*
X12940Y34716D01*
X13024Y34920D01*
Y35140D01*
X12940Y35344D01*
X12784Y35500D01*
X12580Y35584D01*
D02*
G37*
G36*
X26430Y35314D02*
X26210D01*
X26006Y35230D01*
X25850Y35074D01*
X25766Y34870D01*
Y34650D01*
X25850Y34446D01*
X26006Y34290D01*
X26210Y34206D01*
X26430D01*
X26634Y34290D01*
X26790Y34446D01*
X26874Y34650D01*
Y34870D01*
X26790Y35074D01*
X26634Y35230D01*
X26430Y35314D01*
D02*
G37*
G36*
X52550Y35234D02*
X52330D01*
X52126Y35150D01*
X51970Y34994D01*
X51886Y34790D01*
Y34570D01*
X51970Y34366D01*
X52126Y34210D01*
X52330Y34126D01*
X52550D01*
X52754Y34210D01*
X52910Y34366D01*
X52994Y34570D01*
Y34790D01*
X52910Y34994D01*
X52754Y35150D01*
X52550Y35234D01*
D02*
G37*
G36*
X63930Y35184D02*
X63710D01*
X63506Y35100D01*
X63350Y34944D01*
X63266Y34740D01*
Y34520D01*
X63350Y34316D01*
X63506Y34160D01*
X63710Y34076D01*
X63930D01*
X64134Y34160D01*
X64290Y34316D01*
X64374Y34520D01*
Y34740D01*
X64290Y34944D01*
X64134Y35100D01*
X63930Y35184D01*
D02*
G37*
G36*
X22430Y35154D02*
X22210D01*
X22006Y35070D01*
X21850Y34914D01*
X21766Y34710D01*
Y34490D01*
X21850Y34286D01*
X22006Y34130D01*
X22210Y34046D01*
X22430D01*
X22634Y34130D01*
X22790Y34286D01*
X22874Y34490D01*
Y34710D01*
X22790Y34914D01*
X22634Y35070D01*
X22430Y35154D01*
D02*
G37*
G36*
X35300Y34664D02*
X35080D01*
X34876Y34580D01*
X34720Y34424D01*
X34636Y34220D01*
Y34000D01*
X34720Y33796D01*
X34876Y33640D01*
X35080Y33556D01*
X35300D01*
X35504Y33640D01*
X35660Y33796D01*
X35744Y34000D01*
Y34220D01*
X35660Y34424D01*
X35504Y34580D01*
X35300Y34664D01*
D02*
G37*
G36*
X41360Y33574D02*
X41140D01*
X40936Y33490D01*
X40780Y33334D01*
X40696Y33130D01*
Y32910D01*
X40780Y32706D01*
X40936Y32550D01*
X41140Y32466D01*
X41360D01*
X41564Y32550D01*
X41720Y32706D01*
X41804Y32910D01*
Y33130D01*
X41720Y33334D01*
X41564Y33490D01*
X41360Y33574D01*
D02*
G37*
G36*
X39710Y33534D02*
X39490D01*
X39286Y33450D01*
X39130Y33294D01*
X39046Y33090D01*
Y32870D01*
X39130Y32666D01*
X39286Y32510D01*
X39490Y32426D01*
X39710D01*
X39914Y32510D01*
X40070Y32666D01*
X40154Y32870D01*
Y33090D01*
X40070Y33294D01*
X39914Y33450D01*
X39710Y33534D01*
D02*
G37*
G36*
X85190Y33124D02*
X84970D01*
X84766Y33040D01*
X84610Y32884D01*
X84526Y32680D01*
Y32460D01*
X84610Y32256D01*
X84766Y32100D01*
X84970Y32016D01*
X85190D01*
X85394Y32100D01*
X85550Y32256D01*
X85634Y32460D01*
Y32680D01*
X85550Y32884D01*
X85394Y33040D01*
X85190Y33124D01*
D02*
G37*
G36*
X80980D02*
X80760D01*
X80556Y33040D01*
X80400Y32884D01*
X80316Y32680D01*
Y32460D01*
X80400Y32256D01*
X80556Y32100D01*
X80760Y32016D01*
X80980D01*
X81184Y32100D01*
X81340Y32256D01*
X81424Y32460D01*
Y32680D01*
X81340Y32884D01*
X81184Y33040D01*
X80980Y33124D01*
D02*
G37*
G36*
X37380Y32824D02*
X37160D01*
X36956Y32740D01*
X36800Y32584D01*
X36716Y32380D01*
Y32160D01*
X36800Y31956D01*
X36956Y31800D01*
X37160Y31716D01*
X37380D01*
X37584Y31800D01*
X37740Y31956D01*
X37824Y32160D01*
Y32380D01*
X37740Y32584D01*
X37584Y32740D01*
X37380Y32824D01*
D02*
G37*
G36*
X44417Y32047D02*
Y31627D01*
X44837D01*
X44760Y31814D01*
X44604Y31970D01*
X44417Y32047D01*
D02*
G37*
G36*
X44163D02*
X43976Y31970D01*
X43820Y31814D01*
X43743Y31627D01*
X44163D01*
Y32047D01*
D02*
G37*
G36*
X17157Y31757D02*
Y31337D01*
X17577D01*
X17500Y31524D01*
X17344Y31680D01*
X17157Y31757D01*
D02*
G37*
G36*
X16903D02*
X16716Y31680D01*
X16560Y31524D01*
X16483Y31337D01*
X16903D01*
Y31757D01*
D02*
G37*
G36*
X31690Y32094D02*
X31470D01*
X31266Y32010D01*
X31110Y31854D01*
X31026Y31650D01*
Y31430D01*
X31110Y31226D01*
X31266Y31070D01*
X31470Y30986D01*
X31690D01*
X31894Y31070D01*
X32050Y31226D01*
X32134Y31430D01*
Y31650D01*
X32050Y31854D01*
X31894Y32010D01*
X31690Y32094D01*
D02*
G37*
G36*
X8462Y33064D02*
X8185D01*
X7917Y32992D01*
X7676Y32853D01*
X7480Y32657D01*
X7341Y32417D01*
X7269Y32148D01*
Y31871D01*
X7341Y31603D01*
X7480Y31363D01*
X7676Y31166D01*
X7917Y31028D01*
X8185Y30956D01*
X8462D01*
X8730Y31028D01*
X8971Y31166D01*
X9167Y31363D01*
X9306Y31603D01*
X9377Y31871D01*
Y32148D01*
X9306Y32417D01*
X9167Y32657D01*
X8971Y32853D01*
X8730Y32992D01*
X8462Y33064D01*
D02*
G37*
G36*
X5922D02*
X5645D01*
X5377Y32992D01*
X5136Y32853D01*
X4940Y32657D01*
X4801Y32417D01*
X4729Y32148D01*
Y31871D01*
X4801Y31603D01*
X4940Y31363D01*
X5136Y31166D01*
X5377Y31028D01*
X5645Y30956D01*
X5922D01*
X6190Y31028D01*
X6431Y31166D01*
X6627Y31363D01*
X6766Y31603D01*
X6837Y31871D01*
Y32148D01*
X6766Y32417D01*
X6627Y32657D01*
X6431Y32853D01*
X6190Y32992D01*
X5922Y33064D01*
D02*
G37*
G36*
X44837Y31373D02*
X44417D01*
Y30953D01*
X44604Y31030D01*
X44760Y31186D01*
X44837Y31373D01*
D02*
G37*
G36*
X44163D02*
X43743D01*
X43820Y31186D01*
X43976Y31030D01*
X44163Y30953D01*
Y31373D01*
D02*
G37*
G36*
X17577Y31083D02*
X17157D01*
Y30663D01*
X17344Y30740D01*
X17500Y30896D01*
X17577Y31083D01*
D02*
G37*
G36*
X16903D02*
X16483D01*
X16560Y30896D01*
X16716Y30740D01*
X16903Y30663D01*
Y31083D01*
D02*
G37*
G36*
X87370Y30024D02*
X87150D01*
X86946Y29940D01*
X86790Y29784D01*
X86706Y29580D01*
Y29360D01*
X86790Y29156D01*
X86946Y29000D01*
X87150Y28916D01*
X87370D01*
X87574Y29000D01*
X87730Y29156D01*
X87814Y29360D01*
Y29580D01*
X87730Y29784D01*
X87574Y29940D01*
X87370Y30024D01*
D02*
G37*
G36*
X40025Y28843D02*
Y28477D01*
X40391D01*
X40326Y28635D01*
X40184Y28777D01*
X40025Y28843D01*
D02*
G37*
G36*
X39771D02*
X39613Y28777D01*
X39471Y28635D01*
X39406Y28477D01*
X39771D01*
Y28843D01*
D02*
G37*
G36*
X8462Y30524D02*
X8185D01*
X7917Y30452D01*
X7676Y30313D01*
X7480Y30117D01*
X7341Y29877D01*
X7269Y29608D01*
Y29331D01*
X7341Y29063D01*
X7480Y28823D01*
X7676Y28626D01*
X7917Y28488D01*
X8185Y28416D01*
X8462D01*
X8730Y28488D01*
X8971Y28626D01*
X9167Y28823D01*
X9306Y29063D01*
X9377Y29331D01*
Y29608D01*
X9306Y29877D01*
X9167Y30117D01*
X8971Y30313D01*
X8730Y30452D01*
X8462Y30524D01*
D02*
G37*
G36*
X5962D02*
X5685D01*
X5417Y30452D01*
X5176Y30313D01*
X4980Y30117D01*
X4841Y29877D01*
X4769Y29608D01*
Y29331D01*
X4841Y29063D01*
X4980Y28823D01*
X5176Y28626D01*
X5417Y28488D01*
X5685Y28416D01*
X5962D01*
X6230Y28488D01*
X6471Y28626D01*
X6667Y28823D01*
X6806Y29063D01*
X6877Y29331D01*
Y29608D01*
X6806Y29877D01*
X6667Y30117D01*
X6471Y30313D01*
X6230Y30452D01*
X5962Y30524D01*
D02*
G37*
G36*
X40391Y28223D02*
X40025D01*
Y27857D01*
X40184Y27922D01*
X40326Y28064D01*
X40391Y28223D01*
D02*
G37*
G36*
X39771D02*
X39406D01*
X39471Y28064D01*
X39613Y27922D01*
X39771Y27857D01*
Y28223D01*
D02*
G37*
G36*
X31950Y28934D02*
X31730D01*
X31526Y28850D01*
X31370Y28694D01*
X31286Y28490D01*
Y28270D01*
X31370Y28066D01*
X31526Y27910D01*
X31730Y27826D01*
X31950D01*
X32154Y27910D01*
X32310Y28066D01*
X32394Y28270D01*
Y28490D01*
X32310Y28694D01*
X32154Y28850D01*
X31950Y28934D01*
D02*
G37*
G36*
X30080D02*
X29860D01*
X29656Y28850D01*
X29500Y28694D01*
X29416Y28490D01*
Y28270D01*
X29500Y28066D01*
X29656Y27910D01*
X29860Y27826D01*
X30080D01*
X30284Y27910D01*
X30440Y28066D01*
X30524Y28270D01*
Y28490D01*
X30440Y28694D01*
X30284Y28850D01*
X30080Y28934D01*
D02*
G37*
G36*
X27890Y28824D02*
X27670D01*
X27466Y28740D01*
X27310Y28584D01*
X27226Y28380D01*
Y28160D01*
X27310Y27956D01*
X27466Y27800D01*
X27670Y27716D01*
X27890D01*
X28094Y27800D01*
X28250Y27956D01*
X28334Y28160D01*
Y28380D01*
X28250Y28584D01*
X28094Y28740D01*
X27890Y28824D01*
D02*
G37*
G36*
X44828Y27935D02*
X44608D01*
X44404Y27851D01*
X44255Y27702D01*
X44107Y27851D01*
X43903Y27935D01*
X43683D01*
X43479Y27851D01*
X43401Y27773D01*
X43318Y27700D01*
X43235Y27773D01*
X43157Y27851D01*
X42953Y27935D01*
X42733D01*
X42529Y27851D01*
X42373Y27695D01*
X42289Y27491D01*
Y27271D01*
X42373Y27067D01*
X42509Y26931D01*
X42373Y26795D01*
X42289Y26591D01*
Y26371D01*
X42373Y26167D01*
X42522Y26019D01*
X42373Y25870D01*
X42289Y25666D01*
Y25446D01*
X42373Y25242D01*
X42451Y25164D01*
X42524Y25081D01*
X42451Y24998D01*
X42373Y24920D01*
X42289Y24716D01*
Y24496D01*
X42373Y24292D01*
X42529Y24137D01*
X42733Y24052D01*
X42953D01*
X43157Y24137D01*
X43235Y24215D01*
X43318Y24288D01*
X43401Y24215D01*
X43479Y24137D01*
X43683Y24052D01*
X43903D01*
X44107Y24137D01*
X44255Y24285D01*
X44404Y24137D01*
X44608Y24052D01*
X44828D01*
X45032Y24137D01*
X45187Y24292D01*
X45272Y24496D01*
Y24716D01*
X45187Y24920D01*
X45109Y24998D01*
X45036Y25081D01*
X45109Y25164D01*
X45187Y25242D01*
X45272Y25446D01*
Y25666D01*
X45187Y25870D01*
X45039Y26019D01*
X45187Y26167D01*
X45272Y26371D01*
Y26591D01*
X45187Y26795D01*
X45051Y26931D01*
X45187Y27067D01*
X45272Y27271D01*
Y27491D01*
X45187Y27695D01*
X45032Y27851D01*
X44828Y27935D01*
D02*
G37*
G36*
X27950Y27094D02*
X27730D01*
X27526Y27010D01*
X27370Y26854D01*
X27286Y26650D01*
Y26430D01*
X27370Y26226D01*
X27526Y26070D01*
X27730Y25986D01*
X27950D01*
X28154Y26070D01*
X28310Y26226D01*
X28394Y26430D01*
Y26650D01*
X28310Y26854D01*
X28154Y27010D01*
X27950Y27094D01*
D02*
G37*
G36*
X8462Y27984D02*
X8185D01*
X7917Y27912D01*
X7676Y27773D01*
X7480Y27577D01*
X7341Y27337D01*
X7269Y27068D01*
Y26791D01*
X7341Y26523D01*
X7480Y26283D01*
X7676Y26086D01*
X7917Y25948D01*
X8185Y25876D01*
X8462D01*
X8730Y25948D01*
X8971Y26086D01*
X9167Y26283D01*
X9306Y26523D01*
X9377Y26791D01*
Y27068D01*
X9306Y27337D01*
X9167Y27577D01*
X8971Y27773D01*
X8730Y27912D01*
X8462Y27984D01*
D02*
G37*
G36*
X5962D02*
X5685D01*
X5417Y27912D01*
X5176Y27773D01*
X4980Y27577D01*
X4841Y27337D01*
X4769Y27068D01*
Y26791D01*
X4841Y26523D01*
X4980Y26283D01*
X5176Y26086D01*
X5417Y25948D01*
X5685Y25876D01*
X5962D01*
X6230Y25948D01*
X6471Y26086D01*
X6667Y26283D01*
X6806Y26523D01*
X6877Y26791D01*
Y27068D01*
X6806Y27337D01*
X6667Y27577D01*
X6471Y27773D01*
X6230Y27912D01*
X5962Y27984D01*
D02*
G37*
G36*
X27984Y25454D02*
X27763D01*
X27560Y25369D01*
X27404Y25214D01*
X27319Y25010D01*
Y24789D01*
X27404Y24586D01*
X27560Y24430D01*
X27763Y24346D01*
X27984D01*
X28187Y24430D01*
X28343Y24586D01*
X28427Y24789D01*
Y25010D01*
X28343Y25214D01*
X28187Y25369D01*
X27984Y25454D01*
D02*
G37*
G36*
X40375Y24272D02*
Y23852D01*
X40796D01*
X40718Y24039D01*
X40562Y24194D01*
X40375Y24272D01*
D02*
G37*
G36*
X40121D02*
X39935Y24194D01*
X39779Y24039D01*
X39701Y23852D01*
X40121D01*
Y24272D01*
D02*
G37*
G36*
X8462Y25444D02*
X8185D01*
X7917Y25372D01*
X7676Y25233D01*
X7480Y25037D01*
X7341Y24797D01*
X7269Y24528D01*
Y24251D01*
X7341Y23983D01*
X7480Y23743D01*
X7676Y23546D01*
X7917Y23408D01*
X8185Y23336D01*
X8462D01*
X8730Y23408D01*
X8971Y23546D01*
X9167Y23743D01*
X9306Y23983D01*
X9377Y24251D01*
Y24528D01*
X9306Y24797D01*
X9167Y25037D01*
X8971Y25233D01*
X8730Y25372D01*
X8462Y25444D01*
D02*
G37*
G36*
X5962D02*
X5685D01*
X5417Y25372D01*
X5176Y25233D01*
X4980Y25037D01*
X4841Y24797D01*
X4769Y24528D01*
Y24251D01*
X4841Y23983D01*
X4980Y23743D01*
X5176Y23546D01*
X5417Y23408D01*
X5685Y23336D01*
X5962D01*
X6230Y23408D01*
X6471Y23546D01*
X6667Y23743D01*
X6806Y23983D01*
X6877Y24251D01*
Y24528D01*
X6806Y24797D01*
X6667Y25037D01*
X6471Y25233D01*
X6230Y25372D01*
X5962Y25444D01*
D02*
G37*
G36*
X63770Y24434D02*
X63550D01*
X63346Y24350D01*
X63190Y24194D01*
X63106Y23990D01*
Y23770D01*
X63190Y23566D01*
X63346Y23410D01*
X63550Y23326D01*
X63770D01*
X63974Y23410D01*
X64130Y23566D01*
X64214Y23770D01*
Y23990D01*
X64130Y24194D01*
X63974Y24350D01*
X63770Y24434D01*
D02*
G37*
G36*
X40796Y23598D02*
X40375D01*
Y23178D01*
X40562Y23255D01*
X40718Y23411D01*
X40796Y23598D01*
D02*
G37*
G36*
X40121D02*
X39701D01*
X39779Y23411D01*
X39935Y23255D01*
X40121Y23178D01*
Y23598D01*
D02*
G37*
G36*
X52150Y23944D02*
X51930D01*
X51726Y23860D01*
X51570Y23704D01*
X51486Y23500D01*
Y23280D01*
X51570Y23076D01*
X51726Y22920D01*
X51930Y22836D01*
X52150D01*
X52354Y22920D01*
X52510Y23076D01*
X52594Y23280D01*
Y23500D01*
X52510Y23704D01*
X52354Y23860D01*
X52150Y23944D01*
D02*
G37*
G36*
X32912Y23704D02*
X32900D01*
Y22777D01*
X33827D01*
Y22788D01*
X33756Y23057D01*
X33617Y23297D01*
X33421Y23493D01*
X33180Y23632D01*
X32912Y23704D01*
D02*
G37*
G36*
X32646D02*
X32635D01*
X32367Y23632D01*
X32126Y23493D01*
X31930Y23297D01*
X31791Y23057D01*
X31719Y22788D01*
Y22777D01*
X32646D01*
Y23704D01*
D02*
G37*
G36*
X55800Y23464D02*
X55580D01*
X55376Y23380D01*
X55220Y23224D01*
X55136Y23020D01*
Y22800D01*
X55220Y22596D01*
X55376Y22440D01*
X55580Y22356D01*
X55800D01*
X56004Y22440D01*
X56160Y22596D01*
X56244Y22800D01*
Y23020D01*
X56160Y23224D01*
X56004Y23380D01*
X55800Y23464D01*
D02*
G37*
G36*
X33827Y22523D02*
X32900D01*
Y21596D01*
X32912D01*
X33180Y21668D01*
X33421Y21806D01*
X33617Y22003D01*
X33756Y22243D01*
X33827Y22511D01*
Y22523D01*
D02*
G37*
G36*
X32646D02*
X31719D01*
Y22511D01*
X31791Y22243D01*
X31930Y22003D01*
X32126Y21806D01*
X32367Y21668D01*
X32635Y21596D01*
X32646D01*
Y22523D01*
D02*
G37*
G36*
X30412Y23704D02*
X30135D01*
X29867Y23632D01*
X29626Y23493D01*
X29430Y23297D01*
X29291Y23057D01*
X29219Y22788D01*
Y22511D01*
X29291Y22243D01*
X29430Y22003D01*
X29626Y21806D01*
X29867Y21668D01*
X30135Y21596D01*
X30412D01*
X30680Y21668D01*
X30921Y21806D01*
X31117Y22003D01*
X31256Y22243D01*
X31327Y22511D01*
Y22788D01*
X31256Y23057D01*
X31117Y23297D01*
X30921Y23493D01*
X30680Y23632D01*
X30412Y23704D01*
D02*
G37*
G36*
X27912D02*
X27635D01*
X27367Y23632D01*
X27126Y23493D01*
X26930Y23297D01*
X26791Y23057D01*
X26719Y22788D01*
Y22511D01*
X26791Y22243D01*
X26930Y22003D01*
X27126Y21806D01*
X27367Y21668D01*
X27635Y21596D01*
X27912D01*
X28180Y21668D01*
X28421Y21806D01*
X28617Y22003D01*
X28756Y22243D01*
X28827Y22511D01*
Y22788D01*
X28756Y23057D01*
X28617Y23297D01*
X28421Y23493D01*
X28180Y23632D01*
X27912Y23704D01*
D02*
G37*
G36*
X52120Y22444D02*
X51900D01*
X51696Y22360D01*
X51540Y22204D01*
X51456Y22000D01*
Y21780D01*
X51540Y21576D01*
X51696Y21420D01*
X51900Y21336D01*
X52120D01*
X52324Y21420D01*
X52480Y21576D01*
X52564Y21780D01*
Y22000D01*
X52480Y22204D01*
X52324Y22360D01*
X52120Y22444D01*
D02*
G37*
G36*
X46520Y22414D02*
X46300D01*
X46096Y22330D01*
X45940Y22174D01*
X45856Y21970D01*
Y21750D01*
X45940Y21546D01*
X46096Y21390D01*
X46300Y21306D01*
X46520D01*
X46724Y21390D01*
X46880Y21546D01*
X46964Y21750D01*
Y21970D01*
X46880Y22174D01*
X46724Y22330D01*
X46520Y22414D01*
D02*
G37*
G36*
X79830Y32779D02*
X46393D01*
X46294Y32759D01*
X46210Y32703D01*
X46153Y32619D01*
X46134Y32520D01*
Y30230D01*
Y24860D01*
X46153Y24761D01*
X46210Y24677D01*
X46294Y24621D01*
X46393Y24601D01*
X57966D01*
X58065Y24621D01*
X58066Y24621D01*
X58206Y24480D01*
X58410Y24396D01*
X58630D01*
X58834Y24480D01*
X58974Y24621D01*
X58975Y24621D01*
X59074Y24601D01*
X64721D01*
Y21450D01*
X64741Y21351D01*
X64797Y21267D01*
X64881Y21211D01*
X64980Y21191D01*
X83440D01*
X83539Y21211D01*
X83623Y21267D01*
X83679Y21351D01*
X83699Y21450D01*
Y30230D01*
X83679Y30329D01*
X83623Y30413D01*
X83539Y30469D01*
X83440Y30489D01*
X80089D01*
Y32520D01*
X80069Y32619D01*
X80013Y32703D01*
X79929Y32759D01*
X79830Y32779D01*
D02*
G37*
G36*
X41280Y22204D02*
X41060D01*
X40856Y22120D01*
X40700Y21964D01*
X40616Y21760D01*
Y21540D01*
X40700Y21336D01*
X40856Y21180D01*
X41060Y21096D01*
X41280D01*
X41484Y21180D01*
X41640Y21336D01*
X41724Y21540D01*
Y21760D01*
X41640Y21964D01*
X41484Y22120D01*
X41280Y22204D01*
D02*
G37*
G36*
X8462Y22904D02*
X8185D01*
X7917Y22832D01*
X7676Y22693D01*
X7480Y22497D01*
X7341Y22257D01*
X7269Y21988D01*
Y21711D01*
X7341Y21443D01*
X7480Y21203D01*
X7676Y21006D01*
X7917Y20868D01*
X8185Y20796D01*
X8462D01*
X8730Y20868D01*
X8971Y21006D01*
X9167Y21203D01*
X9306Y21443D01*
X9377Y21711D01*
Y21988D01*
X9306Y22257D01*
X9167Y22497D01*
X8971Y22693D01*
X8730Y22832D01*
X8462Y22904D01*
D02*
G37*
G36*
X5962D02*
X5685D01*
X5417Y22832D01*
X5176Y22693D01*
X4980Y22497D01*
X4841Y22257D01*
X4769Y21988D01*
Y21711D01*
X4841Y21443D01*
X4980Y21203D01*
X5176Y21006D01*
X5417Y20868D01*
X5685Y20796D01*
X5962D01*
X6230Y20868D01*
X6471Y21006D01*
X6667Y21203D01*
X6806Y21443D01*
X6877Y21711D01*
Y21988D01*
X6806Y22257D01*
X6667Y22497D01*
X6471Y22693D01*
X6230Y22832D01*
X5962Y22904D01*
D02*
G37*
G36*
X52177Y20787D02*
Y20367D01*
X52597D01*
X52520Y20554D01*
X52364Y20710D01*
X52177Y20787D01*
D02*
G37*
G36*
X51923D02*
X51736Y20710D01*
X51580Y20554D01*
X51503Y20367D01*
X51923D01*
Y20787D01*
D02*
G37*
G36*
X47370Y21464D02*
X47150D01*
X46946Y21380D01*
X46790Y21224D01*
X46706Y21020D01*
Y20800D01*
X46790Y20596D01*
X46946Y20440D01*
X47150Y20356D01*
X47370D01*
X47574Y20440D01*
X47730Y20596D01*
X47814Y20800D01*
Y21020D01*
X47730Y21224D01*
X47574Y21380D01*
X47370Y21464D01*
D02*
G37*
G36*
X40080Y21264D02*
X39860D01*
X39656Y21180D01*
X39500Y21024D01*
X39416Y20820D01*
Y20600D01*
X39500Y20396D01*
X39656Y20240D01*
X39860Y20156D01*
X40080D01*
X40284Y20240D01*
X40440Y20396D01*
X40524Y20600D01*
Y20820D01*
X40440Y21024D01*
X40284Y21180D01*
X40080Y21264D01*
D02*
G37*
G36*
X58500Y21004D02*
X58280D01*
X58076Y20920D01*
X57920Y20764D01*
X57836Y20560D01*
Y20340D01*
X57920Y20136D01*
X58076Y19980D01*
X58280Y19896D01*
X58500D01*
X58704Y19980D01*
X58860Y20136D01*
X58944Y20340D01*
Y20560D01*
X58860Y20764D01*
X58704Y20920D01*
X58500Y21004D01*
D02*
G37*
G36*
X52597Y20113D02*
X52177D01*
Y19693D01*
X52364Y19770D01*
X52520Y19926D01*
X52597Y20113D01*
D02*
G37*
G36*
X51923D02*
X51503D01*
X51580Y19926D01*
X51736Y19770D01*
X51923Y19693D01*
Y20113D01*
D02*
G37*
G36*
X84000Y20474D02*
X83780D01*
X83576Y20390D01*
X83420Y20234D01*
X83336Y20030D01*
Y19810D01*
X83420Y19606D01*
X83576Y19450D01*
X83780Y19366D01*
X84000D01*
X84204Y19450D01*
X84360Y19606D01*
X84444Y19810D01*
Y20030D01*
X84360Y20234D01*
X84204Y20390D01*
X84000Y20474D01*
D02*
G37*
G36*
X48113Y20347D02*
X47893D01*
X47689Y20263D01*
X47533Y20107D01*
X47449Y19904D01*
Y19683D01*
X47533Y19480D01*
X47689Y19324D01*
X47893Y19239D01*
X48113D01*
X48317Y19324D01*
X48472Y19480D01*
X48557Y19683D01*
Y19904D01*
X48472Y20107D01*
X48317Y20263D01*
X48113Y20347D01*
D02*
G37*
G36*
X39351Y20068D02*
X39130D01*
X38927Y19983D01*
X38771Y19827D01*
X38686Y19624D01*
Y19403D01*
X38771Y19200D01*
X38927Y19044D01*
X39130Y18960D01*
X39351D01*
X39554Y19044D01*
X39710Y19200D01*
X39794Y19403D01*
Y19624D01*
X39710Y19827D01*
X39554Y19983D01*
X39351Y20068D01*
D02*
G37*
G36*
X87420Y19534D02*
X87200D01*
X86996Y19450D01*
X86840Y19294D01*
X86756Y19090D01*
Y18870D01*
X86840Y18666D01*
X86996Y18510D01*
X87200Y18426D01*
X87420D01*
X87624Y18510D01*
X87780Y18666D01*
X87864Y18870D01*
Y19090D01*
X87780Y19294D01*
X87624Y19450D01*
X87420Y19534D01*
D02*
G37*
G36*
X31220D02*
X31000D01*
X30796Y19450D01*
X30640Y19294D01*
X30556Y19090D01*
Y18870D01*
X30640Y18666D01*
X30796Y18510D01*
X31000Y18426D01*
X31220D01*
X31424Y18510D01*
X31580Y18666D01*
X31664Y18870D01*
Y19090D01*
X31580Y19294D01*
X31424Y19450D01*
X31220Y19534D01*
D02*
G37*
G36*
X49037Y19433D02*
X48816D01*
X48613Y19349D01*
X48457Y19193D01*
X48373Y18989D01*
Y18769D01*
X48457Y18565D01*
X48613Y18409D01*
X48816Y18325D01*
X49037D01*
X49240Y18409D01*
X49396Y18565D01*
X49481Y18769D01*
Y18989D01*
X49396Y19193D01*
X49240Y19349D01*
X49037Y19433D01*
D02*
G37*
G36*
X25520Y19014D02*
X25300D01*
X25096Y18930D01*
X24940Y18774D01*
X24856Y18570D01*
Y18350D01*
X24940Y18146D01*
X25096Y17990D01*
X25300Y17906D01*
X25520D01*
X25724Y17990D01*
X25880Y18146D01*
X25964Y18350D01*
Y18570D01*
X25880Y18774D01*
X25724Y18930D01*
X25520Y19014D01*
D02*
G37*
G36*
X38630Y18985D02*
X38410D01*
X38206Y18901D01*
X38050Y18745D01*
X37966Y18542D01*
Y18321D01*
X38050Y18118D01*
X38206Y17962D01*
X38410Y17877D01*
X38630D01*
X38834Y17962D01*
X38990Y18118D01*
X39074Y18321D01*
Y18542D01*
X38990Y18745D01*
X38834Y18901D01*
X38630Y18985D01*
D02*
G37*
G36*
X19060Y18954D02*
X18840D01*
X18636Y18870D01*
X18480Y18714D01*
X18396Y18510D01*
Y18290D01*
X18480Y18086D01*
X18636Y17930D01*
X18840Y17846D01*
X19060D01*
X19264Y17930D01*
X19420Y18086D01*
X19504Y18290D01*
Y18510D01*
X19420Y18714D01*
X19264Y18870D01*
X19060Y18954D01*
D02*
G37*
G36*
X46693Y18857D02*
X46473D01*
X46269Y18773D01*
X46113Y18617D01*
X46029Y18413D01*
Y18193D01*
X46113Y17989D01*
X46269Y17833D01*
X46473Y17749D01*
X46693D01*
X46897Y17833D01*
X47053Y17989D01*
X47137Y18193D01*
Y18413D01*
X47053Y18617D01*
X46897Y18773D01*
X46693Y18857D01*
D02*
G37*
G36*
X64550Y18534D02*
X64330D01*
X64126Y18450D01*
X63970Y18294D01*
X63886Y18090D01*
Y17870D01*
X63970Y17666D01*
X64126Y17510D01*
X64330Y17426D01*
X64550D01*
X64754Y17510D01*
X64910Y17666D01*
X64994Y17870D01*
Y18090D01*
X64910Y18294D01*
X64754Y18450D01*
X64550Y18534D01*
D02*
G37*
G36*
X40763Y18454D02*
X40543D01*
X40339Y18369D01*
X40183Y18214D01*
X40099Y18010D01*
Y17790D01*
X40183Y17586D01*
X40339Y17430D01*
X40543Y17346D01*
X40763D01*
X40967Y17430D01*
X41123Y17586D01*
X41207Y17790D01*
Y18010D01*
X41123Y18214D01*
X40967Y18369D01*
X40763Y18454D01*
D02*
G37*
G36*
X49670Y18298D02*
X49450D01*
X49246Y18213D01*
X49090Y18057D01*
X49006Y17854D01*
Y17633D01*
X49090Y17430D01*
X49246Y17274D01*
X49450Y17190D01*
X49670D01*
X49874Y17274D01*
X50030Y17430D01*
X50114Y17633D01*
Y17854D01*
X50030Y18057D01*
X49874Y18213D01*
X49670Y18298D01*
D02*
G37*
G36*
X79390Y18144D02*
X79170D01*
X78966Y18060D01*
X78810Y17904D01*
X78726Y17700D01*
Y17480D01*
X78810Y17276D01*
X78966Y17120D01*
X79170Y17036D01*
X79390D01*
X79594Y17120D01*
X79750Y17276D01*
X79834Y17480D01*
Y17700D01*
X79750Y17904D01*
X79594Y18060D01*
X79390Y18144D01*
D02*
G37*
G36*
X37835Y17957D02*
X37615D01*
X37411Y17873D01*
X37255Y17717D01*
X37171Y17513D01*
Y17293D01*
X37255Y17089D01*
X37411Y16933D01*
X37615Y16849D01*
X37835D01*
X38039Y16933D01*
X38195Y17089D01*
X38279Y17293D01*
Y17513D01*
X38195Y17717D01*
X38039Y17873D01*
X37835Y17957D01*
D02*
G37*
G36*
X47627Y17953D02*
X47407D01*
X47203Y17869D01*
X47047Y17713D01*
X46963Y17509D01*
Y17289D01*
X47047Y17085D01*
X47203Y16929D01*
X47407Y16845D01*
X47627D01*
X47831Y16929D01*
X47987Y17085D01*
X48071Y17289D01*
Y17509D01*
X47987Y17713D01*
X47831Y17869D01*
X47627Y17953D01*
D02*
G37*
G36*
X72330Y17924D02*
X72110D01*
X71906Y17840D01*
X71750Y17684D01*
X71666Y17480D01*
Y17260D01*
X71750Y17056D01*
X71906Y16900D01*
X72110Y16816D01*
X72330D01*
X72534Y16900D01*
X72690Y17056D01*
X72774Y17260D01*
Y17480D01*
X72690Y17684D01*
X72534Y17840D01*
X72330Y17924D01*
D02*
G37*
G36*
X39632Y17813D02*
X39412D01*
X39208Y17729D01*
X39052Y17573D01*
X38968Y17370D01*
Y17149D01*
X39052Y16946D01*
X39208Y16790D01*
X39412Y16705D01*
X39632D01*
X39836Y16790D01*
X39991Y16946D01*
X40076Y17149D01*
Y17370D01*
X39991Y17573D01*
X39836Y17729D01*
X39632Y17813D01*
D02*
G37*
G36*
X55680Y17594D02*
X55460D01*
X55256Y17510D01*
X55100Y17354D01*
X55016Y17150D01*
Y16930D01*
X55100Y16726D01*
X55256Y16570D01*
X55460Y16486D01*
X55680D01*
X55884Y16570D01*
X56040Y16726D01*
X56124Y16930D01*
Y17150D01*
X56040Y17354D01*
X55884Y17510D01*
X55680Y17594D01*
D02*
G37*
G36*
X50459Y17264D02*
X50239D01*
X50035Y17180D01*
X49879Y17024D01*
X49795Y16821D01*
Y16600D01*
X49879Y16397D01*
X50035Y16241D01*
X50239Y16156D01*
X50459D01*
X50663Y16241D01*
X50819Y16397D01*
X50903Y16600D01*
Y16821D01*
X50819Y17024D01*
X50663Y17180D01*
X50459Y17264D01*
D02*
G37*
G36*
X34090Y17224D02*
X33870D01*
X33666Y17140D01*
X33510Y16984D01*
X33426Y16780D01*
Y16560D01*
X33510Y16356D01*
X33666Y16200D01*
X33870Y16116D01*
X34090D01*
X34294Y16200D01*
X34450Y16356D01*
X34534Y16560D01*
Y16780D01*
X34450Y16984D01*
X34294Y17140D01*
X34090Y17224D01*
D02*
G37*
G36*
X48649Y17149D02*
X48429D01*
X48225Y17065D01*
X48069Y16909D01*
X47985Y16705D01*
Y16485D01*
X48069Y16281D01*
X48225Y16126D01*
X48429Y16041D01*
X48649D01*
X48853Y16126D01*
X49009Y16281D01*
X49093Y16485D01*
Y16705D01*
X49009Y16909D01*
X48853Y17065D01*
X48649Y17149D01*
D02*
G37*
G36*
X22690Y16974D02*
X22470D01*
X22266Y16890D01*
X22110Y16734D01*
X22026Y16530D01*
Y16310D01*
X22110Y16106D01*
X22266Y15950D01*
X22470Y15866D01*
X22690D01*
X22894Y15950D01*
X23050Y16106D01*
X23134Y16310D01*
Y16530D01*
X23050Y16734D01*
X22894Y16890D01*
X22690Y16974D01*
D02*
G37*
G36*
X16230Y16914D02*
X16010D01*
X15806Y16830D01*
X15650Y16674D01*
X15566Y16470D01*
Y16250D01*
X15650Y16046D01*
X15806Y15890D01*
X16010Y15806D01*
X16230D01*
X16434Y15890D01*
X16590Y16046D01*
X16674Y16250D01*
Y16470D01*
X16590Y16674D01*
X16434Y16830D01*
X16230Y16914D01*
D02*
G37*
G36*
X37149Y16853D02*
X36928D01*
X36725Y16769D01*
X36569Y16613D01*
X36484Y16409D01*
Y16189D01*
X36569Y15985D01*
X36725Y15829D01*
X36928Y15745D01*
X37149D01*
X37352Y15829D01*
X37508Y15985D01*
X37592Y16189D01*
Y16409D01*
X37508Y16613D01*
X37352Y16769D01*
X37149Y16853D01*
D02*
G37*
G36*
X38870Y16760D02*
X38650D01*
X38446Y16676D01*
X38290Y16520D01*
X38206Y16316D01*
Y16096D01*
X38290Y15892D01*
X38446Y15736D01*
X38650Y15652D01*
X38870D01*
X39074Y15736D01*
X39230Y15892D01*
X39314Y16096D01*
Y16316D01*
X39230Y16520D01*
X39074Y16676D01*
X38870Y16760D01*
D02*
G37*
G36*
X51169Y16175D02*
X50948D01*
X50745Y16091D01*
X50589Y15935D01*
X50505Y15731D01*
Y15511D01*
X50589Y15307D01*
X50745Y15151D01*
X50948Y15067D01*
X51169D01*
X51372Y15151D01*
X51528Y15307D01*
X51613Y15511D01*
Y15731D01*
X51528Y15935D01*
X51372Y16091D01*
X51169Y16175D01*
D02*
G37*
G36*
X28400Y16124D02*
X28180D01*
X27976Y16040D01*
X27820Y15884D01*
X27736Y15680D01*
Y15460D01*
X27820Y15256D01*
X27976Y15100D01*
X28180Y15016D01*
X28400D01*
X28604Y15100D01*
X28760Y15256D01*
X28844Y15460D01*
Y15680D01*
X28760Y15884D01*
X28604Y16040D01*
X28400Y16124D01*
D02*
G37*
G36*
X76560Y16104D02*
X76340D01*
X76136Y16020D01*
X75980Y15864D01*
X75896Y15660D01*
Y15440D01*
X75980Y15236D01*
X76136Y15080D01*
X76340Y14996D01*
X76560D01*
X76764Y15080D01*
X76920Y15236D01*
X77004Y15440D01*
Y15660D01*
X76920Y15864D01*
X76764Y16020D01*
X76560Y16104D01*
D02*
G37*
G36*
X49419Y16102D02*
X49199D01*
X48995Y16017D01*
X48839Y15862D01*
X48755Y15658D01*
Y15438D01*
X48839Y15234D01*
X48995Y15078D01*
X49199Y14994D01*
X49419D01*
X49623Y15078D01*
X49779Y15234D01*
X49863Y15438D01*
Y15658D01*
X49779Y15862D01*
X49623Y16017D01*
X49419Y16102D01*
D02*
G37*
G36*
X69500Y15884D02*
X69280D01*
X69076Y15800D01*
X68920Y15644D01*
X68836Y15440D01*
Y15220D01*
X68920Y15016D01*
X69076Y14860D01*
X69280Y14776D01*
X69500D01*
X69704Y14860D01*
X69860Y15016D01*
X69944Y15220D01*
Y15440D01*
X69860Y15644D01*
X69704Y15800D01*
X69500Y15884D01*
D02*
G37*
G36*
X45790Y15794D02*
X45570D01*
X45366Y15710D01*
X45210Y15554D01*
X45126Y15350D01*
Y15130D01*
X45210Y14926D01*
X45366Y14770D01*
X45570Y14686D01*
X45790D01*
X45994Y14770D01*
X46150Y14926D01*
X46234Y15130D01*
Y15350D01*
X46150Y15554D01*
X45994Y15710D01*
X45790Y15794D01*
D02*
G37*
G36*
X42370Y15764D02*
X42150D01*
X41946Y15680D01*
X41790Y15524D01*
X41706Y15320D01*
Y15100D01*
X41790Y14896D01*
X41946Y14740D01*
X42150Y14656D01*
X42370D01*
X42574Y14740D01*
X42730Y14896D01*
X42814Y15100D01*
Y15320D01*
X42730Y15524D01*
X42574Y15680D01*
X42370Y15764D01*
D02*
G37*
G36*
X36592Y15678D02*
X36372D01*
X36168Y15594D01*
X36012Y15438D01*
X35928Y15234D01*
Y15014D01*
X36012Y14810D01*
X36168Y14654D01*
X36372Y14570D01*
X36592D01*
X36796Y14654D01*
X36952Y14810D01*
X37036Y15014D01*
Y15234D01*
X36952Y15438D01*
X36796Y15594D01*
X36592Y15678D01*
D02*
G37*
G36*
X38217Y15636D02*
X37997D01*
X37793Y15551D01*
X37637Y15396D01*
X37553Y15192D01*
Y14972D01*
X37637Y14768D01*
X37793Y14612D01*
X37997Y14528D01*
X38217D01*
X38421Y14612D01*
X38577Y14768D01*
X38661Y14972D01*
Y15192D01*
X38577Y15396D01*
X38421Y15551D01*
X38217Y15636D01*
D02*
G37*
G36*
X51801Y15039D02*
X51581D01*
X51377Y14955D01*
X51221Y14799D01*
X51137Y14596D01*
Y14375D01*
X51221Y14172D01*
X51377Y14016D01*
X51581Y13931D01*
X51801D01*
X52005Y14016D01*
X52161Y14172D01*
X52245Y14375D01*
Y14596D01*
X52161Y14799D01*
X52005Y14955D01*
X51801Y15039D01*
D02*
G37*
G36*
X50101Y14995D02*
X49880D01*
X49677Y14910D01*
X49521Y14755D01*
X49437Y14551D01*
Y14331D01*
X49521Y14127D01*
X49677Y13971D01*
X49880Y13887D01*
X50101D01*
X50304Y13971D01*
X50460Y14127D01*
X50545Y14331D01*
Y14551D01*
X50460Y14755D01*
X50304Y14910D01*
X50101Y14995D01*
D02*
G37*
G36*
X60232Y18124D02*
X59788D01*
X59353Y18037D01*
X58942Y17867D01*
X58573Y17621D01*
X58259Y17307D01*
X58013Y16938D01*
X57843Y16527D01*
X57756Y16092D01*
Y15648D01*
X57843Y15213D01*
X58013Y14802D01*
X58259Y14433D01*
X58573Y14119D01*
X58942Y13873D01*
X59353Y13703D01*
X59788Y13616D01*
X60232D01*
X60667Y13703D01*
X61078Y13873D01*
X61447Y14119D01*
X61761Y14433D01*
X62007Y14802D01*
X62177Y15213D01*
X62264Y15648D01*
Y16092D01*
X62177Y16527D01*
X62007Y16938D01*
X61761Y17307D01*
X61447Y17621D01*
X61078Y17867D01*
X60667Y18037D01*
X60232Y18124D01*
D02*
G37*
G36*
X25390Y14514D02*
X25170D01*
X24966Y14430D01*
X24810Y14274D01*
X24726Y14070D01*
Y13850D01*
X24810Y13646D01*
X24966Y13490D01*
X25170Y13406D01*
X25390D01*
X25594Y13490D01*
X25750Y13646D01*
X25834Y13850D01*
Y14070D01*
X25750Y14274D01*
X25594Y14430D01*
X25390Y14514D01*
D02*
G37*
G36*
X36138Y14460D02*
X35918D01*
X35714Y14376D01*
X35558Y14220D01*
X35474Y14016D01*
Y13796D01*
X35558Y13592D01*
X35714Y13436D01*
X35918Y13352D01*
X36138D01*
X36342Y13436D01*
X36498Y13592D01*
X36582Y13796D01*
Y14016D01*
X36498Y14220D01*
X36342Y14376D01*
X36138Y14460D01*
D02*
G37*
G36*
X18930Y14454D02*
X18710D01*
X18506Y14370D01*
X18350Y14214D01*
X18266Y14010D01*
Y13790D01*
X18350Y13586D01*
X18506Y13430D01*
X18710Y13346D01*
X18930D01*
X19134Y13430D01*
X19290Y13586D01*
X19374Y13790D01*
Y14010D01*
X19290Y14214D01*
X19134Y14370D01*
X18930Y14454D01*
D02*
G37*
G36*
X37727Y14432D02*
X37506D01*
X37303Y14348D01*
X37147Y14192D01*
X37063Y13988D01*
Y13768D01*
X37147Y13564D01*
X37303Y13408D01*
X37506Y13324D01*
X37727D01*
X37930Y13408D01*
X38086Y13564D01*
X38171Y13768D01*
Y13988D01*
X38086Y14192D01*
X37930Y14348D01*
X37727Y14432D01*
D02*
G37*
G36*
X64420Y14034D02*
X64200D01*
X63996Y13950D01*
X63840Y13794D01*
X63756Y13590D01*
Y13370D01*
X63840Y13166D01*
X63996Y13010D01*
X64200Y12926D01*
X64420D01*
X64624Y13010D01*
X64780Y13166D01*
X64864Y13370D01*
Y13590D01*
X64780Y13794D01*
X64624Y13950D01*
X64420Y14034D01*
D02*
G37*
G36*
X52299Y13839D02*
X52079D01*
X51875Y13754D01*
X51720Y13598D01*
X51635Y13395D01*
Y13174D01*
X51720Y12971D01*
X51875Y12815D01*
X52079Y12731D01*
X52299D01*
X52503Y12815D01*
X52659Y12971D01*
X52743Y13174D01*
Y13395D01*
X52659Y13598D01*
X52503Y13754D01*
X52299Y13839D01*
D02*
G37*
G36*
X50679Y13830D02*
X50458D01*
X50255Y13746D01*
X50099Y13590D01*
X50015Y13387D01*
Y13166D01*
X50099Y12963D01*
X50255Y12807D01*
X50458Y12722D01*
X50679D01*
X50882Y12807D01*
X51038Y12963D01*
X51123Y13166D01*
Y13387D01*
X51038Y13590D01*
X50882Y13746D01*
X50679Y13830D01*
D02*
G37*
G36*
X31110Y13734D02*
X30890D01*
X30686Y13650D01*
X30530Y13494D01*
X30446Y13290D01*
Y13070D01*
X30530Y12866D01*
X30686Y12710D01*
X30890Y12626D01*
X31110D01*
X31314Y12710D01*
X31470Y12866D01*
X31554Y13070D01*
Y13290D01*
X31470Y13494D01*
X31314Y13650D01*
X31110Y13734D01*
D02*
G37*
G36*
X79260Y13644D02*
X79040D01*
X78836Y13560D01*
X78680Y13404D01*
X78596Y13200D01*
Y12980D01*
X78680Y12776D01*
X78836Y12620D01*
X79040Y12536D01*
X79260D01*
X79464Y12620D01*
X79620Y12776D01*
X79704Y12980D01*
Y13200D01*
X79620Y13404D01*
X79464Y13560D01*
X79260Y13644D01*
D02*
G37*
G36*
X72200Y13424D02*
X71980D01*
X71776Y13340D01*
X71620Y13184D01*
X71536Y12980D01*
Y12760D01*
X71620Y12556D01*
X71776Y12400D01*
X71980Y12316D01*
X72200D01*
X72404Y12400D01*
X72560Y12556D01*
X72644Y12760D01*
Y12980D01*
X72560Y13184D01*
X72404Y13340D01*
X72200Y13424D01*
D02*
G37*
G36*
X35775Y13212D02*
X35554D01*
X35351Y13127D01*
X35195Y12972D01*
X35111Y12768D01*
Y12548D01*
X35195Y12344D01*
X35351Y12188D01*
X35554Y12104D01*
X35775D01*
X35978Y12188D01*
X36134Y12344D01*
X36219Y12548D01*
Y12768D01*
X36134Y12972D01*
X35978Y13127D01*
X35775Y13212D01*
D02*
G37*
G36*
X37335Y13192D02*
X37114D01*
X36911Y13108D01*
X36755Y12952D01*
X36670Y12749D01*
Y12528D01*
X36755Y12325D01*
X36911Y12169D01*
X37114Y12084D01*
X37335D01*
X37538Y12169D01*
X37694Y12325D01*
X37778Y12528D01*
Y12749D01*
X37694Y12952D01*
X37538Y13108D01*
X37335Y13192D01*
D02*
G37*
G36*
X55800Y12694D02*
X55580D01*
X55376Y12610D01*
X55220Y12454D01*
X55136Y12250D01*
Y12030D01*
X55220Y11826D01*
X55376Y11670D01*
X55580Y11586D01*
X55800D01*
X56004Y11670D01*
X56160Y11826D01*
X56244Y12030D01*
Y12250D01*
X56160Y12454D01*
X56004Y12610D01*
X55800Y12694D01*
D02*
G37*
G36*
X51123Y12609D02*
X50903D01*
X50699Y12524D01*
X50543Y12369D01*
X50459Y12165D01*
Y11945D01*
X50543Y11741D01*
X50699Y11585D01*
X50903Y11501D01*
X51123D01*
X51327Y11585D01*
X51483Y11741D01*
X51567Y11945D01*
Y12165D01*
X51483Y12369D01*
X51327Y12524D01*
X51123Y12609D01*
D02*
G37*
G36*
X52708Y12605D02*
X52488D01*
X52284Y12520D01*
X52128Y12364D01*
X52044Y12161D01*
Y11940D01*
X52128Y11737D01*
X52284Y11581D01*
X52488Y11497D01*
X52708D01*
X52912Y11581D01*
X53068Y11737D01*
X53152Y11940D01*
Y12161D01*
X53068Y12364D01*
X52912Y12520D01*
X52708Y12605D01*
D02*
G37*
G36*
X35504Y11940D02*
X35283D01*
X35080Y11856D01*
X34924Y11700D01*
X34840Y11496D01*
Y11276D01*
X34924Y11072D01*
X35080Y10917D01*
X35283Y10832D01*
X35504D01*
X35707Y10917D01*
X35863Y11072D01*
X35948Y11276D01*
Y11496D01*
X35863Y11700D01*
X35707Y11856D01*
X35504Y11940D01*
D02*
G37*
G36*
X37042Y11926D02*
X36821D01*
X36618Y11842D01*
X36462Y11686D01*
X36378Y11482D01*
Y11262D01*
X36462Y11058D01*
X36618Y10902D01*
X36821Y10818D01*
X37042D01*
X37245Y10902D01*
X37401Y11058D01*
X37486Y11262D01*
Y11482D01*
X37401Y11686D01*
X37245Y11842D01*
X37042Y11926D01*
D02*
G37*
G36*
X47220Y11854D02*
X47000D01*
X46796Y11770D01*
X46640Y11614D01*
X46556Y11410D01*
Y11190D01*
X46640Y10986D01*
X46796Y10830D01*
X47000Y10746D01*
X47220D01*
X47424Y10830D01*
X47580Y10986D01*
X47664Y11190D01*
Y11410D01*
X47580Y11614D01*
X47424Y11770D01*
X47220Y11854D01*
D02*
G37*
G36*
X40930Y11494D02*
X40710D01*
X40506Y11410D01*
X40350Y11254D01*
X40266Y11050D01*
Y10830D01*
X40350Y10626D01*
X40506Y10470D01*
X40710Y10386D01*
X40930D01*
X41134Y10470D01*
X41290Y10626D01*
X41374Y10830D01*
Y11050D01*
X41290Y11254D01*
X41134Y11410D01*
X40930Y11494D01*
D02*
G37*
G36*
X51466Y11355D02*
X51245D01*
X51042Y11270D01*
X50886Y11114D01*
X50802Y10911D01*
Y10690D01*
X50886Y10487D01*
X51042Y10331D01*
X51245Y10247D01*
X51466D01*
X51669Y10331D01*
X51825Y10487D01*
X51910Y10690D01*
Y10911D01*
X51825Y11114D01*
X51669Y11270D01*
X51466Y11355D01*
D02*
G37*
G36*
X53020Y11342D02*
X52799D01*
X52596Y11258D01*
X52440Y11102D01*
X52356Y10899D01*
Y10678D01*
X52440Y10475D01*
X52596Y10319D01*
X52799Y10234D01*
X53020D01*
X53223Y10319D01*
X53379Y10475D01*
X53464Y10678D01*
Y10899D01*
X53379Y11102D01*
X53223Y11258D01*
X53020Y11342D01*
D02*
G37*
G36*
X28520Y11224D02*
X28300D01*
X28096Y11140D01*
X27940Y10984D01*
X27856Y10780D01*
Y10560D01*
X27940Y10356D01*
X28096Y10200D01*
X28300Y10116D01*
X28520D01*
X28724Y10200D01*
X28880Y10356D01*
X28964Y10560D01*
Y10780D01*
X28880Y10984D01*
X28724Y11140D01*
X28520Y11224D01*
D02*
G37*
G36*
X22570Y11104D02*
X22350D01*
X22146Y11020D01*
X21990Y10864D01*
X21906Y10660D01*
Y10440D01*
X21990Y10236D01*
X22146Y10080D01*
X22350Y9996D01*
X22570D01*
X22774Y10080D01*
X22930Y10236D01*
X23014Y10440D01*
Y10660D01*
X22930Y10864D01*
X22774Y11020D01*
X22570Y11104D01*
D02*
G37*
G36*
X16110Y11044D02*
X15890D01*
X15686Y10960D01*
X15530Y10804D01*
X15446Y10600D01*
Y10380D01*
X15530Y10176D01*
X15686Y10020D01*
X15890Y9936D01*
X16110D01*
X16314Y10020D01*
X16470Y10176D01*
X16554Y10380D01*
Y10600D01*
X16470Y10804D01*
X16314Y10960D01*
X16110Y11044D01*
D02*
G37*
G36*
X35327Y10652D02*
X35106D01*
X34903Y10568D01*
X34747Y10412D01*
X34662Y10209D01*
Y9988D01*
X34747Y9785D01*
X34903Y9629D01*
X35106Y9544D01*
X35327D01*
X35530Y9629D01*
X35686Y9785D01*
X35770Y9988D01*
Y10209D01*
X35686Y10412D01*
X35530Y10568D01*
X35327Y10652D01*
D02*
G37*
G36*
X36850Y10640D02*
X36630D01*
X36426Y10556D01*
X36270Y10400D01*
X36186Y10196D01*
Y9976D01*
X36270Y9772D01*
X36426Y9616D01*
X36630Y9532D01*
X36850D01*
X37054Y9616D01*
X37210Y9772D01*
X37294Y9976D01*
Y10196D01*
X37210Y10400D01*
X37054Y10556D01*
X36850Y10640D01*
D02*
G37*
G36*
X61600Y10624D02*
X61380D01*
X61176Y10540D01*
X61020Y10384D01*
X60936Y10180D01*
Y9960D01*
X61020Y9756D01*
X61176Y9600D01*
X61380Y9516D01*
X61600D01*
X61804Y9600D01*
X61960Y9756D01*
X62044Y9960D01*
Y10180D01*
X61960Y10384D01*
X61804Y10540D01*
X61600Y10624D01*
D02*
G37*
G36*
X58340Y10254D02*
X58120D01*
X57916Y10170D01*
X57760Y10014D01*
X57676Y9810D01*
Y9590D01*
X57760Y9386D01*
X57916Y9230D01*
X58120Y9146D01*
X58340D01*
X58544Y9230D01*
X58700Y9386D01*
X58784Y9590D01*
Y9810D01*
X58700Y10014D01*
X58544Y10170D01*
X58340Y10254D01*
D02*
G37*
G36*
X76440Y10234D02*
X76220D01*
X76016Y10150D01*
X75860Y9994D01*
X75776Y9790D01*
Y9570D01*
X75860Y9366D01*
X76016Y9210D01*
X76220Y9126D01*
X76440D01*
X76644Y9210D01*
X76800Y9366D01*
X76884Y9570D01*
Y9790D01*
X76800Y9994D01*
X76644Y10150D01*
X76440Y10234D01*
D02*
G37*
G36*
X51704Y10077D02*
X51483D01*
X51280Y9992D01*
X51124Y9836D01*
X51040Y9633D01*
Y9412D01*
X51124Y9209D01*
X51280Y9053D01*
X51483Y8969D01*
X51704D01*
X51907Y9053D01*
X52063Y9209D01*
X52148Y9412D01*
Y9633D01*
X52063Y9836D01*
X51907Y9992D01*
X51704Y10077D01*
D02*
G37*
G36*
X53236Y10061D02*
X53015D01*
X52812Y9976D01*
X52656Y9820D01*
X52572Y9617D01*
Y9396D01*
X52656Y9193D01*
X52812Y9037D01*
X53015Y8953D01*
X53236D01*
X53439Y9037D01*
X53595Y9193D01*
X53680Y9396D01*
Y9617D01*
X53595Y9820D01*
X53439Y9976D01*
X53236Y10061D01*
D02*
G37*
G36*
X69380Y10014D02*
X69160D01*
X68956Y9930D01*
X68800Y9774D01*
X68716Y9570D01*
Y9350D01*
X68800Y9146D01*
X68956Y8990D01*
X69160Y8906D01*
X69380D01*
X69584Y8990D01*
X69740Y9146D01*
X69824Y9350D01*
Y9570D01*
X69740Y9774D01*
X69584Y9930D01*
X69380Y10014D01*
D02*
G37*
G36*
X35245Y9355D02*
X35025D01*
X34821Y9271D01*
X34665Y9115D01*
X34581Y8911D01*
Y8691D01*
X34665Y8487D01*
X34821Y8331D01*
X35025Y8247D01*
X35245D01*
X35449Y8331D01*
X35604Y8487D01*
X35689Y8691D01*
Y8911D01*
X35604Y9115D01*
X35449Y9271D01*
X35245Y9355D01*
D02*
G37*
G36*
X36772Y9342D02*
X36552D01*
X36348Y9258D01*
X36193Y9102D01*
X36108Y8899D01*
Y8678D01*
X36193Y8475D01*
X36348Y8319D01*
X36552Y8234D01*
X36772D01*
X36976Y8319D01*
X37132Y8475D01*
X37216Y8678D01*
Y8899D01*
X37132Y9102D01*
X36976Y9258D01*
X36772Y9342D01*
D02*
G37*
G36*
X44050Y8784D02*
X43830D01*
X43626Y8700D01*
X43470Y8544D01*
X43386Y8340D01*
Y8120D01*
X43470Y7916D01*
X43626Y7760D01*
X43830Y7676D01*
X44050D01*
X44254Y7760D01*
X44410Y7916D01*
X44494Y8120D01*
Y8340D01*
X44410Y8544D01*
X44254Y8700D01*
X44050Y8784D01*
D02*
G37*
G36*
X51836Y8783D02*
X51615D01*
X51412Y8699D01*
X51256Y8543D01*
X51172Y8340D01*
Y8119D01*
X51256Y7916D01*
X51412Y7760D01*
X51615Y7675D01*
X51836D01*
X52039Y7760D01*
X52195Y7916D01*
X52280Y8119D01*
Y8340D01*
X52195Y8543D01*
X52039Y8699D01*
X51836Y8783D01*
D02*
G37*
G36*
X53355Y8766D02*
X53134D01*
X52931Y8682D01*
X52775Y8526D01*
X52691Y8322D01*
Y8102D01*
X52775Y7898D01*
X52931Y7742D01*
X53134Y7658D01*
X53355D01*
X53558Y7742D01*
X53714Y7898D01*
X53799Y8102D01*
Y8322D01*
X53714Y8526D01*
X53558Y8682D01*
X53355Y8766D01*
D02*
G37*
G36*
X25280Y8714D02*
X25060D01*
X24856Y8630D01*
X24700Y8474D01*
X24616Y8270D01*
Y8050D01*
X24700Y7846D01*
X24856Y7690D01*
X25060Y7606D01*
X25280D01*
X25484Y7690D01*
X25640Y7846D01*
X25724Y8050D01*
Y8270D01*
X25640Y8474D01*
X25484Y8630D01*
X25280Y8714D01*
D02*
G37*
G36*
X18820Y8654D02*
X18600D01*
X18396Y8570D01*
X18240Y8414D01*
X18156Y8210D01*
Y7990D01*
X18240Y7786D01*
X18396Y7630D01*
X18600Y7546D01*
X18820D01*
X19024Y7630D01*
X19180Y7786D01*
X19264Y7990D01*
Y8210D01*
X19180Y8414D01*
X19024Y8570D01*
X18820Y8654D01*
D02*
G37*
G36*
X64310Y8234D02*
X64090D01*
X63886Y8150D01*
X63730Y7994D01*
X63646Y7790D01*
Y7570D01*
X63730Y7366D01*
X63886Y7210D01*
X64090Y7126D01*
X64310D01*
X64514Y7210D01*
X64670Y7366D01*
X64754Y7570D01*
Y7790D01*
X64670Y7994D01*
X64514Y8150D01*
X64310Y8234D01*
D02*
G37*
G36*
X35245Y8055D02*
X35025D01*
X34821Y7971D01*
X34665Y7815D01*
X34581Y7611D01*
Y7391D01*
X34665Y7187D01*
X34821Y7031D01*
X35025Y6947D01*
X35245D01*
X35449Y7031D01*
X35604Y7187D01*
X35689Y7391D01*
Y7611D01*
X35604Y7815D01*
X35449Y7971D01*
X35245Y8055D01*
D02*
G37*
G36*
X56170Y8054D02*
X55950D01*
X55746Y7970D01*
X55590Y7814D01*
X55506Y7610D01*
Y7390D01*
X55590Y7186D01*
X55746Y7030D01*
X55950Y6946D01*
X56170D01*
X56374Y7030D01*
X56530Y7186D01*
X56614Y7390D01*
Y7610D01*
X56530Y7814D01*
X56374Y7970D01*
X56170Y8054D01*
D02*
G37*
G36*
X57690Y8044D02*
X57470D01*
X57266Y7960D01*
X57110Y7804D01*
X57026Y7600D01*
Y7380D01*
X57110Y7176D01*
X57266Y7020D01*
X57470Y6936D01*
X57690D01*
X57894Y7020D01*
X58050Y7176D01*
X58134Y7380D01*
Y7600D01*
X58050Y7804D01*
X57894Y7960D01*
X57690Y8044D01*
D02*
G37*
G36*
X48990D02*
X48770D01*
X48566Y7960D01*
X48410Y7804D01*
X48326Y7600D01*
Y7380D01*
X48410Y7176D01*
X48566Y7020D01*
X48770Y6936D01*
X48990D01*
X49194Y7020D01*
X49350Y7176D01*
X49434Y7380D01*
Y7600D01*
X49350Y7804D01*
X49194Y7960D01*
X48990Y8044D01*
D02*
G37*
G36*
X36772Y8042D02*
X36552D01*
X36348Y7958D01*
X36193Y7802D01*
X36108Y7599D01*
Y7378D01*
X36193Y7175D01*
X36348Y7019D01*
X36552Y6934D01*
X36772D01*
X36976Y7019D01*
X37132Y7175D01*
X37216Y7378D01*
Y7599D01*
X37132Y7802D01*
X36976Y7958D01*
X36772Y8042D01*
D02*
G37*
G36*
X47470Y8034D02*
X47250D01*
X47046Y7950D01*
X46890Y7794D01*
X46806Y7590D01*
Y7370D01*
X46890Y7166D01*
X47046Y7010D01*
X47250Y6926D01*
X47470D01*
X47674Y7010D01*
X47830Y7166D01*
X47914Y7370D01*
Y7590D01*
X47830Y7794D01*
X47674Y7950D01*
X47470Y8034D01*
D02*
G37*
G36*
X39450Y7964D02*
X39230D01*
X39026Y7880D01*
X38870Y7724D01*
X38786Y7520D01*
Y7300D01*
X38870Y7096D01*
X39026Y6940D01*
X39230Y6856D01*
X39450D01*
X39654Y6940D01*
X39810Y7096D01*
X39894Y7300D01*
Y7520D01*
X39810Y7724D01*
X39654Y7880D01*
X39450Y7964D01*
D02*
G37*
G36*
X40970Y7954D02*
X40750D01*
X40546Y7870D01*
X40390Y7714D01*
X40306Y7510D01*
Y7290D01*
X40390Y7086D01*
X40546Y6930D01*
X40750Y6846D01*
X40970D01*
X41174Y6930D01*
X41330Y7086D01*
X41414Y7290D01*
Y7510D01*
X41330Y7714D01*
X41174Y7870D01*
X40970Y7954D01*
D02*
G37*
G36*
X30960Y7894D02*
X30740D01*
X30536Y7810D01*
X30380Y7654D01*
X30296Y7450D01*
Y7230D01*
X30380Y7026D01*
X30536Y6870D01*
X30740Y6786D01*
X30960D01*
X31164Y6870D01*
X31320Y7026D01*
X31404Y7230D01*
Y7450D01*
X31320Y7654D01*
X31164Y7810D01*
X30960Y7894D01*
D02*
G37*
G36*
X32480Y7864D02*
X32260D01*
X32056Y7780D01*
X31900Y7624D01*
X31816Y7420D01*
Y7200D01*
X31900Y6996D01*
X32056Y6840D01*
X32260Y6756D01*
X32480D01*
X32684Y6840D01*
X32840Y6996D01*
X32924Y7200D01*
Y7420D01*
X32840Y7624D01*
X32684Y7780D01*
X32480Y7864D01*
D02*
G37*
G36*
X79150Y7844D02*
X78930D01*
X78726Y7760D01*
X78570Y7604D01*
X78486Y7400D01*
Y7180D01*
X78570Y6976D01*
X78726Y6820D01*
X78930Y6736D01*
X79150D01*
X79354Y6820D01*
X79510Y6976D01*
X79594Y7180D01*
Y7400D01*
X79510Y7604D01*
X79354Y7760D01*
X79150Y7844D01*
D02*
G37*
G36*
X72090Y7624D02*
X71870D01*
X71666Y7540D01*
X71510Y7384D01*
X71426Y7180D01*
Y6960D01*
X71510Y6756D01*
X71666Y6600D01*
X71870Y6516D01*
X72090D01*
X72294Y6600D01*
X72450Y6756D01*
X72534Y6960D01*
Y7180D01*
X72450Y7384D01*
X72294Y7540D01*
X72090Y7624D01*
D02*
G37*
G36*
X51650Y7497D02*
X51429D01*
X51226Y7412D01*
X51070Y7257D01*
X50985Y7053D01*
Y6833D01*
X51070Y6629D01*
X51226Y6473D01*
X51429Y6389D01*
X51650D01*
X51853Y6473D01*
X52009Y6629D01*
X52093Y6833D01*
Y7053D01*
X52009Y7257D01*
X51853Y7412D01*
X51650Y7497D01*
D02*
G37*
G36*
X53584Y7486D02*
X53363D01*
X53160Y7402D01*
X53004Y7246D01*
X52919Y7042D01*
Y6822D01*
X53004Y6618D01*
X53160Y6463D01*
X53363Y6378D01*
X53584D01*
X53787Y6463D01*
X53943Y6618D01*
X54027Y6822D01*
Y7042D01*
X53943Y7246D01*
X53787Y7402D01*
X53584Y7486D01*
D02*
G37*
G36*
X58810Y7044D02*
X58590D01*
X58386Y6960D01*
X58230Y6804D01*
X58146Y6600D01*
Y6380D01*
X58230Y6176D01*
X58386Y6020D01*
X58590Y5936D01*
X58810D01*
X59014Y6020D01*
X59170Y6176D01*
X59254Y6380D01*
Y6600D01*
X59170Y6804D01*
X59014Y6960D01*
X58810Y7044D01*
D02*
G37*
G36*
X46350Y7034D02*
X46130D01*
X45926Y6950D01*
X45770Y6794D01*
X45686Y6590D01*
Y6370D01*
X45770Y6166D01*
X45926Y6010D01*
X46130Y5926D01*
X46350D01*
X46554Y6010D01*
X46710Y6166D01*
X46794Y6370D01*
Y6590D01*
X46710Y6794D01*
X46554Y6950D01*
X46350Y7034D01*
D02*
G37*
G36*
X42090Y6954D02*
X41870D01*
X41666Y6870D01*
X41510Y6714D01*
X41426Y6510D01*
Y6290D01*
X41510Y6086D01*
X41666Y5930D01*
X41870Y5846D01*
X42090D01*
X42294Y5930D01*
X42450Y6086D01*
X42534Y6290D01*
Y6510D01*
X42450Y6714D01*
X42294Y6870D01*
X42090Y6954D01*
D02*
G37*
G36*
X29840Y6854D02*
X29620D01*
X29416Y6770D01*
X29260Y6614D01*
X29176Y6410D01*
Y6190D01*
X29260Y5986D01*
X29416Y5830D01*
X29620Y5746D01*
X29840D01*
X30044Y5830D01*
X30200Y5986D01*
X30284Y6190D01*
Y6410D01*
X30200Y6614D01*
X30044Y6770D01*
X29840Y6854D01*
D02*
G37*
G36*
X34769Y6845D02*
X34548D01*
X34345Y6761D01*
X34189Y6605D01*
X34104Y6402D01*
Y6181D01*
X34189Y5978D01*
X34345Y5822D01*
X34548Y5737D01*
X34769D01*
X34972Y5822D01*
X35128Y5978D01*
X35213Y6181D01*
Y6402D01*
X35128Y6605D01*
X34972Y6761D01*
X34769Y6845D01*
D02*
G37*
G36*
X37249Y6833D02*
X37028D01*
X36825Y6748D01*
X36669Y6593D01*
X36584Y6389D01*
Y6169D01*
X36669Y5965D01*
X36825Y5809D01*
X37028Y5725D01*
X37249D01*
X37452Y5809D01*
X37608Y5965D01*
X37692Y6169D01*
Y6389D01*
X37608Y6593D01*
X37452Y6748D01*
X37249Y6833D01*
D02*
G37*
G36*
X51369Y6227D02*
X51148D01*
X50945Y6143D01*
X50789Y5987D01*
X50704Y5784D01*
Y5563D01*
X50789Y5360D01*
X50945Y5204D01*
X51148Y5119D01*
X51369D01*
X51572Y5204D01*
X51728Y5360D01*
X51812Y5563D01*
Y5784D01*
X51728Y5987D01*
X51572Y6143D01*
X51369Y6227D01*
D02*
G37*
G36*
X53849Y6214D02*
X53628D01*
X53425Y6129D01*
X53269Y5973D01*
X53184Y5770D01*
Y5549D01*
X53269Y5346D01*
X53425Y5190D01*
X53628Y5106D01*
X53849D01*
X54052Y5190D01*
X54208Y5346D01*
X54292Y5549D01*
Y5770D01*
X54208Y5973D01*
X54052Y6129D01*
X53849Y6214D01*
D02*
G37*
G36*
X22690Y6204D02*
X22470D01*
X22266Y6120D01*
X22110Y5964D01*
X22026Y5760D01*
Y5540D01*
X22110Y5336D01*
X22266Y5180D01*
X22470Y5096D01*
X22690D01*
X22894Y5180D01*
X23050Y5336D01*
X23134Y5540D01*
Y5760D01*
X23050Y5964D01*
X22894Y6120D01*
X22690Y6204D01*
D02*
G37*
G36*
X16230Y6144D02*
X16010D01*
X15806Y6060D01*
X15650Y5904D01*
X15566Y5700D01*
Y5480D01*
X15650Y5276D01*
X15806Y5120D01*
X16010Y5036D01*
X16230D01*
X16434Y5120D01*
X16590Y5276D01*
X16674Y5480D01*
Y5700D01*
X16590Y5904D01*
X16434Y6060D01*
X16230Y6144D01*
D02*
G37*
G36*
X61720Y5724D02*
X61500D01*
X61296Y5640D01*
X61140Y5484D01*
X61056Y5280D01*
Y5060D01*
X61140Y4856D01*
X61296Y4700D01*
X61500Y4616D01*
X61720D01*
X61924Y4700D01*
X62080Y4856D01*
X62164Y5060D01*
Y5280D01*
X62080Y5484D01*
X61924Y5640D01*
X61720Y5724D01*
D02*
G37*
G36*
X58810Y5714D02*
X58590D01*
X58386Y5630D01*
X58230Y5474D01*
X58146Y5270D01*
Y5050D01*
X58230Y4846D01*
X58386Y4690D01*
X58590Y4606D01*
X58810D01*
X59014Y4690D01*
X59170Y4846D01*
X59254Y5050D01*
Y5270D01*
X59170Y5474D01*
X59014Y5630D01*
X58810Y5714D01*
D02*
G37*
G36*
X46350Y5704D02*
X46130D01*
X45926Y5620D01*
X45770Y5464D01*
X45686Y5260D01*
Y5040D01*
X45770Y4836D01*
X45926Y4680D01*
X46130Y4596D01*
X46350D01*
X46554Y4680D01*
X46710Y4836D01*
X46794Y5040D01*
Y5260D01*
X46710Y5464D01*
X46554Y5620D01*
X46350Y5704D01*
D02*
G37*
G36*
X42090Y5624D02*
X41870D01*
X41666Y5540D01*
X41510Y5384D01*
X41426Y5180D01*
Y4960D01*
X41510Y4756D01*
X41666Y4600D01*
X41870Y4516D01*
X42090D01*
X42294Y4600D01*
X42450Y4756D01*
X42534Y4960D01*
Y5180D01*
X42450Y5384D01*
X42294Y5540D01*
X42090Y5624D01*
D02*
G37*
G36*
X34769Y5545D02*
X34548D01*
X34345Y5461D01*
X34189Y5305D01*
X34104Y5102D01*
Y4881D01*
X34189Y4678D01*
X34345Y4522D01*
X34548Y4437D01*
X34769D01*
X34972Y4522D01*
X35128Y4678D01*
X35213Y4881D01*
Y5102D01*
X35128Y5305D01*
X34972Y5461D01*
X34769Y5545D01*
D02*
G37*
G36*
X37249Y5533D02*
X37028D01*
X36825Y5448D01*
X36669Y5293D01*
X36584Y5089D01*
Y4869D01*
X36669Y4665D01*
X36825Y4509D01*
X37028Y4425D01*
X37249D01*
X37452Y4509D01*
X37608Y4665D01*
X37692Y4869D01*
Y5089D01*
X37608Y5293D01*
X37452Y5448D01*
X37249Y5533D01*
D02*
G37*
G36*
X29840Y5524D02*
X29620D01*
X29416Y5440D01*
X29260Y5284D01*
X29176Y5080D01*
Y4860D01*
X29260Y4656D01*
X29416Y4500D01*
X29620Y4416D01*
X29840D01*
X30044Y4500D01*
X30200Y4656D01*
X30284Y4860D01*
Y5080D01*
X30200Y5284D01*
X30044Y5440D01*
X29840Y5524D01*
D02*
G37*
G36*
X76560Y5334D02*
X76340D01*
X76136Y5250D01*
X75980Y5094D01*
X75896Y4890D01*
Y4670D01*
X75980Y4466D01*
X76136Y4310D01*
X76340Y4226D01*
X76560D01*
X76764Y4310D01*
X76920Y4466D01*
X77004Y4670D01*
Y4890D01*
X76920Y5094D01*
X76764Y5250D01*
X76560Y5334D01*
D02*
G37*
G36*
X69500Y5114D02*
X69280D01*
X69076Y5030D01*
X68920Y4874D01*
X68836Y4670D01*
Y4450D01*
X68920Y4246D01*
X69076Y4090D01*
X69280Y4006D01*
X69500D01*
X69704Y4090D01*
X69860Y4246D01*
X69944Y4450D01*
Y4670D01*
X69860Y4874D01*
X69704Y5030D01*
X69500Y5114D01*
D02*
G37*
G36*
X51369Y4927D02*
X51148D01*
X50945Y4843D01*
X50789Y4687D01*
X50704Y4484D01*
Y4263D01*
X50789Y4060D01*
X50945Y3904D01*
X51148Y3819D01*
X51369D01*
X51572Y3904D01*
X51728Y4060D01*
X51812Y4263D01*
Y4484D01*
X51728Y4687D01*
X51572Y4843D01*
X51369Y4927D01*
D02*
G37*
G36*
X53849Y4914D02*
X53628D01*
X53425Y4829D01*
X53269Y4673D01*
X53184Y4470D01*
Y4249D01*
X53269Y4046D01*
X53425Y3890D01*
X53628Y3806D01*
X53849D01*
X54052Y3890D01*
X54208Y4046D01*
X54292Y4249D01*
Y4470D01*
X54208Y4673D01*
X54052Y4829D01*
X53849Y4914D01*
D02*
G37*
G36*
X5520Y8254D02*
X5076D01*
X4641Y8167D01*
X4231Y7997D01*
X3862Y7750D01*
X3548Y7437D01*
X3301Y7067D01*
X3131Y6657D01*
X3044Y6222D01*
Y5778D01*
X3131Y5342D01*
X3301Y4932D01*
X3548Y4563D01*
X3862Y4249D01*
X4231Y4002D01*
X4641Y3832D01*
X5076Y3746D01*
X5520D01*
X5956Y3832D01*
X6366Y4002D01*
X6735Y4249D01*
X7049Y4563D01*
X7296Y4932D01*
X7466Y5342D01*
X7552Y5778D01*
Y6222D01*
X7466Y6657D01*
X7296Y7067D01*
X7049Y7437D01*
X6735Y7750D01*
X6366Y7997D01*
X5956Y8167D01*
X5520Y8254D01*
D02*
G37*
G36*
X82695Y7929D02*
X82251D01*
X81816Y7842D01*
X81406Y7672D01*
X81037Y7425D01*
X80723Y7112D01*
X80476Y6742D01*
X80306Y6332D01*
X80219Y5897D01*
Y5453D01*
X80306Y5017D01*
X80476Y4607D01*
X80723Y4238D01*
X81037Y3924D01*
X81406Y3677D01*
X81816Y3507D01*
X82251Y3421D01*
X82695D01*
X83131Y3507D01*
X83541Y3677D01*
X83910Y3924D01*
X84224Y4238D01*
X84471Y4607D01*
X84641Y5017D01*
X84727Y5453D01*
Y5897D01*
X84641Y6332D01*
X84471Y6742D01*
X84224Y7112D01*
X83910Y7425D01*
X83541Y7672D01*
X83131Y7842D01*
X82695Y7929D01*
D02*
G37*
G36*
X58780Y4434D02*
X58560D01*
X58356Y4350D01*
X58200Y4194D01*
X58116Y3990D01*
Y3770D01*
X58200Y3566D01*
X58356Y3410D01*
X58560Y3326D01*
X58780D01*
X58984Y3410D01*
X59140Y3566D01*
X59224Y3770D01*
Y3990D01*
X59140Y4194D01*
X58984Y4350D01*
X58780Y4434D01*
D02*
G37*
G36*
X46380Y4424D02*
X46160D01*
X45956Y4340D01*
X45800Y4184D01*
X45716Y3980D01*
Y3760D01*
X45800Y3556D01*
X45956Y3400D01*
X46160Y3316D01*
X46380D01*
X46584Y3400D01*
X46740Y3556D01*
X46824Y3760D01*
Y3980D01*
X46740Y4184D01*
X46584Y4340D01*
X46380Y4424D01*
D02*
G37*
G36*
X42060Y4344D02*
X41840D01*
X41636Y4260D01*
X41480Y4104D01*
X41396Y3900D01*
Y3680D01*
X41480Y3476D01*
X41636Y3320D01*
X41840Y3236D01*
X42060D01*
X42264Y3320D01*
X42420Y3476D01*
X42504Y3680D01*
Y3900D01*
X42420Y4104D01*
X42264Y4260D01*
X42060Y4344D01*
D02*
G37*
G36*
X34769Y4245D02*
X34548D01*
X34345Y4161D01*
X34189Y4005D01*
X34104Y3802D01*
Y3581D01*
X34189Y3378D01*
X34345Y3222D01*
X34548Y3137D01*
X34769D01*
X34972Y3222D01*
X35128Y3378D01*
X35213Y3581D01*
Y3802D01*
X35128Y4005D01*
X34972Y4161D01*
X34769Y4245D01*
D02*
G37*
G36*
X29870Y4244D02*
X29650D01*
X29446Y4160D01*
X29290Y4004D01*
X29206Y3800D01*
Y3580D01*
X29290Y3376D01*
X29446Y3220D01*
X29650Y3136D01*
X29870D01*
X30074Y3220D01*
X30230Y3376D01*
X30314Y3580D01*
Y3800D01*
X30230Y4004D01*
X30074Y4160D01*
X29870Y4244D01*
D02*
G37*
G36*
X37249Y4233D02*
X37028D01*
X36825Y4148D01*
X36669Y3993D01*
X36584Y3789D01*
Y3569D01*
X36669Y3365D01*
X36825Y3209D01*
X37028Y3125D01*
X37249D01*
X37452Y3209D01*
X37608Y3365D01*
X37692Y3569D01*
Y3789D01*
X37608Y3993D01*
X37452Y4148D01*
X37249Y4233D01*
D02*
G37*
G36*
X25230Y3764D02*
X25010D01*
X24806Y3680D01*
X24650Y3524D01*
X24566Y3320D01*
Y3100D01*
X24650Y2896D01*
X24806Y2740D01*
X25010Y2656D01*
X25230D01*
X25434Y2740D01*
X25590Y2896D01*
X25674Y3100D01*
Y3320D01*
X25590Y3524D01*
X25434Y3680D01*
X25230Y3764D01*
D02*
G37*
G36*
X18770Y3704D02*
X18550D01*
X18346Y3620D01*
X18190Y3464D01*
X18106Y3260D01*
Y3040D01*
X18190Y2836D01*
X18346Y2680D01*
X18550Y2596D01*
X18770D01*
X18974Y2680D01*
X19130Y2836D01*
X19214Y3040D01*
Y3260D01*
X19130Y3464D01*
X18974Y3620D01*
X18770Y3704D01*
D02*
G37*
G36*
X51369Y3627D02*
X51148D01*
X50945Y3543D01*
X50789Y3387D01*
X50704Y3184D01*
Y2963D01*
X50789Y2760D01*
X50945Y2604D01*
X51148Y2519D01*
X51369D01*
X51572Y2604D01*
X51728Y2760D01*
X51812Y2963D01*
Y3184D01*
X51728Y3387D01*
X51572Y3543D01*
X51369Y3627D01*
D02*
G37*
G36*
X53849Y3614D02*
X53628D01*
X53425Y3529D01*
X53269Y3373D01*
X53184Y3170D01*
Y2949D01*
X53269Y2746D01*
X53425Y2590D01*
X53628Y2506D01*
X53849D01*
X54052Y2590D01*
X54208Y2746D01*
X54292Y2949D01*
Y3170D01*
X54208Y3373D01*
X54052Y3529D01*
X53849Y3614D01*
D02*
G37*
G36*
X64260Y3284D02*
X64040D01*
X63836Y3200D01*
X63680Y3044D01*
X63596Y2840D01*
Y2620D01*
X63680Y2416D01*
X63836Y2260D01*
X64040Y2176D01*
X64260D01*
X64464Y2260D01*
X64620Y2416D01*
X64704Y2620D01*
Y2840D01*
X64620Y3044D01*
X64464Y3200D01*
X64260Y3284D01*
D02*
G37*
G36*
X58770Y3164D02*
X58550D01*
X58346Y3080D01*
X58190Y2924D01*
X58106Y2720D01*
Y2500D01*
X58190Y2296D01*
X58346Y2140D01*
X58550Y2056D01*
X58770D01*
X58974Y2140D01*
X59130Y2296D01*
X59214Y2500D01*
Y2720D01*
X59130Y2924D01*
X58974Y3080D01*
X58770Y3164D01*
D02*
G37*
G36*
X46390Y3154D02*
X46170D01*
X45966Y3070D01*
X45810Y2914D01*
X45726Y2710D01*
Y2490D01*
X45810Y2286D01*
X45966Y2130D01*
X46170Y2046D01*
X46390D01*
X46594Y2130D01*
X46750Y2286D01*
X46834Y2490D01*
Y2710D01*
X46750Y2914D01*
X46594Y3070D01*
X46390Y3154D01*
D02*
G37*
G36*
X42050Y3074D02*
X41830D01*
X41626Y2990D01*
X41470Y2834D01*
X41386Y2630D01*
Y2410D01*
X41470Y2206D01*
X41626Y2050D01*
X41830Y1966D01*
X42050D01*
X42254Y2050D01*
X42410Y2206D01*
X42494Y2410D01*
Y2630D01*
X42410Y2834D01*
X42254Y2990D01*
X42050Y3074D01*
D02*
G37*
G36*
X29880Y2974D02*
X29660D01*
X29456Y2890D01*
X29300Y2734D01*
X29216Y2530D01*
Y2310D01*
X29300Y2106D01*
X29456Y1950D01*
X29660Y1866D01*
X29880D01*
X30084Y1950D01*
X30240Y2106D01*
X30324Y2310D01*
Y2530D01*
X30240Y2734D01*
X30084Y2890D01*
X29880Y2974D01*
D02*
G37*
G36*
X34769Y2945D02*
X34548D01*
X34345Y2861D01*
X34189Y2705D01*
X34104Y2502D01*
Y2281D01*
X34189Y2078D01*
X34345Y1922D01*
X34548Y1837D01*
X34769D01*
X34972Y1922D01*
X35128Y2078D01*
X35213Y2281D01*
Y2502D01*
X35128Y2705D01*
X34972Y2861D01*
X34769Y2945D01*
D02*
G37*
G36*
X37249Y2933D02*
X37028D01*
X36825Y2848D01*
X36669Y2693D01*
X36584Y2489D01*
Y2269D01*
X36669Y2065D01*
X36825Y1909D01*
X37028Y1825D01*
X37249D01*
X37452Y1909D01*
X37608Y2065D01*
X37692Y2269D01*
Y2489D01*
X37608Y2693D01*
X37452Y2848D01*
X37249Y2933D01*
D02*
G37*
G36*
X79100Y2894D02*
X78880D01*
X78676Y2810D01*
X78520Y2654D01*
X78436Y2450D01*
Y2230D01*
X78520Y2026D01*
X78676Y1870D01*
X78880Y1786D01*
X79100D01*
X79304Y1870D01*
X79460Y2026D01*
X79544Y2230D01*
Y2450D01*
X79460Y2654D01*
X79304Y2810D01*
X79100Y2894D01*
D02*
G37*
G36*
X72040Y2674D02*
X71820D01*
X71616Y2590D01*
X71460Y2434D01*
X71376Y2230D01*
Y2010D01*
X71460Y1806D01*
X71616Y1650D01*
X71820Y1566D01*
X72040D01*
X72244Y1650D01*
X72400Y1806D01*
X72484Y2010D01*
Y2230D01*
X72400Y2434D01*
X72244Y2590D01*
X72040Y2674D01*
D02*
G37*
G36*
X51369Y2327D02*
X51148D01*
X50945Y2243D01*
X50789Y2087D01*
X50704Y1884D01*
Y1663D01*
X50789Y1460D01*
X50945Y1304D01*
X51148Y1219D01*
X51369D01*
X51572Y1304D01*
X51728Y1460D01*
X51812Y1663D01*
Y1884D01*
X51728Y2087D01*
X51572Y2243D01*
X51369Y2327D01*
D02*
G37*
G36*
X53849Y2314D02*
X53628D01*
X53425Y2229D01*
X53269Y2073D01*
X53184Y1870D01*
Y1649D01*
X53269Y1446D01*
X53425Y1290D01*
X53628Y1206D01*
X53849D01*
X54052Y1290D01*
X54208Y1446D01*
X54292Y1649D01*
Y1870D01*
X54208Y2073D01*
X54052Y2229D01*
X53849Y2314D01*
D02*
G37*
G36*
X58770Y1864D02*
X58550D01*
X58346Y1780D01*
X58190Y1624D01*
X58106Y1420D01*
Y1200D01*
X58190Y996D01*
X58346Y840D01*
X58550Y756D01*
X58770D01*
X58974Y840D01*
X59130Y996D01*
X59214Y1200D01*
Y1420D01*
X59130Y1624D01*
X58974Y1780D01*
X58770Y1864D01*
D02*
G37*
G36*
X46390Y1854D02*
X46170D01*
X45966Y1770D01*
X45810Y1614D01*
X45726Y1410D01*
Y1190D01*
X45810Y986D01*
X45966Y830D01*
X46170Y746D01*
X46390D01*
X46594Y830D01*
X46750Y986D01*
X46834Y1190D01*
Y1410D01*
X46750Y1614D01*
X46594Y1770D01*
X46390Y1854D01*
D02*
G37*
G36*
X42050Y1774D02*
X41830D01*
X41626Y1690D01*
X41470Y1534D01*
X41386Y1330D01*
Y1110D01*
X41470Y906D01*
X41626Y750D01*
X41830Y666D01*
X42050D01*
X42254Y750D01*
X42410Y906D01*
X42494Y1110D01*
Y1330D01*
X42410Y1534D01*
X42254Y1690D01*
X42050Y1774D01*
D02*
G37*
G36*
X29880Y1674D02*
X29660D01*
X29456Y1590D01*
X29300Y1434D01*
X29216Y1230D01*
Y1010D01*
X29300Y806D01*
X29456Y650D01*
X29660Y566D01*
X29880D01*
X30084Y650D01*
X30240Y806D01*
X30324Y1010D01*
Y1230D01*
X30240Y1434D01*
X30084Y1590D01*
X29880Y1674D01*
D02*
G37*
G36*
X34769Y1645D02*
X34548D01*
X34345Y1561D01*
X34189Y1405D01*
X34104Y1202D01*
Y981D01*
X34189Y778D01*
X34345Y622D01*
X34548Y537D01*
X34769D01*
X34972Y622D01*
X35128Y778D01*
X35213Y981D01*
Y1202D01*
X35128Y1405D01*
X34972Y1561D01*
X34769Y1645D01*
D02*
G37*
G36*
X37249Y1633D02*
X37028D01*
X36825Y1548D01*
X36669Y1393D01*
X36584Y1189D01*
Y969D01*
X36669Y765D01*
X36825Y609D01*
X37028Y525D01*
X37249D01*
X37452Y609D01*
X37608Y765D01*
X37692Y969D01*
Y1189D01*
X37608Y1393D01*
X37452Y1548D01*
X37249Y1633D01*
D02*
G37*
%LPD*%
G36*
X79830Y30230D02*
X83440D01*
Y21450D01*
X64980D01*
Y24860D01*
X59074D01*
Y25060D01*
X58990Y25264D01*
X58834Y25420D01*
X58630Y25504D01*
X58410D01*
X58206Y25420D01*
X58050Y25264D01*
X57966Y25060D01*
Y24860D01*
X46393D01*
Y30230D01*
Y32520D01*
X79830D01*
Y30230D01*
D02*
G37*
%LPC*%
G36*
X54207Y31820D02*
Y31400D01*
X54627D01*
X54550Y31587D01*
X54394Y31743D01*
X54207Y31820D01*
D02*
G37*
G36*
X53953D02*
X53766Y31743D01*
X53610Y31587D01*
X53533Y31400D01*
X53953D01*
Y31820D01*
D02*
G37*
G36*
X52630Y31854D02*
X52410D01*
X52206Y31770D01*
X52050Y31614D01*
X51966Y31410D01*
Y31190D01*
X52050Y30986D01*
X52206Y30830D01*
X52410Y30746D01*
X52630D01*
X52834Y30830D01*
X52990Y30986D01*
X53074Y31190D01*
Y31410D01*
X52990Y31614D01*
X52834Y31770D01*
X52630Y31854D01*
D02*
G37*
G36*
X54627Y31146D02*
X54207D01*
Y30726D01*
X54394Y30803D01*
X54550Y30959D01*
X54627Y31146D01*
D02*
G37*
G36*
X53953D02*
X53533D01*
X53610Y30959D01*
X53766Y30803D01*
X53953Y30726D01*
Y31146D01*
D02*
G37*
G36*
X61110Y31774D02*
X60890D01*
X60686Y31690D01*
X60530Y31534D01*
X60446Y31330D01*
Y31110D01*
X60530Y30906D01*
X60686Y30750D01*
X60890Y30666D01*
X61110D01*
X61314Y30750D01*
X61470Y30906D01*
X61554Y31110D01*
Y31330D01*
X61470Y31534D01*
X61314Y31690D01*
X61110Y31774D01*
D02*
G37*
G36*
X49520Y31734D02*
X49300D01*
X49096Y31650D01*
X48940Y31494D01*
X48856Y31290D01*
Y31070D01*
X48940Y30866D01*
X49096Y30710D01*
X49300Y30626D01*
X49520D01*
X49724Y30710D01*
X49880Y30866D01*
X49964Y31070D01*
Y31290D01*
X49880Y31494D01*
X49724Y31650D01*
X49520Y31734D01*
D02*
G37*
G36*
X63820Y29384D02*
X63600D01*
X63396Y29300D01*
X63240Y29144D01*
X63156Y28940D01*
Y28720D01*
X63240Y28516D01*
X63396Y28360D01*
X63600Y28276D01*
X63820D01*
X64024Y28360D01*
X64180Y28516D01*
X64264Y28720D01*
Y28940D01*
X64180Y29144D01*
X64024Y29300D01*
X63820Y29384D01*
D02*
G37*
G36*
X47707Y28647D02*
Y28226D01*
X48127D01*
X48050Y28413D01*
X47894Y28569D01*
X47707Y28647D01*
D02*
G37*
G36*
X47453D02*
X47266Y28569D01*
X47110Y28413D01*
X47033Y28226D01*
X47453D01*
Y28647D01*
D02*
G37*
G36*
X57282Y30184D02*
X57018D01*
X56762Y30116D01*
X56534Y29983D01*
X56347Y29796D01*
X56214Y29568D01*
X56146Y29312D01*
Y29048D01*
X56214Y28792D01*
X56347Y28564D01*
X56534Y28377D01*
X56762Y28244D01*
X57018Y28176D01*
X57282D01*
X57538Y28244D01*
X57766Y28377D01*
X57953Y28564D01*
X58086Y28792D01*
X58154Y29048D01*
Y29312D01*
X58086Y29568D01*
X57953Y29796D01*
X57766Y29983D01*
X57538Y30116D01*
X57282Y30184D01*
D02*
G37*
G36*
X48127Y27972D02*
X47707D01*
Y27552D01*
X47894Y27630D01*
X48050Y27786D01*
X48127Y27972D01*
D02*
G37*
G36*
X47453D02*
X47033D01*
X47110Y27786D01*
X47266Y27630D01*
X47453Y27552D01*
Y27972D01*
D02*
G37*
G36*
X52880Y28514D02*
X52660D01*
X52456Y28430D01*
X52300Y28274D01*
X52216Y28070D01*
Y27850D01*
X52300Y27646D01*
X52456Y27490D01*
X52660Y27406D01*
X52880D01*
X53084Y27490D01*
X53240Y27646D01*
X53324Y27850D01*
Y28070D01*
X53240Y28274D01*
X53084Y28430D01*
X52880Y28514D01*
D02*
G37*
G36*
X61230Y26874D02*
X61010D01*
X60806Y26790D01*
X60650Y26634D01*
X60566Y26430D01*
Y26210D01*
X60650Y26006D01*
X60806Y25850D01*
X61010Y25766D01*
X61230D01*
X61434Y25850D01*
X61590Y26006D01*
X61674Y26210D01*
Y26430D01*
X61590Y26634D01*
X61434Y26790D01*
X61230Y26874D01*
D02*
G37*
G36*
X51830Y26644D02*
X51610D01*
X51406Y26560D01*
X51250Y26404D01*
X51166Y26200D01*
Y25980D01*
X51250Y25776D01*
X51406Y25620D01*
X51610Y25536D01*
X51830D01*
X52034Y25620D01*
X52190Y25776D01*
X52274Y25980D01*
Y26200D01*
X52190Y26404D01*
X52034Y26560D01*
X51830Y26644D01*
D02*
G37*
G36*
X78392Y26694D02*
X78128D01*
X77872Y26626D01*
X77644Y26493D01*
X77457Y26306D01*
X77324Y26078D01*
X77256Y25822D01*
Y25558D01*
X77324Y25302D01*
X77457Y25074D01*
X77644Y24887D01*
X77872Y24754D01*
X78128Y24686D01*
X78392D01*
X78648Y24754D01*
X78876Y24887D01*
X79063Y25074D01*
X79196Y25302D01*
X79264Y25558D01*
Y25822D01*
X79196Y26078D01*
X79063Y26306D01*
X78876Y26493D01*
X78648Y26626D01*
X78392Y26694D01*
D02*
G37*
G36*
Y24144D02*
X78387D01*
Y23267D01*
X79264D01*
Y23272D01*
X79196Y23528D01*
X79063Y23756D01*
X78876Y23943D01*
X78648Y24076D01*
X78392Y24144D01*
D02*
G37*
G36*
X78133D02*
X78128D01*
X77872Y24076D01*
X77644Y23943D01*
X77457Y23756D01*
X77324Y23528D01*
X77256Y23272D01*
Y23267D01*
X78133D01*
Y24144D01*
D02*
G37*
G36*
X79264Y23013D02*
X78387D01*
Y22136D01*
X78392D01*
X78648Y22204D01*
X78876Y22337D01*
X79063Y22524D01*
X79196Y22752D01*
X79264Y23008D01*
Y23013D01*
D02*
G37*
G36*
X78133D02*
X77256D01*
Y23008D01*
X77324Y22752D01*
X77457Y22524D01*
X77644Y22337D01*
X77872Y22204D01*
X78128Y22136D01*
X78133D01*
Y23013D01*
D02*
G37*
%LPD*%
G54D51*
X61675Y43510D02*
D03*
X32773Y22650D02*
D03*
G54D55*
X17030Y31210D02*
D03*
X71950Y24620D02*
D03*
X73080D02*
D03*
X74240D02*
D03*
X71950Y25720D02*
D03*
X73080D02*
D03*
X74240D02*
D03*
Y26720D02*
D03*
X73080D02*
D03*
X71950D02*
D03*
X74570Y37160D02*
D03*
X73360D02*
D03*
X72140D02*
D03*
X74570Y38350D02*
D03*
X73360D02*
D03*
X72140D02*
D03*
X74570Y39520D02*
D03*
X73360D02*
D03*
X72140D02*
D03*
X47580Y28100D02*
D03*
X52050Y20240D02*
D03*
X54080Y31273D02*
D03*
X44290Y31500D02*
D03*
X40248Y23725D02*
D03*
G54D68*
X78260Y23140D02*
D03*
X78100Y36100D02*
D03*
G54D69*
X44650Y18750D02*
D03*
X42960D02*
D03*
G54D70*
X39898Y28350D02*
D03*
M02*
