G04*
G04 #@! TF.GenerationSoftware,Altium Limited,Altium Designer,21.1.1 (26)*
G04*
G04 Layer_Color=128*
%FSLAX43Y43*%
%MOMM*%
G71*
G04*
G04 #@! TF.SameCoordinates,7D77D7A2-79D2-47A9-8A17-8AFE765D4546*
G04*
G04*
G04 #@! TF.FilePolarity,Positive*
G04*
G01*
G75*
%ADD73C,0.051*%
G54D73*
X29280Y42380D02*
X32280D01*
X30780Y40880D02*
Y43880D01*
X58510Y15870D02*
X61510D01*
X60010Y14370D02*
Y17370D01*
X80973Y5675D02*
X83973D01*
X82473Y4175D02*
Y7175D01*
X77760Y23140D02*
X78760D01*
X78260Y22640D02*
Y23640D01*
X67850Y51290D02*
X68850D01*
X68350Y50790D02*
Y51790D01*
X61175Y43510D02*
X62175D01*
X61675Y43010D02*
Y44010D01*
X53550Y43510D02*
X54550D01*
X54050Y43010D02*
Y44010D01*
X53550Y51135D02*
X54550D01*
X54050Y50635D02*
Y51635D01*
X61175Y51135D02*
X62175D01*
X61675Y50635D02*
Y51635D01*
X3798Y6000D02*
X6798D01*
X5298Y4500D02*
Y7500D01*
X56650Y29180D02*
X57650D01*
X57150Y28680D02*
Y29680D01*
X80973Y52300D02*
X83973D01*
X82473Y50800D02*
Y53800D01*
X81640Y48100D02*
X82640D01*
X82140Y47600D02*
Y48600D01*
X78270Y48010D02*
X79270D01*
X78770Y47510D02*
Y48510D01*
X77600Y36100D02*
X78600D01*
X78100Y35600D02*
Y36600D01*
X77600Y38650D02*
X78600D01*
X78100Y38150D02*
Y39150D01*
X77760Y25690D02*
X78760D01*
X78260Y25190D02*
Y26190D01*
X27273Y22650D02*
X28273D01*
X27773Y22150D02*
Y23150D01*
X29773Y22650D02*
X30773D01*
X30273Y22150D02*
Y23150D01*
X32273Y22650D02*
X33273D01*
X32773Y22150D02*
Y23150D01*
X3798Y51375D02*
X6798D01*
X5298Y49875D02*
Y52875D01*
X44823Y43250D02*
X45823D01*
X45323Y42750D02*
Y43750D01*
X42323Y43250D02*
X43323D01*
X42823Y42750D02*
Y43750D01*
X39823Y43250D02*
X40823D01*
X40323Y42750D02*
Y43750D01*
X7823Y21850D02*
X8823D01*
X8323Y21350D02*
Y22350D01*
X5323Y21850D02*
X6323D01*
X5823Y21350D02*
Y22350D01*
X5323Y24390D02*
X6323D01*
X5823Y23890D02*
Y24890D01*
X7823Y24390D02*
X8823D01*
X8323Y23890D02*
Y24890D01*
X7823Y26930D02*
X8823D01*
X8323Y26430D02*
Y27430D01*
X5323Y26930D02*
X6323D01*
X5823Y26430D02*
Y27430D01*
X5323Y29470D02*
X6323D01*
X5823Y28970D02*
Y29970D01*
X7823Y29470D02*
X8823D01*
X8323Y28970D02*
Y29970D01*
X7823Y32010D02*
X8823D01*
X8323Y31510D02*
Y32510D01*
X5283Y32010D02*
X6283D01*
X5783Y31510D02*
Y32510D01*
X57670Y39480D02*
X57970D01*
X57820Y39330D02*
Y39630D01*
X52650Y39360D02*
X52950D01*
X52800Y39210D02*
Y39510D01*
X48450Y39570D02*
X48750D01*
X48600Y39420D02*
Y39720D01*
X47990Y54150D02*
X48290D01*
X48140Y54000D02*
Y54300D01*
X47930Y50730D02*
X48230D01*
X48080Y50580D02*
Y50880D01*
X44560Y47080D02*
X44860D01*
X44710Y46930D02*
Y47230D01*
X39560Y36590D02*
X39860D01*
X39710Y36440D02*
Y36740D01*
X36520Y36640D02*
X36820D01*
X36670Y36490D02*
Y36790D01*
X34250Y43050D02*
X34550D01*
X34400Y42900D02*
Y43200D01*
X30170Y37840D02*
X30470D01*
X30320Y37690D02*
Y37990D01*
X27550Y39780D02*
X27850D01*
X27700Y39630D02*
Y39930D01*
X25110Y41910D02*
X25410D01*
X25260Y41760D02*
Y42060D01*
X30190Y45480D02*
X30490D01*
X30340Y45330D02*
Y45630D01*
X25510Y44900D02*
X25810D01*
X25660Y44750D02*
Y45050D01*
X32460Y36310D02*
X32760D01*
X32610Y36160D02*
Y36460D01*
X36730Y39660D02*
X37030D01*
X36880Y39510D02*
Y39810D01*
X33030Y39670D02*
X33330D01*
X33180Y39520D02*
Y39820D01*
X31430Y31540D02*
X31730D01*
X31580Y31390D02*
Y31690D01*
X26170Y34760D02*
X26470D01*
X26320Y34610D02*
Y34910D01*
X22170Y34600D02*
X22470D01*
X22320Y34450D02*
Y34750D01*
X20470Y37990D02*
X20770D01*
X20620Y37840D02*
Y38140D01*
X17390Y35140D02*
X17690D01*
X17540Y34990D02*
Y35290D01*
X17550Y40260D02*
X17850D01*
X17700Y40110D02*
Y40410D01*
X46433Y18303D02*
X46733D01*
X46583Y18153D02*
Y18453D01*
X47367Y17399D02*
X47667D01*
X47517Y17249D02*
Y17549D01*
X48389Y16595D02*
X48689D01*
X48539Y16445D02*
Y16745D01*
X49159Y15548D02*
X49459D01*
X49309Y15398D02*
Y15698D01*
X49841Y14441D02*
X50141D01*
X49991Y14291D02*
Y14591D01*
X50419Y13276D02*
X50719D01*
X50569Y13126D02*
Y13426D01*
X50863Y12055D02*
X51163D01*
X51013Y11905D02*
Y12205D01*
X51206Y10801D02*
X51506D01*
X51356Y10651D02*
Y10951D01*
X51444Y9523D02*
X51744D01*
X51594Y9373D02*
Y9673D01*
X51576Y8229D02*
X51876D01*
X51726Y8079D02*
Y8379D01*
X51389Y6943D02*
X51689D01*
X51539Y6793D02*
Y7093D01*
X51109Y5673D02*
X51409D01*
X51258Y5523D02*
Y5823D01*
X51109Y4373D02*
X51409D01*
X51258Y4223D02*
Y4523D01*
X51109Y3073D02*
X51409D01*
X51258Y2923D02*
Y3223D01*
X51109Y1773D02*
X51409D01*
X51258Y1623D02*
Y1923D01*
X53588Y1760D02*
X53888D01*
X53738Y1610D02*
Y1910D01*
X53588Y3060D02*
X53888D01*
X53738Y2910D02*
Y3210D01*
X53588Y4360D02*
X53888D01*
X53738Y4210D02*
Y4510D01*
X53588Y5660D02*
X53888D01*
X53738Y5510D02*
Y5810D01*
X53323Y6932D02*
X53623D01*
X53473Y6782D02*
Y7082D01*
X53095Y8212D02*
X53395D01*
X53245Y8062D02*
Y8362D01*
X52976Y9507D02*
X53276D01*
X53126Y9357D02*
Y9657D01*
X52760Y10788D02*
X53060D01*
X52910Y10638D02*
Y10938D01*
X52448Y12051D02*
X52748D01*
X52598Y11901D02*
Y12201D01*
X52039Y13285D02*
X52339D01*
X52189Y13135D02*
Y13435D01*
X51541Y14485D02*
X51841D01*
X51691Y14335D02*
Y14635D01*
X50909Y15621D02*
X51209D01*
X51059Y15471D02*
Y15771D01*
X50199Y16710D02*
X50499D01*
X50349Y16560D02*
Y16860D01*
X49410Y17744D02*
X49710D01*
X49560Y17594D02*
Y17894D01*
X48777Y18879D02*
X49077D01*
X48927Y18729D02*
Y19029D01*
X47853Y19793D02*
X48153D01*
X48003Y19643D02*
Y19943D01*
X39090Y19514D02*
X39390D01*
X39240Y19364D02*
Y19664D01*
X38370Y18431D02*
X38670D01*
X38520Y18281D02*
Y18581D01*
X37575Y17403D02*
X37875D01*
X37725Y17253D02*
Y17553D01*
X36888Y16299D02*
X37188D01*
X37038Y16149D02*
Y16449D01*
X36332Y15124D02*
X36632D01*
X36482Y14974D02*
Y15274D01*
X35878Y13906D02*
X36178D01*
X36028Y13756D02*
Y14056D01*
X35515Y12658D02*
X35815D01*
X35665Y12508D02*
Y12808D01*
X35244Y11386D02*
X35544D01*
X35394Y11236D02*
Y11536D01*
X35066Y10098D02*
X35366D01*
X35216Y9948D02*
Y10248D01*
X34985Y8801D02*
X35285D01*
X35135Y8651D02*
Y8951D01*
X34985Y7501D02*
X35285D01*
X35135Y7351D02*
Y7651D01*
X34508Y6291D02*
X34808D01*
X34659Y6141D02*
Y6441D01*
X34508Y4991D02*
X34808D01*
X34659Y4841D02*
Y5141D01*
X34508Y3691D02*
X34808D01*
X34659Y3541D02*
Y3841D01*
X34508Y2391D02*
X34808D01*
X34659Y2241D02*
Y2541D01*
X34508Y1091D02*
X34808D01*
X34659Y941D02*
Y1241D01*
X36988Y1079D02*
X37288D01*
X37138Y929D02*
Y1229D01*
X36988Y2379D02*
X37288D01*
X37138Y2229D02*
Y2529D01*
X36988Y3679D02*
X37288D01*
X37138Y3529D02*
Y3829D01*
X36988Y4979D02*
X37288D01*
X37138Y4829D02*
Y5129D01*
X36988Y6279D02*
X37288D01*
X37138Y6129D02*
Y6429D01*
X36512Y7488D02*
X36812D01*
X36662Y7338D02*
Y7638D01*
X36512Y8788D02*
X36812D01*
X36662Y8638D02*
Y8938D01*
X36590Y10086D02*
X36890D01*
X36740Y9936D02*
Y10236D01*
X36782Y11372D02*
X37082D01*
X36932Y11222D02*
Y11522D01*
X37074Y12638D02*
X37374D01*
X37224Y12488D02*
Y12788D01*
X37467Y13878D02*
X37767D01*
X37617Y13728D02*
Y14028D01*
X37957Y15082D02*
X38257D01*
X38107Y14932D02*
Y15232D01*
X38610Y16206D02*
X38910D01*
X38760Y16056D02*
Y16356D01*
X39372Y17259D02*
X39672D01*
X39522Y17109D02*
Y17409D01*
X40503Y17900D02*
X40803D01*
X40653Y17750D02*
Y18050D01*
X47110Y20910D02*
X47410D01*
X47260Y20760D02*
Y21060D01*
X39820Y20710D02*
X40120D01*
X39970Y20560D02*
Y20860D01*
X87160Y18980D02*
X87460D01*
X87310Y18830D02*
Y19130D01*
X83740Y19920D02*
X84040D01*
X83890Y19770D02*
Y20070D01*
X87110Y29470D02*
X87410D01*
X87260Y29320D02*
Y29620D01*
X80720Y32570D02*
X81020D01*
X80870Y32420D02*
Y32720D01*
X84930Y32570D02*
X85230D01*
X85080Y32420D02*
Y32720D01*
X40670Y10940D02*
X40970D01*
X40820Y10790D02*
Y11090D01*
X45530Y15240D02*
X45830D01*
X45680Y15090D02*
Y15390D01*
X46960Y11300D02*
X47260D01*
X47110Y11150D02*
Y11450D01*
X43790Y8230D02*
X44090D01*
X43940Y8080D02*
Y8380D01*
X41020Y21650D02*
X41320D01*
X41170Y21500D02*
Y21800D01*
X46260Y21860D02*
X46560D01*
X46410Y21710D02*
Y22010D01*
X44730Y39360D02*
X45030D01*
X44880Y39210D02*
Y39510D01*
X47280Y36240D02*
X47580D01*
X47430Y36090D02*
Y36390D01*
X45050Y53960D02*
X45350D01*
X45200Y53810D02*
Y54110D01*
X45030Y50820D02*
X45330D01*
X45180Y50670D02*
Y50970D01*
X41180Y47080D02*
X41480D01*
X41330Y46930D02*
Y47230D01*
X55070Y36060D02*
X55370D01*
X55220Y35910D02*
Y36210D01*
X33830Y16670D02*
X34130D01*
X33980Y16520D02*
Y16820D01*
X30960Y18980D02*
X31260D01*
X31110Y18830D02*
Y19130D01*
X28140Y15570D02*
X28440D01*
X28290Y15420D02*
Y15720D01*
X30850Y13180D02*
X31150D01*
X31000Y13030D02*
Y13330D01*
X28260Y10670D02*
X28560D01*
X28410Y10520D02*
Y10820D01*
X77700Y55080D02*
X78000D01*
X77850Y54930D02*
Y55230D01*
X71590Y55080D02*
X71890D01*
X71740Y54930D02*
Y55230D01*
X74290Y52620D02*
X74590D01*
X74440Y52470D02*
Y52770D01*
X71470Y49210D02*
X71770D01*
X71620Y49060D02*
Y49360D01*
X74180Y46820D02*
X74480D01*
X74330Y46670D02*
Y46970D01*
X71590Y44310D02*
X71890D01*
X71740Y44160D02*
Y44460D01*
X74130Y41870D02*
X74430D01*
X74280Y41720D02*
Y42020D01*
X21480Y47110D02*
X21780D01*
X21630Y46960D02*
Y47260D01*
X29180Y47250D02*
X29480D01*
X29330Y47100D02*
Y47400D01*
X27810Y49140D02*
X28110D01*
X27960Y48990D02*
Y49290D01*
X24970Y47180D02*
X25270D01*
X25120Y47030D02*
Y47330D01*
X22286Y44740D02*
X22586D01*
X22436Y44590D02*
Y44890D01*
X34580Y45480D02*
X34880D01*
X34730Y45330D02*
Y45630D01*
X37280Y43020D02*
X37580D01*
X37430Y42870D02*
Y43170D01*
X39520Y39540D02*
X39820D01*
X39670Y39390D02*
Y39690D01*
X35040Y34110D02*
X35340D01*
X35190Y33960D02*
Y34260D01*
X37120Y32270D02*
X37420D01*
X37270Y32120D02*
Y32420D01*
X60970Y37090D02*
X61270D01*
X61120Y36940D02*
Y37240D01*
X63800Y39130D02*
X64100D01*
X63950Y38980D02*
Y39280D01*
X63670Y34630D02*
X63970D01*
X63820Y34480D02*
Y34780D01*
X60850Y31220D02*
X61150D01*
X61000Y31070D02*
Y31370D01*
X63560Y28830D02*
X63860D01*
X63710Y28680D02*
Y28980D01*
X60970Y26320D02*
X61270D01*
X61120Y26170D02*
Y26470D01*
X63510Y23880D02*
X63810D01*
X63660Y23730D02*
Y24030D01*
X55540Y22910D02*
X55840D01*
X55690Y22760D02*
Y23060D01*
X58370Y24950D02*
X58670D01*
X58520Y24800D02*
Y25100D01*
X58240Y20450D02*
X58540D01*
X58390Y20300D02*
Y20600D01*
X55420Y17040D02*
X55720D01*
X55570Y16890D02*
Y17190D01*
X55540Y12140D02*
X55840D01*
X55690Y11990D02*
Y12290D01*
X58080Y9700D02*
X58380D01*
X58230Y9550D02*
Y9850D01*
X76300Y15550D02*
X76600D01*
X76450Y15400D02*
Y15700D01*
X79130Y17590D02*
X79430D01*
X79280Y17440D02*
Y17740D01*
X79000Y13090D02*
X79300D01*
X79150Y12940D02*
Y13240D01*
X76180Y9680D02*
X76480D01*
X76330Y9530D02*
Y9830D01*
X78890Y7290D02*
X79190D01*
X79040Y7140D02*
Y7440D01*
X76300Y4780D02*
X76600D01*
X76450Y4630D02*
Y4930D01*
X78840Y2340D02*
X79140D01*
X78990Y2190D02*
Y2490D01*
X69240Y15330D02*
X69540D01*
X69390Y15180D02*
Y15480D01*
X72070Y17370D02*
X72370D01*
X72220Y17220D02*
Y17520D01*
X71940Y12870D02*
X72240D01*
X72090Y12720D02*
Y13020D01*
X69120Y9460D02*
X69420D01*
X69270Y9310D02*
Y9610D01*
X71830Y7070D02*
X72130D01*
X71980Y6920D02*
Y7220D01*
X69240Y4560D02*
X69540D01*
X69390Y4410D02*
Y4710D01*
X71780Y2120D02*
X72080D01*
X71930Y1970D02*
Y2270D01*
X64290Y17980D02*
X64590D01*
X64440Y17830D02*
Y18130D01*
X64160Y13480D02*
X64460D01*
X64310Y13330D02*
Y13630D01*
X61340Y10070D02*
X61640D01*
X61490Y9920D02*
Y10220D01*
X64050Y7680D02*
X64350D01*
X64200Y7530D02*
Y7830D01*
X61460Y5170D02*
X61760D01*
X61610Y5020D02*
Y5320D01*
X64000Y2730D02*
X64300D01*
X64150Y2580D02*
Y2880D01*
X22430Y5650D02*
X22730D01*
X22580Y5500D02*
Y5800D01*
X25020Y8160D02*
X25320D01*
X25170Y8010D02*
Y8310D01*
X25260Y18460D02*
X25560D01*
X25410Y18310D02*
Y18610D01*
X22310Y10550D02*
X22610D01*
X22460Y10400D02*
Y10700D01*
X22430Y16420D02*
X22730D01*
X22580Y16270D02*
Y16570D01*
X25130Y13960D02*
X25430D01*
X25280Y13810D02*
Y14110D01*
X24970Y3210D02*
X25270D01*
X25120Y3060D02*
Y3360D01*
X12320Y45800D02*
X12620D01*
X12470Y45650D02*
Y45950D01*
X15150Y47840D02*
X15450D01*
X15300Y47690D02*
Y47990D01*
X15020Y43340D02*
X15320D01*
X15170Y43190D02*
Y43490D01*
X12200Y39930D02*
X12500D01*
X12350Y39780D02*
Y40080D01*
X14910Y37540D02*
X15210D01*
X15060Y37390D02*
Y37690D01*
X12320Y35030D02*
X12620D01*
X12470Y34880D02*
Y35180D01*
X18510Y3150D02*
X18810D01*
X18660Y3000D02*
Y3300D01*
X15970Y5590D02*
X16270D01*
X16120Y5440D02*
Y5740D01*
X18560Y8100D02*
X18860D01*
X18710Y7950D02*
Y8250D01*
X15850Y10490D02*
X16150D01*
X16000Y10340D02*
Y10640D01*
X18670Y13900D02*
X18970D01*
X18820Y13750D02*
Y14050D01*
X18800Y18400D02*
X19100D01*
X18950Y18250D02*
Y18550D01*
X15970Y16360D02*
X16270D01*
X16120Y16210D02*
Y16510D01*
X13850Y49510D02*
X14150D01*
X14000Y49360D02*
Y49660D01*
X12330Y49520D02*
X12630D01*
X12480Y49370D02*
Y49670D01*
X11210Y50520D02*
X11510D01*
X11360Y50370D02*
Y50670D01*
X11210Y51850D02*
X11510D01*
X11360Y51700D02*
Y52000D01*
X11240Y53130D02*
X11540D01*
X11390Y52980D02*
Y53280D01*
X11250Y54400D02*
X11550D01*
X11400Y54250D02*
Y54550D01*
X11250Y55700D02*
X11550D01*
X11400Y55550D02*
Y55850D01*
X21080Y49620D02*
X21380D01*
X21230Y49470D02*
Y49770D01*
X22600Y49630D02*
X22900D01*
X22750Y49480D02*
Y49780D01*
X23720Y50630D02*
X24020D01*
X23870Y50480D02*
Y50780D01*
X23720Y51960D02*
X24020D01*
X23870Y51810D02*
Y52110D01*
X23690Y53240D02*
X23990D01*
X23840Y53090D02*
Y53390D01*
X23680Y54510D02*
X23980D01*
X23830Y54360D02*
Y54660D01*
X23680Y55810D02*
X23980D01*
X23830Y55660D02*
Y55960D01*
X39310Y49490D02*
X39610D01*
X39460Y49340D02*
Y49640D01*
X40830Y49500D02*
X41130D01*
X40980Y49350D02*
Y49650D01*
X41950Y50500D02*
X42250D01*
X42100Y50350D02*
Y50650D01*
X41950Y51830D02*
X42250D01*
X42100Y51680D02*
Y51980D01*
X41920Y53110D02*
X42220D01*
X42070Y52960D02*
Y53260D01*
X41910Y54380D02*
X42210D01*
X42060Y54230D02*
Y54530D01*
X41910Y55680D02*
X42210D01*
X42060Y55530D02*
Y55830D01*
X31660Y49640D02*
X31960D01*
X31810Y49490D02*
Y49790D01*
X30140Y49650D02*
X30440D01*
X30290Y49500D02*
Y49800D01*
X29020Y50650D02*
X29320D01*
X29170Y50500D02*
Y50800D01*
X29020Y51980D02*
X29320D01*
X29170Y51830D02*
Y52130D01*
X29050Y53260D02*
X29350D01*
X29200Y53110D02*
Y53410D01*
X29060Y54530D02*
X29360D01*
X29210Y54380D02*
Y54680D01*
X29060Y55830D02*
X29360D01*
X29210Y55680D02*
Y55980D01*
X55910Y7500D02*
X56210D01*
X56060Y7350D02*
Y7650D01*
X57430Y7490D02*
X57730D01*
X57580Y7340D02*
Y7640D01*
X58550Y6490D02*
X58850D01*
X58700Y6340D02*
Y6640D01*
X58550Y5160D02*
X58850D01*
X58700Y5010D02*
Y5310D01*
X58520Y3880D02*
X58820D01*
X58670Y3730D02*
Y4030D01*
X58510Y2610D02*
X58810D01*
X58660Y2460D02*
Y2760D01*
X58510Y1310D02*
X58810D01*
X58660Y1160D02*
Y1460D01*
X48730Y7490D02*
X49030D01*
X48880Y7340D02*
Y7640D01*
X47210Y7480D02*
X47510D01*
X47360Y7330D02*
Y7630D01*
X46090Y6480D02*
X46390D01*
X46240Y6330D02*
Y6630D01*
X46090Y5150D02*
X46390D01*
X46240Y5000D02*
Y5300D01*
X46120Y3870D02*
X46420D01*
X46270Y3720D02*
Y4020D01*
X46130Y2600D02*
X46430D01*
X46280Y2450D02*
Y2750D01*
X46130Y1300D02*
X46430D01*
X46280Y1150D02*
Y1450D01*
X32220Y7310D02*
X32520D01*
X32370Y7160D02*
Y7460D01*
X30700Y7340D02*
X31000D01*
X30850Y7190D02*
Y7490D01*
X29580Y6300D02*
X29880D01*
X29730Y6150D02*
Y6450D01*
X29580Y4970D02*
X29880D01*
X29730Y4820D02*
Y5120D01*
X29610Y3690D02*
X29910D01*
X29760Y3540D02*
Y3840D01*
X29620Y2420D02*
X29920D01*
X29770Y2270D02*
Y2570D01*
X29620Y1120D02*
X29920D01*
X29770Y970D02*
Y1270D01*
X41790Y1220D02*
X42090D01*
X41940Y1070D02*
Y1370D01*
X41790Y2520D02*
X42090D01*
X41940Y2370D02*
Y2670D01*
X41800Y3790D02*
X42100D01*
X41950Y3640D02*
Y3940D01*
X41830Y5070D02*
X42130D01*
X41980Y4920D02*
Y5220D01*
X41830Y6400D02*
X42130D01*
X41980Y6250D02*
Y6550D01*
X40710Y7400D02*
X41010D01*
X40860Y7250D02*
Y7550D01*
X39190Y7410D02*
X39490D01*
X39340Y7260D02*
Y7560D01*
X16880Y31210D02*
X17180D01*
X17030Y31060D02*
Y31360D01*
X31690Y28380D02*
X31990D01*
X31840Y28230D02*
Y28530D01*
X29820Y28380D02*
X30120D01*
X29970Y28230D02*
Y28530D01*
X47800Y46940D02*
X48100D01*
X47950Y46790D02*
Y47090D01*
X32140Y47580D02*
X32440D01*
X32290Y47430D02*
Y47730D01*
X39450Y32980D02*
X39750D01*
X39600Y32830D02*
Y33130D01*
X41100Y33020D02*
X41400D01*
X41250Y32870D02*
Y33170D01*
X42110Y15210D02*
X42410D01*
X42260Y15060D02*
Y15360D01*
X52370Y31300D02*
X52670D01*
X52520Y31150D02*
Y31450D01*
X52290Y34680D02*
X52590D01*
X52440Y34530D02*
Y34830D01*
X52420Y36430D02*
X52720D01*
X52570Y36280D02*
Y36580D01*
X44760Y36180D02*
X45060D01*
X44910Y36030D02*
Y36330D01*
X71800Y24620D02*
X72100D01*
X71950Y24470D02*
Y24770D01*
X72930Y24620D02*
X73230D01*
X73080Y24470D02*
Y24770D01*
X74090Y24620D02*
X74390D01*
X74240Y24470D02*
Y24770D01*
X71800Y25720D02*
X72100D01*
X71950Y25570D02*
Y25870D01*
X72930Y25720D02*
X73230D01*
X73080Y25570D02*
Y25870D01*
X74090Y25720D02*
X74390D01*
X74240Y25570D02*
Y25870D01*
X74090Y26720D02*
X74390D01*
X74240Y26570D02*
Y26870D01*
X72930Y26720D02*
X73230D01*
X73080Y26570D02*
Y26870D01*
X71800Y26720D02*
X72100D01*
X71950Y26570D02*
Y26870D01*
X74420Y37160D02*
X74720D01*
X74570Y37010D02*
Y37310D01*
X73210Y37160D02*
X73510D01*
X73360Y37010D02*
Y37310D01*
X71990Y37160D02*
X72290D01*
X72140Y37010D02*
Y37310D01*
X74420Y38350D02*
X74720D01*
X74570Y38200D02*
Y38500D01*
X73210Y38350D02*
X73510D01*
X73360Y38200D02*
Y38500D01*
X71990Y38350D02*
X72290D01*
X72140Y38200D02*
Y38500D01*
X74420Y39520D02*
X74720D01*
X74570Y39370D02*
Y39670D01*
X73210Y39520D02*
X73510D01*
X73360Y39370D02*
Y39670D01*
X71990Y39520D02*
X72290D01*
X72140Y39370D02*
Y39670D01*
X27630Y28270D02*
X27930D01*
X27780Y28120D02*
Y28420D01*
X27690Y26540D02*
X27990D01*
X27840Y26390D02*
Y26690D01*
X47430Y28100D02*
X47730D01*
X47580Y27949D02*
Y28250D01*
X51900Y20240D02*
X52200D01*
X52050Y20090D02*
Y20390D01*
X44450Y18750D02*
X44850D01*
X44650Y18550D02*
Y18950D01*
X51890Y23390D02*
X52190D01*
X52040Y23240D02*
Y23540D01*
X51570Y26090D02*
X51870D01*
X51720Y25940D02*
Y26240D01*
X51860Y21890D02*
X52160D01*
X52010Y21740D02*
Y22040D01*
X53930Y31273D02*
X54230D01*
X54080Y31123D02*
Y31423D01*
X44518Y26481D02*
X44918D01*
X44718Y26281D02*
Y26681D01*
X44518Y27381D02*
X44918D01*
X44718Y27181D02*
Y27581D01*
X44518Y25556D02*
X44918D01*
X44718Y25356D02*
Y25756D01*
X44518Y24606D02*
X44918D01*
X44718Y24406D02*
Y24806D01*
X43593Y26481D02*
X43993D01*
X43793Y26281D02*
Y26681D01*
X43593Y27381D02*
X43993D01*
X43793Y27181D02*
Y27581D01*
X43593Y25556D02*
X43993D01*
X43793Y25356D02*
Y25756D01*
X43593Y24606D02*
X43993D01*
X43793Y24406D02*
Y24806D01*
X42643Y26481D02*
X43043D01*
X42843Y26281D02*
Y26681D01*
X42643Y27381D02*
X43043D01*
X42843Y27181D02*
Y27581D01*
X42643Y25556D02*
X43043D01*
X42843Y25356D02*
Y25756D01*
X42643Y24606D02*
X43043D01*
X42843Y24406D02*
Y24806D01*
X42760Y18750D02*
X43160D01*
X42960Y18550D02*
Y18950D01*
X27723Y24900D02*
X28023D01*
X27873Y24750D02*
Y25050D01*
X39748Y28350D02*
X40048D01*
X39898Y28200D02*
Y28500D01*
X44140Y31500D02*
X44440D01*
X44290Y31350D02*
Y31650D01*
X40098Y23725D02*
X40398D01*
X40248Y23575D02*
Y23875D01*
X52620Y27960D02*
X52920D01*
X52770Y27810D02*
Y28110D01*
X49260Y31180D02*
X49560D01*
X49410Y31030D02*
Y31330D01*
M02*
