G04*
G04 #@! TF.GenerationSoftware,Altium Limited,Altium Designer,21.1.1 (26)*
G04*
G04 Layer_Color=255*
%FSLAX43Y43*%
%MOMM*%
G71*
G04*
G04 #@! TF.SameCoordinates,7D77D7A2-79D2-47A9-8A17-8AFE765D4546*
G04*
G04*
G04 #@! TF.FilePolarity,Positive*
G04*
G01*
G75*
%ADD17R,1.702X5.842*%
%ADD22R,1.020X0.940*%
%ADD51C,1.600*%
%ADD67C,4.000*%
%ADD68C,1.500*%
%ADD71R,1.400X0.800*%
G54D17*
X56753Y3525D02*
D03*
X48244D02*
D03*
X31406Y53943D02*
D03*
X39915D02*
D03*
X21803Y53825D02*
D03*
X13294D02*
D03*
X40153Y3450D02*
D03*
X31644D02*
D03*
G54D22*
X15420Y31070D02*
D03*
Y29490D02*
D03*
X15510Y27220D02*
D03*
Y25640D02*
D03*
X15490Y24000D02*
D03*
Y22420D02*
D03*
X15350Y20570D02*
D03*
Y18990D02*
D03*
X49610Y45020D02*
D03*
Y43440D02*
D03*
G54D51*
X61675Y43510D02*
D03*
X54050D02*
D03*
Y51135D02*
D03*
X61675D02*
D03*
X27773Y22650D02*
D03*
X30273D02*
D03*
X32773D02*
D03*
X45323Y43250D02*
D03*
X42823D02*
D03*
X40323D02*
D03*
X8323Y21850D02*
D03*
X5823D02*
D03*
Y24390D02*
D03*
X8323D02*
D03*
Y26930D02*
D03*
X5823D02*
D03*
Y29470D02*
D03*
X8323D02*
D03*
Y32010D02*
D03*
X5783D02*
D03*
G54D67*
X30780Y42380D02*
D03*
X60010Y15870D02*
D03*
X82473Y5675D02*
D03*
X5298Y6000D02*
D03*
X82473Y52300D02*
D03*
X5298Y51375D02*
D03*
G54D68*
X78260Y23140D02*
D03*
X68350Y51290D02*
D03*
X57150Y29180D02*
D03*
X82140Y48100D02*
D03*
X78770Y48010D02*
D03*
X78100Y36100D02*
D03*
Y38650D02*
D03*
X78260Y25690D02*
D03*
G54D71*
X58990Y43530D02*
D03*
X56790D02*
D03*
Y41930D02*
D03*
X58990D02*
D03*
M02*
