G04*
G04 #@! TF.GenerationSoftware,Altium Limited,Altium Designer,21.1.1 (26)*
G04*
G04 Layer_Color=16711935*
%FSLAX43Y43*%
%MOMM*%
G71*
G04*
G04 #@! TF.SameCoordinates,7D77D7A2-79D2-47A9-8A17-8AFE765D4546*
G04*
G04*
G04 #@! TF.FilePolarity,Positive*
G04*
G01*
G75*
%ADD12C,0.254*%
G54D12*
X6205Y1D02*
X7248Y-0D01*
X84007D02*
X84311Y0D01*
X7248Y-0D02*
X84007D01*
X-26Y5821D02*
X35Y5215D01*
X155Y4619D01*
X334Y4038D01*
X570Y3477D01*
X860Y2943D01*
X1201Y2439D01*
X1591Y1972D01*
X2025Y1546D01*
X2498Y1165D01*
X3008Y832D01*
X3547Y551D01*
X4112Y326D01*
X4696Y157D01*
X5295Y47D01*
X5901Y-4D01*
X6205Y1D01*
X84311Y0D02*
X84917Y61D01*
X85513Y182D01*
X86094Y361D01*
X86655Y597D01*
X87189Y886D01*
X87693Y1228D01*
X88160Y1617D01*
X88586Y2051D01*
X88967Y2525D01*
X89300Y3034D01*
X89581Y3574D01*
X89806Y4139D01*
X89975Y4723D01*
X90085Y5321D01*
X90136Y5927D01*
X90131Y6231D02*
X90136Y5927D01*
X90131Y6231D02*
X90153Y48800D01*
X90149Y51375D02*
X90153Y48800D01*
X90148Y51679D02*
X90149Y51375D01*
X90087Y52284D02*
X90148Y51679D01*
X89967Y52880D02*
X90087Y52284D01*
X89788Y53462D02*
X89967Y52880D01*
X89552Y54023D02*
X89788Y53462D01*
X89263Y54558D02*
X89552Y54023D01*
X88921Y55061D02*
X89263Y54558D01*
X88532Y55529D02*
X88921Y55061D01*
X88098Y55955D02*
X88532Y55529D01*
X87624Y56337D02*
X88098Y55955D01*
X87115Y56669D02*
X87624Y56337D01*
X86575Y56950D02*
X87115Y56669D01*
X86010Y57176D02*
X86575Y56950D01*
X85426Y57345D02*
X86010Y57176D01*
X84828Y57455D02*
X85426Y57345D01*
X84221Y57506D02*
X84828Y57455D01*
X83917Y57501D02*
X84221Y57506D01*
X6123Y57500D02*
X83917Y57501D01*
X5819Y57499D02*
X6123Y57500D01*
X5214Y57438D02*
X5819Y57499D01*
X4618Y57318D02*
X5214Y57438D01*
X4037Y57139D02*
X4618Y57318D01*
X3476Y56903D02*
X4037Y57139D01*
X2941Y56613D02*
X3476Y56903D01*
X2438Y56272D02*
X2941Y56613D01*
X1971Y55882D02*
X2438Y56272D01*
X1545Y55449D02*
X1971Y55882D01*
X1163Y54975D02*
X1545Y55449D01*
X831Y54465D02*
X1163Y54975D01*
X550Y53926D02*
X831Y54465D01*
X324Y53361D02*
X550Y53926D01*
X156Y52777D02*
X324Y53361D01*
X5Y51957D02*
X156Y52777D01*
X-26Y51586D02*
X5Y51957D01*
X-26Y7253D02*
Y51586D01*
Y5821D02*
Y7253D01*
M02*
